NotoSansBhaiksuki-Regular.ufo
<glyph name="uni25CC" format="2">
  <advance width="594"/>
  <unicode hex="25CC"/>
  <anchor x="470" y="480" name="AA"/>
  <anchor x="297" y="600" name="AnusCandra"/>
  <anchor x="231" y="504" name="E"/>
  <anchor x="297" y="500" name="II"/>
  <anchor x="549" y="410" name="O"/>
  <anchor x="297" y="0" name="Pa"/>
  <anchor x="297" y="500" name="Repha"/>
  <anchor x="297" y="0" name="UU"/>
  <anchor x="297" y="0" name="Virama"/>
  <anchor x="297" y="0" name="VocL"/>
  <anchor x="297" y="0" name="VocR"/>
  <anchor x="297" y="0" name="Ya"/>
  <outline>
    <contour>
      <point x="479" y="408" type="curve" smooth="yes"/>
      <point x="479" y="425"/>
      <point x="471" y="433"/>
      <point x="455" y="433" type="curve" smooth="yes"/>
      <point x="438" y="433"/>
      <point x="430" y="425"/>
      <point x="430" y="408" type="curve" smooth="yes"/>
      <point x="430" y="392"/>
      <point x="438" y="384"/>
      <point x="455" y="384" type="curve" smooth="yes"/>
      <point x="471" y="384"/>
      <point x="479" y="392"/>
    </contour>
    <contour>
      <point x="406" y="456" type="curve" smooth="yes"/>
      <point x="406" y="473"/>
      <point x="398" y="481"/>
      <point x="383" y="481" type="curve" smooth="yes"/>
      <point x="366" y="481"/>
      <point x="357" y="473"/>
      <point x="357" y="456" type="curve" smooth="yes"/>
      <point x="357" y="440"/>
      <point x="366" y="432"/>
      <point x="383" y="432" type="curve" smooth="yes"/>
      <point x="398" y="432"/>
      <point x="406" y="440"/>
    </contour>
    <contour>
      <point x="527" y="336" type="curve" smooth="yes"/>
      <point x="527" y="352"/>
      <point x="519" y="360"/>
      <point x="503" y="360" type="curve" smooth="yes"/>
      <point x="486" y="360"/>
      <point x="478" y="352"/>
      <point x="478" y="336" type="curve" smooth="yes"/>
      <point x="478" y="319"/>
      <point x="486" y="311"/>
      <point x="502" y="311" type="curve" smooth="yes"/>
      <point x="519" y="311"/>
      <point x="527" y="319"/>
    </contour>
    <contour>
      <point x="544" y="251" type="curve" smooth="yes"/>
      <point x="544" y="267"/>
      <point x="536" y="275"/>
      <point x="521" y="275" type="curve" smooth="yes"/>
      <point x="504" y="275"/>
      <point x="496" y="267"/>
      <point x="496" y="251" type="curve" smooth="yes"/>
      <point x="496" y="235"/>
      <point x="504" y="227"/>
      <point x="521" y="227" type="curve" smooth="yes"/>
      <point x="536" y="227"/>
      <point x="544" y="235"/>
    </contour>
    <contour>
      <point x="321" y="474" type="curve" smooth="yes"/>
      <point x="321" y="490"/>
      <point x="313" y="498"/>
      <point x="297" y="498" type="curve" smooth="yes"/>
      <point x="280" y="498"/>
      <point x="272" y="490"/>
      <point x="272" y="474" type="curve" smooth="yes"/>
      <point x="272" y="457"/>
      <point x="280" y="449"/>
      <point x="297" y="449" type="curve" smooth="yes"/>
      <point x="313" y="449"/>
      <point x="321" y="457"/>
    </contour>
    <contour>
      <point x="237" y="456" type="curve" smooth="yes"/>
      <point x="237" y="473"/>
      <point x="229" y="481"/>
      <point x="212" y="481" type="curve" smooth="yes"/>
      <point x="196" y="481"/>
      <point x="188" y="473"/>
      <point x="188" y="456" type="curve" smooth="yes"/>
      <point x="188" y="440"/>
      <point x="196" y="432"/>
      <point x="212" y="432" type="curve" smooth="yes"/>
      <point x="229" y="432"/>
      <point x="237" y="440"/>
    </contour>
    <contour>
      <point x="527" y="166" type="curve" smooth="yes"/>
      <point x="527" y="183"/>
      <point x="519" y="191"/>
      <point x="502" y="191" type="curve" smooth="yes"/>
      <point x="486" y="191"/>
      <point x="478" y="183"/>
      <point x="478" y="166" type="curve" smooth="yes"/>
      <point x="478" y="150"/>
      <point x="486" y="142"/>
      <point x="502" y="142" type="curve" smooth="yes"/>
      <point x="519" y="142"/>
      <point x="527" y="150"/>
    </contour>
    <contour>
      <point x="165" y="408" type="curve" smooth="yes"/>
      <point x="165" y="425"/>
      <point x="157" y="433"/>
      <point x="140" y="433" type="curve" smooth="yes"/>
      <point x="124" y="433"/>
      <point x="116" y="424"/>
      <point x="116" y="407" type="curve" smooth="yes"/>
      <point x="116" y="392"/>
      <point x="124" y="384"/>
      <point x="140" y="384" type="curve" smooth="yes"/>
      <point x="157" y="384"/>
      <point x="165" y="392"/>
    </contour>
    <contour>
      <point x="479" y="93" type="curve" smooth="yes"/>
      <point x="479" y="110"/>
      <point x="471" y="118"/>
      <point x="455" y="118" type="curve" smooth="yes"/>
      <point x="438" y="118"/>
      <point x="430" y="110"/>
      <point x="430" y="93" type="curve" smooth="yes"/>
      <point x="430" y="77"/>
      <point x="438" y="69"/>
      <point x="455" y="69" type="curve" smooth="yes"/>
      <point x="471" y="69"/>
      <point x="479" y="77"/>
    </contour>
    <contour>
      <point x="406" y="45" type="curve" smooth="yes"/>
      <point x="406" y="62"/>
      <point x="398" y="70"/>
      <point x="383" y="70" type="curve" smooth="yes"/>
      <point x="366" y="70"/>
      <point x="357" y="62"/>
      <point x="357" y="45" type="curve" smooth="yes"/>
      <point x="357" y="30"/>
      <point x="366" y="22"/>
      <point x="383" y="22" type="curve" smooth="yes"/>
      <point x="398" y="22"/>
      <point x="406" y="30"/>
    </contour>
    <contour>
      <point x="116" y="336" type="curve" smooth="yes"/>
      <point x="116" y="352"/>
      <point x="108" y="360"/>
      <point x="92" y="360" type="curve" smooth="yes"/>
      <point x="75" y="360"/>
      <point x="67" y="352"/>
      <point x="67" y="336" type="curve" smooth="yes"/>
      <point x="67" y="319"/>
      <point x="76" y="311"/>
      <point x="93" y="311" type="curve" smooth="yes"/>
      <point x="108" y="311"/>
      <point x="116" y="319"/>
    </contour>
    <contour>
      <point x="99" y="251" type="curve" smooth="yes"/>
      <point x="99" y="267"/>
      <point x="91" y="275"/>
      <point x="75" y="275" type="curve" smooth="yes"/>
      <point x="58" y="275"/>
      <point x="50" y="267"/>
      <point x="50" y="251" type="curve" smooth="yes"/>
      <point x="50" y="235"/>
      <point x="58" y="227"/>
      <point x="75" y="227" type="curve" smooth="yes"/>
      <point x="91" y="227"/>
      <point x="99" y="235"/>
    </contour>
    <contour>
      <point x="321" y="29" type="curve" smooth="yes"/>
      <point x="321" y="45"/>
      <point x="313" y="53"/>
      <point x="297" y="53" type="curve" smooth="yes"/>
      <point x="280" y="53"/>
      <point x="272" y="45"/>
      <point x="272" y="29" type="curve" smooth="yes"/>
      <point x="272" y="12"/>
      <point x="280" y="4"/>
      <point x="297" y="4" type="curve" smooth="yes"/>
      <point x="313" y="4"/>
      <point x="321" y="12"/>
    </contour>
    <contour>
      <point x="116" y="166" type="curve" smooth="yes"/>
      <point x="116" y="183"/>
      <point x="108" y="191"/>
      <point x="92" y="191" type="curve" smooth="yes"/>
      <point x="75" y="191"/>
      <point x="67" y="183"/>
      <point x="67" y="166" type="curve" smooth="yes"/>
      <point x="67" y="150"/>
      <point x="75" y="142"/>
      <point x="92" y="142" type="curve" smooth="yes"/>
      <point x="108" y="142"/>
      <point x="116" y="150"/>
    </contour>
    <contour>
      <point x="237" y="47" type="curve" smooth="yes"/>
      <point x="237" y="62"/>
      <point x="229" y="70"/>
      <point x="212" y="70" type="curve" smooth="yes"/>
      <point x="196" y="70"/>
      <point x="188" y="62"/>
      <point x="188" y="45" type="curve" smooth="yes"/>
      <point x="188" y="30"/>
      <point x="196" y="22"/>
      <point x="212" y="22" type="curve" smooth="yes"/>
      <point x="229" y="22"/>
      <point x="237" y="30"/>
    </contour>
    <contour>
      <point x="165" y="93" type="curve" smooth="yes"/>
      <point x="165" y="110"/>
      <point x="157" y="118"/>
      <point x="140" y="118" type="curve" smooth="yes"/>
      <point x="124" y="118"/>
      <point x="116" y="110"/>
      <point x="116" y="93" type="curve" smooth="yes"/>
      <point x="116" y="77"/>
      <point x="124" y="69"/>
      <point x="140" y="69" type="curve" smooth="yes"/>
      <point x="157" y="69"/>
      <point x="165" y="77"/>
    </contour>
  </outline>
</glyph>
<glyph name="A_indi" format="2">
  <advance width="676"/>
  <unicode hex="11C00"/>
  <anchor x="340" y="600" name="AnusCandra"/>
  <anchor x="320" y="0" name="Virama"/>
  <outline>
    <contour>
      <point x="417" y="-10" type="curve"/>
      <point x="436" y="-10" type="line"/>
      <point x="469" y="4"/>
      <point x="534" y="111"/>
      <point x="534" y="170" type="curve" smooth="yes"/>
      <point x="534" y="219"/>
      <point x="519" y="330"/>
      <point x="500" y="388" type="curve"/>
      <point x="656" y="388" type="line"/>
      <point x="656" y="408" type="line"/>
      <point x="495" y="560" type="line"/>
      <point x="473" y="560" type="line"/>
      <point x="338" y="434" type="line"/>
      <point x="205" y="560" type="line"/>
      <point x="184" y="560" type="line"/>
      <point x="20" y="408" type="line"/>
      <point x="20" y="388" type="line"/>
      <point x="149" y="388" type="line"/>
      <point x="143" y="298"/>
      <point x="128" y="293"/>
      <point x="118" y="276" type="curve"/>
      <point x="131" y="261"/>
      <point x="132" y="260"/>
      <point x="137" y="234" type="curve"/>
      <point x="187" y="234"/>
      <point x="370" y="212"/>
      <point x="453" y="185" type="curve"/>
      <point x="453" y="181" type="line" smooth="yes"/>
      <point x="453" y="129"/>
      <point x="429" y="91"/>
      <point x="412" y="72" type="curve"/>
      <point x="374" y="95"/>
      <point x="319" y="129"/>
      <point x="242" y="129" type="curve" smooth="yes"/>
      <point x="170" y="129"/>
      <point x="81" y="57"/>
      <point x="26" y="12" type="curve"/>
      <point x="43" y="-8" type="line"/>
      <point x="143" y="50"/>
      <point x="180" y="57"/>
      <point x="230" y="57" type="curve" smooth="yes"/>
      <point x="319" y="57"/>
      <point x="365" y="14"/>
    </contour>
    <contour>
      <point x="447" y="258" type="curve"/>
      <point x="378" y="270"/>
      <point x="266" y="276"/>
      <point x="196" y="276" type="curve"/>
      <point x="214" y="309"/>
      <point x="223" y="341"/>
      <point x="226" y="388" type="curve"/>
      <point x="422" y="388" type="line"/>
      <point x="432" y="356"/>
      <point x="441" y="304"/>
    </contour>
  </outline>
</glyph>
<glyph name="AA_indi" format="2">
  <advance width="716"/>
  <unicode hex="11C01"/>
  <anchor x="340" y="600" name="AnusCandra"/>
  <anchor x="385" y="-75" name="Virama"/>
  <outline>
    <contour>
      <point x="388" y="-102" type="line"/>
      <point x="507" y="-101"/>
      <point x="665" y="-65"/>
      <point x="716" y="9" type="curve"/>
      <point x="700" y="62"/>
      <point x="649" y="143"/>
      <point x="544" y="181" type="curve"/>
      <point x="544" y="241"/>
      <point x="534" y="328"/>
      <point x="522" y="388" type="curve"/>
      <point x="656" y="388" type="line"/>
      <point x="656" y="408" type="line"/>
      <point x="495" y="560" type="line"/>
      <point x="473" y="560" type="line"/>
      <point x="338" y="434" type="line"/>
      <point x="205" y="560" type="line"/>
      <point x="184" y="560" type="line"/>
      <point x="20" y="408" type="line"/>
      <point x="20" y="388" type="line"/>
      <point x="164" y="388" type="line"/>
      <point x="157" y="317"/>
      <point x="143" y="312"/>
      <point x="134" y="296" type="curve"/>
      <point x="147" y="281"/>
      <point x="148" y="280"/>
      <point x="153" y="254" type="curve"/>
      <point x="206" y="254"/>
      <point x="389" y="245"/>
      <point x="461" y="220" type="curve"/>
      <point x="461" y="214"/>
      <point x="462" y="207"/>
      <point x="462" y="201" type="curve"/>
      <point x="445" y="203"/>
      <point x="427" y="204"/>
      <point x="409" y="204" type="curve" smooth="yes"/>
      <point x="322" y="204"/>
      <point x="191" y="132"/>
      <point x="145" y="96" type="curve"/>
      <point x="158" y="69" type="line"/>
      <point x="227" y="63"/>
      <point x="281" y="-10"/>
      <point x="366" y="-10" type="curve" smooth="yes"/>
      <point x="470" y="-10"/>
      <point x="521" y="32"/>
      <point x="538" y="113" type="curve"/>
      <point x="581" y="90"/>
      <point x="611" y="58"/>
      <point x="616" y="24" type="curve"/>
      <point x="590" y="-16"/>
      <point x="524" y="-48"/>
      <point x="379" y="-69" type="curve"/>
    </contour>
    <contour>
      <point x="375" y="60" type="curve" smooth="yes"/>
      <point x="329" y="60"/>
      <point x="290" y="88"/>
      <point x="274" y="105" type="curve"/>
      <point x="299" y="126"/>
      <point x="359" y="145"/>
      <point x="402" y="145" type="curve" smooth="yes"/>
      <point x="422" y="145"/>
      <point x="441" y="142"/>
      <point x="460" y="139" type="curve"/>
      <point x="449" y="64"/>
      <point x="408" y="60"/>
    </contour>
    <contour>
      <point x="458" y="290" type="curve"/>
      <point x="396" y="302"/>
      <point x="286" y="306"/>
      <point x="212" y="306" type="curve"/>
      <point x="227" y="334"/>
      <point x="236" y="355"/>
      <point x="240" y="388" type="curve"/>
      <point x="444" y="388" type="line"/>
      <point x="449" y="359"/>
      <point x="455" y="328"/>
    </contour>
  </outline>
</glyph>
<glyph name="I_indi" format="2">
  <advance width="706"/>
  <unicode hex="11C02"/>
  <anchor x="385" y="600" name="AnusCandra"/>
  <anchor x="395" y="0" name="Virama"/>
  <outline>
    <contour>
      <point x="106" y="284" type="curve"/>
      <point x="130" y="313"/>
      <point x="158" y="337"/>
      <point x="192" y="356" type="curve"/>
      <point x="157" y="372"/>
      <point x="144" y="388"/>
      <point x="144" y="410" type="curve" smooth="yes"/>
      <point x="144" y="428"/>
      <point x="199" y="468"/>
      <point x="249" y="490" type="curve"/>
      <point x="267" y="475"/>
      <point x="340" y="438"/>
      <point x="348" y="319" type="curve"/>
      <point x="376" y="340"/>
      <point x="403" y="358"/>
      <point x="434" y="369" type="curve"/>
      <point x="434" y="375"/>
      <point x="433" y="381"/>
      <point x="431" y="388" type="curve"/>
      <point x="686" y="388" type="line"/>
      <point x="686" y="408" type="line"/>
      <point x="525" y="560" type="line"/>
      <point x="503" y="560" type="line"/>
      <point x="391" y="455" type="line"/>
      <point x="354" y="499"/>
      <point x="302" y="540"/>
      <point x="272" y="560" type="curve"/>
      <point x="255" y="560" type="line"/>
      <point x="216" y="541"/>
      <point x="40" y="430"/>
      <point x="40" y="388" type="curve" smooth="yes"/>
      <point x="40" y="357"/>
      <point x="59" y="322"/>
    </contour>
    <contour>
      <point x="180" y="-10" type="curve" smooth="yes"/>
      <point x="242" y="-10"/>
      <point x="285" y="38"/>
      <point x="299" y="57" type="curve"/>
      <point x="280" y="84" type="line"/>
      <point x="267" y="73"/>
      <point x="235" y="62"/>
      <point x="197" y="62" type="curve" smooth="yes"/>
      <point x="165" y="62"/>
      <point x="137" y="84"/>
      <point x="137" y="127" type="curve" smooth="yes"/>
      <point x="137" y="142"/>
      <point x="176" y="185"/>
      <point x="200" y="185" type="curve" smooth="yes"/>
      <point x="236" y="185"/>
      <point x="255" y="171"/>
      <point x="274" y="160" type="curve"/>
      <point x="283" y="181"/>
      <point x="296" y="207"/>
      <point x="310" y="224" type="curve"/>
      <point x="294" y="246"/>
      <point x="247" y="259"/>
      <point x="217" y="259" type="curve" smooth="yes"/>
      <point x="157" y="259"/>
      <point x="65" y="169"/>
      <point x="65" y="116" type="curve" smooth="yes"/>
      <point x="65" y="41"/>
      <point x="121" y="-10"/>
    </contour>
    <contour>
      <point x="518" y="33" type="curve" smooth="yes"/>
      <point x="573" y="33"/>
      <point x="633" y="88"/>
      <point x="633" y="173" type="curve" smooth="yes"/>
      <point x="633" y="244"/>
      <point x="563" y="302"/>
      <point x="512" y="302" type="curve" smooth="yes"/>
      <point x="456" y="302"/>
      <point x="423" y="260"/>
      <point x="406" y="239" type="curve"/>
      <point x="429" y="203" type="line"/>
      <point x="449" y="214"/>
      <point x="467" y="228"/>
      <point x="503" y="228" type="curve" smooth="yes"/>
      <point x="534" y="228"/>
      <point x="561" y="183"/>
      <point x="561" y="167" type="curve" smooth="yes"/>
      <point x="561" y="129"/>
      <point x="538" y="105"/>
      <point x="506" y="105" type="curve" smooth="yes"/>
      <point x="479" y="105"/>
      <point x="450" y="111"/>
      <point x="436" y="117" type="curve"/>
      <point x="433" y="95"/>
      <point x="428" y="75"/>
      <point x="421" y="54" type="curve"/>
      <point x="438" y="43"/>
      <point x="476" y="33"/>
    </contour>
  </outline>
</glyph>
<glyph name="U_indi" format="2">
  <advance width="644"/>
  <unicode hex="11C04"/>
  <anchor x="415" y="600" name="AnusCandra"/>
  <anchor x="320" y="0" name="Virama"/>
  <outline>
    <contour>
      <point x="285" y="-10" type="curve" smooth="yes"/>
      <point x="402" y="-10"/>
      <point x="515" y="104"/>
      <point x="515" y="156" type="curve" smooth="yes"/>
      <point x="515" y="210"/>
      <point x="487" y="247"/>
      <point x="405" y="279" type="curve"/>
      <point x="435" y="295"/>
      <point x="469" y="338"/>
      <point x="473" y="388" type="curve"/>
      <point x="624" y="388" type="line"/>
      <point x="624" y="410" type="line"/>
      <point x="430" y="560" type="line"/>
      <point x="408" y="560" type="line"/>
      <point x="203" y="410" type="line"/>
      <point x="203" y="388" type="line"/>
      <point x="388" y="388" type="line"/>
      <point x="386" y="336"/>
      <point x="372" y="299"/>
      <point x="322" y="299" type="curve"/>
      <point x="312" y="260" type="line"/>
      <point x="355" y="250"/>
      <point x="433" y="222"/>
      <point x="433" y="159" type="curve" smooth="yes"/>
      <point x="433" y="110"/>
      <point x="374" y="60"/>
      <point x="301" y="60" type="curve" smooth="yes"/>
      <point x="188" y="60"/>
      <point x="140" y="162"/>
      <point x="133" y="282" type="curve"/>
      <point x="99" y="259"/>
      <point x="61" y="254"/>
      <point x="30" y="245" type="curve"/>
      <point x="30" y="198"/>
      <point x="91" y="-10"/>
    </contour>
  </outline>
</glyph>
<glyph name="UU_indi" format="2">
  <advance width="662"/>
  <unicode hex="11C05"/>
  <anchor x="410" y="600" name="AnusCandra"/>
  <anchor x="375" y="-140" name="Virama"/>
  <outline>
    <contour>
      <point x="563" y="-161" type="curve"/>
      <point x="590" y="-142"/>
      <point x="617" y="-130"/>
      <point x="642" y="-122" type="curve"/>
      <point x="631" y="-70"/>
      <point x="585" y="18"/>
      <point x="550" y="36" type="curve"/>
      <point x="521" y="29"/>
      <point x="496" y="15"/>
      <point x="470" y="-3" type="curve"/>
      <point x="480" y="-9"/>
      <point x="496" y="-31"/>
      <point x="512" y="-56" type="curve"/>
      <point x="489" y="-68"/>
      <point x="461" y="-80"/>
      <point x="440" y="-80" type="curve" smooth="yes"/>
      <point x="388" y="-80"/>
      <point x="344" y="-47"/>
      <point x="325" y="-5" type="curve"/>
      <point x="427" y="16"/>
      <point x="515" y="110"/>
      <point x="515" y="156" type="curve" smooth="yes"/>
      <point x="515" y="210"/>
      <point x="487" y="247"/>
      <point x="405" y="279" type="curve"/>
      <point x="435" y="295"/>
      <point x="469" y="338"/>
      <point x="473" y="388" type="curve"/>
      <point x="624" y="388" type="line"/>
      <point x="624" y="410" type="line"/>
      <point x="430" y="560" type="line"/>
      <point x="408" y="560" type="line"/>
      <point x="203" y="410" type="line"/>
      <point x="203" y="388" type="line"/>
      <point x="388" y="388" type="line"/>
      <point x="386" y="336"/>
      <point x="372" y="299"/>
      <point x="322" y="299" type="curve"/>
      <point x="312" y="260" type="line"/>
      <point x="355" y="250"/>
      <point x="433" y="222"/>
      <point x="433" y="159" type="curve" smooth="yes"/>
      <point x="433" y="110"/>
      <point x="374" y="60"/>
      <point x="301" y="60" type="curve" smooth="yes"/>
      <point x="188" y="60"/>
      <point x="140" y="162"/>
      <point x="133" y="282" type="curve"/>
      <point x="99" y="259"/>
      <point x="61" y="254"/>
      <point x="30" y="245" type="curve"/>
      <point x="30" y="202"/>
      <point x="81" y="24"/>
      <point x="239" y="-5" type="curve"/>
      <point x="258" y="-90"/>
      <point x="330" y="-150"/>
      <point x="431" y="-150" type="curve" smooth="yes"/>
      <point x="453" y="-150"/>
      <point x="505" y="-124"/>
      <point x="538" y="-103" type="curve"/>
      <point x="550" y="-128"/>
      <point x="560" y="-150"/>
    </contour>
  </outline>
</glyph>
<glyph name="VocR_indi" format="2">
  <advance width="680"/>
  <unicode hex="11C06"/>
  <anchor x="365" y="600" name="AnusCandra"/>
  <anchor x="320" y="0" name="Virama"/>
  <outline>
    <contour>
      <point x="329" y="-10" type="curve" smooth="yes"/>
      <point x="433" y="-10"/>
      <point x="531" y="117"/>
      <point x="531" y="166" type="curve" smooth="yes"/>
      <point x="531" y="223"/>
      <point x="516" y="280"/>
      <point x="491" y="324" type="curve"/>
      <point x="660" y="324" type="line"/>
      <point x="660" y="346" type="line"/>
      <point x="466" y="500" type="line"/>
      <point x="444" y="500" type="line"/>
      <point x="239" y="346" type="line"/>
      <point x="239" y="324" type="line"/>
      <point x="394" y="324" type="line"/>
      <point x="431" y="279"/>
      <point x="449" y="210"/>
      <point x="449" y="154" type="curve" smooth="yes"/>
      <point x="449" y="111"/>
      <point x="404" y="60"/>
      <point x="337" y="60" type="curve" smooth="yes"/>
      <point x="194" y="60"/>
      <point x="130" y="237"/>
      <point x="130" y="339" type="curve" smooth="yes"/>
      <point x="130" y="399"/>
      <point x="144" y="457"/>
      <point x="191" y="494" type="curve"/>
      <point x="153" y="516"/>
      <point x="121" y="537"/>
      <point x="96" y="560" type="curve"/>
      <point x="69" y="533"/>
      <point x="40" y="468"/>
      <point x="40" y="369" type="curve" smooth="yes"/>
      <point x="40" y="236"/>
      <point x="109" y="-10"/>
    </contour>
  </outline>
</glyph>
<glyph name="VocRR_indi" format="2">
  <advance width="799"/>
  <unicode hex="11C07"/>
  <anchor x="415" y="600" name="AnusCandra"/>
  <anchor x="410" y="-165" name="Virama"/>
  <outline>
    <contour>
      <point x="434" y="-172" type="curve" smooth="yes"/>
      <point x="523" y="-172"/>
      <point x="611" y="-55"/>
      <point x="632" y="63" type="curve"/>
      <point x="661" y="98"/>
      <point x="681" y="137"/>
      <point x="681" y="158" type="curve" smooth="yes"/>
      <point x="681" y="203"/>
      <point x="669" y="255"/>
      <point x="653" y="293" type="curve"/>
      <point x="779" y="293" type="line"/>
      <point x="779" y="313" type="line"/>
      <point x="618" y="465" type="line"/>
      <point x="596" y="465" type="line"/>
      <point x="433" y="313" type="line"/>
      <point x="433" y="293" type="line"/>
      <point x="564" y="293" type="line"/>
      <point x="584" y="253"/>
      <point x="599" y="186"/>
      <point x="599" y="143" type="curve" smooth="yes"/>
      <point x="599" y="98"/>
      <point x="543" y="60"/>
      <point x="519" y="60" type="curve" smooth="yes"/>
      <point x="462" y="60"/>
      <point x="338" y="131"/>
      <point x="338" y="317" type="curve" smooth="yes"/>
      <point x="338" y="366"/>
      <point x="350" y="408"/>
      <point x="397" y="450" type="curve"/>
      <point x="361" y="469"/>
      <point x="329" y="490"/>
      <point x="304" y="515" type="curve"/>
      <point x="285" y="499"/>
      <point x="250" y="465"/>
      <point x="250" y="345" type="curve" smooth="yes"/>
      <point x="250" y="247"/>
      <point x="306" y="-10"/>
      <point x="505" y="-10" type="curve" smooth="yes"/>
      <point x="518" y="-10"/>
      <point x="531" y="-7"/>
      <point x="543" y="-2" type="curve"/>
      <point x="520" y="-55"/>
      <point x="471" y="-102"/>
      <point x="442" y="-102" type="curve" smooth="yes"/>
      <point x="282" y="-102"/>
      <point x="130" y="81"/>
      <point x="130" y="319" type="curve" smooth="yes"/>
      <point x="130" y="384"/>
      <point x="136" y="446"/>
      <point x="184" y="491" type="curve"/>
      <point x="151" y="509"/>
      <point x="122" y="531"/>
      <point x="100" y="560" type="curve"/>
      <point x="80" y="546"/>
      <point x="40" y="491"/>
      <point x="40" y="359" type="curve" smooth="yes"/>
      <point x="40" y="113"/>
      <point x="181" y="-172"/>
    </contour>
  </outline>
</glyph>
<glyph name="VocL_indi" format="2">
  <advance width="494"/>
  <unicode hex="11C08"/>
  <anchor x="260" y="600" name="AnusCandra"/>
  <anchor x="255" y="0" name="Virama"/>
  <outline>
    <contour>
      <point x="256" y="-10" type="curve" smooth="yes"/>
      <point x="340" y="-10"/>
      <point x="416" y="34"/>
      <point x="451" y="61" type="curve"/>
      <point x="429" y="88" type="line"/>
      <point x="394" y="72"/>
      <point x="326" y="60"/>
      <point x="258" y="60" type="curve" smooth="yes"/>
      <point x="177" y="60"/>
      <point x="126" y="131"/>
      <point x="126" y="154" type="curve" smooth="yes"/>
      <point x="126" y="202"/>
      <point x="185" y="226"/>
      <point x="221" y="226" type="curve" smooth="yes"/>
      <point x="285" y="226"/>
      <point x="331" y="200"/>
      <point x="383" y="177" type="curve"/>
      <point x="402" y="184"/>
      <point x="448" y="225"/>
      <point x="454" y="248" type="curve"/>
      <point x="454" y="274"/>
      <point x="401" y="488"/>
      <point x="334" y="560" type="curve"/>
      <point x="307" y="560" type="line"/>
      <point x="219" y="521"/>
      <point x="40" y="451"/>
      <point x="40" y="390" type="curve" smooth="yes"/>
      <point x="40" y="364"/>
      <point x="62" y="327"/>
      <point x="101" y="302" type="curve"/>
      <point x="126" y="331"/>
      <point x="152" y="350"/>
      <point x="182" y="371" type="curve"/>
      <point x="154" y="386"/>
      <point x="144" y="392"/>
      <point x="144" y="411" type="curve" smooth="yes"/>
      <point x="144" y="433"/>
      <point x="263" y="485"/>
      <point x="288" y="492" type="curve"/>
      <point x="304" y="482"/>
      <point x="366" y="331"/>
      <point x="372" y="259" type="curve"/>
      <point x="344" y="273"/>
      <point x="272" y="295"/>
      <point x="235" y="295" type="curve" smooth="yes"/>
      <point x="152" y="295"/>
      <point x="44" y="190"/>
      <point x="44" y="143" type="curve" smooth="yes"/>
      <point x="44" y="64"/>
      <point x="149" y="-10"/>
    </contour>
  </outline>
</glyph>
<glyph name="E_indi" format="2">
  <advance width="746"/>
  <unicode hex="11C0A"/>
  <anchor x="375" y="600" name="AnusCandra"/>
  <anchor x="335" y="25" name="Virama"/>
  <outline>
    <contour>
      <point x="489" y="-10" type="curve" smooth="yes"/>
      <point x="528" y="-10"/>
      <point x="623" y="120"/>
      <point x="623" y="174" type="curve" smooth="yes"/>
      <point x="623" y="238"/>
      <point x="608" y="331"/>
      <point x="592" y="388" type="curve"/>
      <point x="726" y="388" type="line"/>
      <point x="726" y="408" type="line"/>
      <point x="565" y="560" type="line"/>
      <point x="543" y="560" type="line"/>
      <point x="380" y="408" type="line"/>
      <point x="380" y="388" type="line"/>
      <point x="506" y="388" type="line"/>
      <point x="524" y="328"/>
      <point x="541" y="216"/>
      <point x="541" y="125" type="curve" smooth="yes"/>
      <point x="541" y="108"/>
      <point x="509" y="60"/>
      <point x="496" y="60" type="curve" smooth="yes"/>
      <point x="429" y="60"/>
      <point x="377" y="165"/>
      <point x="350" y="165" type="curve" smooth="yes"/>
      <point x="334" y="165"/>
      <point x="269" y="103"/>
      <point x="237" y="103" type="curve" smooth="yes"/>
      <point x="206" y="103"/>
      <point x="122" y="230"/>
      <point x="122" y="272" type="curve" smooth="yes"/>
      <point x="122" y="299"/>
      <point x="193" y="363"/>
      <point x="208" y="363" type="curve" smooth="yes"/>
      <point x="232" y="363"/>
      <point x="255" y="338"/>
      <point x="277" y="288" type="curve"/>
      <point x="298" y="321"/>
      <point x="322" y="352"/>
      <point x="353" y="375" type="curve"/>
      <point x="353" y="400"/>
      <point x="292" y="465"/>
      <point x="263" y="465" type="curve" smooth="yes"/>
      <point x="235" y="465"/>
      <point x="40" y="320"/>
      <point x="40" y="257" type="curve" smooth="yes"/>
      <point x="40" y="196"/>
      <point x="137" y="33"/>
      <point x="216" y="33" type="curve" smooth="yes"/>
      <point x="244" y="33"/>
      <point x="304" y="89"/>
      <point x="322" y="89" type="curve" smooth="yes"/>
      <point x="335" y="89"/>
      <point x="403" y="-10"/>
    </contour>
  </outline>
</glyph>
<glyph name="AI_indi" format="2">
  <advance width="786"/>
  <unicode hex="11C0B"/>
  <anchor x="410" y="600" name="AnusCandra"/>
  <anchor x="370" y="20" name="Virama"/>
  <outline>
    <contour>
      <point x="535" y="-10" type="curve" smooth="yes"/>
      <point x="574" y="-10"/>
      <point x="669" y="120"/>
      <point x="669" y="174" type="curve" smooth="yes"/>
      <point x="669" y="238"/>
      <point x="654" y="331"/>
      <point x="638" y="388" type="curve"/>
      <point x="766" y="388" type="line"/>
      <point x="766" y="408" type="line"/>
      <point x="605" y="560" type="line"/>
      <point x="583" y="560" type="line"/>
      <point x="420" y="408" type="line"/>
      <point x="420" y="388" type="line"/>
      <point x="552" y="388" type="line"/>
      <point x="570" y="328"/>
      <point x="587" y="216"/>
      <point x="587" y="125" type="curve" smooth="yes"/>
      <point x="587" y="108"/>
      <point x="555" y="60"/>
      <point x="542" y="60" type="curve" smooth="yes"/>
      <point x="475" y="60"/>
      <point x="423" y="165"/>
      <point x="396" y="165" type="curve" smooth="yes"/>
      <point x="365" y="165"/>
      <point x="299" y="96"/>
      <point x="276" y="96" type="curve" smooth="yes"/>
      <point x="245" y="96"/>
      <point x="184" y="172"/>
      <point x="184" y="191" type="curve" smooth="yes"/>
      <point x="184" y="220"/>
      <point x="403" y="305"/>
      <point x="403" y="345" type="curve" smooth="yes"/>
      <point x="403" y="388"/>
      <point x="321" y="522"/>
      <point x="291" y="560" type="curve"/>
      <point x="273" y="560" type="line"/>
      <point x="145" y="497"/>
      <point x="40" y="421"/>
      <point x="40" y="390" type="curve" smooth="yes"/>
      <point x="40" y="364"/>
      <point x="73" y="318"/>
      <point x="112" y="293" type="curve"/>
      <point x="137" y="322"/>
      <point x="163" y="341"/>
      <point x="193" y="362" type="curve"/>
      <point x="165" y="377"/>
      <point x="144" y="392"/>
      <point x="144" y="411" type="curve" smooth="yes"/>
      <point x="144" y="424"/>
      <point x="195" y="461"/>
      <point x="239" y="481" type="curve"/>
      <point x="250" y="472"/>
      <point x="311" y="369"/>
      <point x="311" y="347" type="curve" smooth="yes"/>
      <point x="311" y="319"/>
      <point x="98" y="231"/>
      <point x="98" y="199" type="curve" smooth="yes"/>
      <point x="98" y="135"/>
      <point x="193" y="26"/>
      <point x="254" y="26" type="curve" smooth="yes"/>
      <point x="282" y="26"/>
      <point x="350" y="89"/>
      <point x="368" y="89" type="curve" smooth="yes"/>
      <point x="381" y="89"/>
      <point x="449" y="-10"/>
    </contour>
  </outline>
</glyph>
<glyph name="AU_indi" format="2">
  <advance width="756"/>
  <unicode hex="11C0D"/>
  <anchor x="370" y="600" name="AnusCandra"/>
  <anchor x="360" y="-135" name="Virama"/>
  <outline>
    <contour>
      <point x="503" y="-161" type="curve"/>
      <point x="530" y="-142"/>
      <point x="557" y="-130"/>
      <point x="582" y="-122" type="curve"/>
      <point x="571" y="-70"/>
      <point x="525" y="18"/>
      <point x="490" y="36" type="curve"/>
      <point x="461" y="29"/>
      <point x="436" y="15"/>
      <point x="410" y="-3" type="curve"/>
      <point x="420" y="-9"/>
      <point x="436" y="-31"/>
      <point x="452" y="-56" type="curve"/>
      <point x="429" y="-68"/>
      <point x="401" y="-80"/>
      <point x="380" y="-80" type="curve" smooth="yes"/>
      <point x="330" y="-80"/>
      <point x="286" y="-48"/>
      <point x="267" y="-8" type="curve"/>
      <point x="359" y="4"/>
      <point x="476" y="92"/>
      <point x="476" y="159" type="curve" smooth="yes"/>
      <point x="476" y="203"/>
      <point x="445" y="256"/>
      <point x="352" y="278" type="curve"/>
      <point x="391" y="295"/>
      <point x="431" y="316"/>
      <point x="450" y="340" type="curve"/>
      <point x="736" y="340" type="line"/>
      <point x="736" y="360" type="line"/>
      <point x="575" y="512" type="line"/>
      <point x="553" y="512" type="line"/>
      <point x="444" y="411" type="line"/>
      <point x="411" y="463"/>
      <point x="338" y="535"/>
      <point x="300" y="560" type="curve"/>
      <point x="283" y="560" type="line"/>
      <point x="240" y="543"/>
      <point x="94" y="462"/>
      <point x="41" y="375" type="curve"/>
      <point x="81" y="366"/>
      <point x="116" y="353"/>
      <point x="143" y="331" type="curve"/>
      <point x="161" y="421"/>
      <point x="248" y="469"/>
      <point x="282" y="482" type="curve"/>
      <point x="303" y="472"/>
      <point x="370" y="403"/>
      <point x="370" y="368" type="curve" smooth="yes"/>
      <point x="370" y="331"/>
      <point x="309" y="299"/>
      <point x="244" y="291" type="curve"/>
      <point x="244" y="273"/>
      <point x="242" y="266"/>
      <point x="237" y="250" type="curve"/>
      <point x="341" y="242"/>
      <point x="394" y="212"/>
      <point x="394" y="153" type="curve" smooth="yes"/>
      <point x="394" y="115"/>
      <point x="328" y="60"/>
      <point x="262" y="60" type="curve" smooth="yes"/>
      <point x="178" y="60"/>
      <point x="140" y="137"/>
      <point x="131" y="201" type="curve"/>
      <point x="103" y="180"/>
      <point x="71" y="164"/>
      <point x="30" y="156" type="curve"/>
      <point x="45" y="98"/>
      <point x="92" y="26"/>
      <point x="178" y="0" type="curve"/>
      <point x="195" y="-87"/>
      <point x="267" y="-150"/>
      <point x="371" y="-150" type="curve" smooth="yes"/>
      <point x="393" y="-150"/>
      <point x="445" y="-124"/>
      <point x="478" y="-103" type="curve"/>
      <point x="490" y="-128"/>
      <point x="500" y="-150"/>
    </contour>
  </outline>
</glyph>
<glyph name="Ka" format="2">
  <advance width="575"/>
  <unicode hex="11C0E"/>
  <anchor x="450" y="388" name="AA"/>
  <anchor x="275" y="600" name="AnusCandra"/>
  <anchor x="240" y="0" name="Pa"/>
  <anchor x="265" y="480" name="Repha"/>
  <anchor x="255" y="0" name="UU"/>
  <anchor x="250" y="0" name="Virama"/>
  <anchor x="280" y="0" name="VocL"/>
  <anchor x="265" y="0" name="VocR"/>
  <anchor x="240" y="0" name="Ya"/>
  <outline>
    <contour>
      <point x="459" y="-95" type="curve"/>
      <point x="490" y="-77"/>
      <point x="522" y="-66"/>
      <point x="555" y="-62" type="curve"/>
      <point x="547" y="29"/>
      <point x="502" y="133"/>
      <point x="462" y="208" type="curve"/>
      <point x="445" y="279"/>
      <point x="377" y="314"/>
      <point x="317" y="326" type="curve"/>
      <point x="320" y="340"/>
      <point x="322" y="355"/>
      <point x="322" y="364" type="curve" smooth="yes"/>
      <point x="322" y="372"/>
      <point x="321" y="380"/>
      <point x="319" y="388" type="curve"/>
      <point x="483" y="388" type="line"/>
      <point x="483" y="410" type="line"/>
      <point x="289" y="560" type="line"/>
      <point x="267" y="560" type="line"/>
      <point x="62" y="410" type="line"/>
      <point x="62" y="388" type="line"/>
      <point x="235" y="388" type="line"/>
      <point x="239" y="382"/>
      <point x="240" y="375"/>
      <point x="240" y="368" type="curve" smooth="yes"/>
      <point x="240" y="358"/>
      <point x="237" y="343"/>
      <point x="232" y="329" type="curve"/>
      <point x="134" y="318"/>
      <point x="69" y="267"/>
      <point x="52" y="254" type="curve"/>
      <point x="68" y="229" type="line"/>
      <point x="112" y="245"/>
      <point x="179" y="255"/>
      <point x="251" y="255" type="curve" smooth="yes"/>
      <point x="307" y="255"/>
      <point x="383" y="237"/>
      <point x="383" y="153" type="curve" smooth="yes"/>
      <point x="383" y="105"/>
      <point x="311" y="60"/>
      <point x="275" y="60" type="curve" smooth="yes"/>
      <point x="205" y="60"/>
      <point x="148" y="96"/>
      <point x="138" y="151" type="curve"/>
      <point x="114" y="137"/>
      <point x="89" y="123"/>
      <point x="40" y="114" type="curve"/>
      <point x="82" y="17"/>
      <point x="175" y="-10"/>
      <point x="254" y="-10" type="curve" smooth="yes"/>
      <point x="327" y="-10"/>
      <point x="391" y="40"/>
      <point x="430" y="90" type="curve"/>
      <point x="450" y="27"/>
      <point x="459" y="-33"/>
    </contour>
  </outline>
</glyph>
<glyph name="Kha" format="2">
  <advance width="548"/>
  <unicode hex="11C0F"/>
  <anchor x="275" y="600" name="AnusCandra"/>
  <anchor x="365" y="390" name="II"/>
  <anchor x="330" y="0" name="Pa"/>
  <anchor x="265" y="480" name="Repha"/>
  <anchor x="340" y="0" name="UU"/>
  <anchor x="340" y="0" name="Virama"/>
  <anchor x="335" y="0" name="VocL"/>
  <anchor x="312" y="10" name="VocR_wide"/>
  <anchor x="330" y="0" name="Ya"/>
  <outline>
    <contour>
      <point x="337" y="-10" type="curve" smooth="yes"/>
      <point x="424" y="-10"/>
      <point x="508" y="101"/>
      <point x="508" y="184" type="curve" smooth="yes"/>
      <point x="508" y="247"/>
      <point x="469" y="311"/>
      <point x="443" y="345" type="curve"/>
      <point x="350" y="274" type="line"/>
      <point x="399" y="243"/>
      <point x="426" y="198"/>
      <point x="426" y="156" type="curve" smooth="yes"/>
      <point x="426" y="111"/>
      <point x="377" y="60"/>
      <point x="350" y="60" type="curve" smooth="yes"/>
      <point x="298" y="60"/>
      <point x="225" y="155"/>
      <point x="179" y="184" type="curve"/>
      <point x="279" y="266"/>
      <point x="449" y="269"/>
      <point x="449" y="369" type="curve" smooth="yes"/>
      <point x="449" y="427"/>
      <point x="337" y="527"/>
      <point x="287" y="560" type="curve"/>
      <point x="270" y="560" type="line"/>
      <point x="227" y="543"/>
      <point x="81" y="462"/>
      <point x="28" y="375" type="curve"/>
      <point x="68" y="366"/>
      <point x="103" y="353"/>
      <point x="130" y="331" type="curve"/>
      <point x="148" y="421"/>
      <point x="235" y="469"/>
      <point x="269" y="482" type="curve"/>
      <point x="290" y="472"/>
      <point x="357" y="417"/>
      <point x="357" y="379" type="curve" smooth="yes"/>
      <point x="357" y="318"/>
      <point x="152" y="249"/>
      <point x="20" y="146" type="curve"/>
      <point x="34" y="116" type="line"/>
      <point x="58" y="121"/>
      <point x="82" y="130"/>
      <point x="108" y="130" type="curve" smooth="yes"/>
      <point x="122" y="130"/>
      <point x="147" y="117"/>
      <point x="185" y="78" type="curve" smooth="yes"/>
      <point x="224" y="37"/>
      <point x="269" y="-10"/>
    </contour>
  </outline>
</glyph>
<glyph name="Ga" format="2">
  <advance width="726"/>
  <unicode hex="11C10"/>
  <anchor x="621" y="352" name="AA_alt"/>
  <anchor x="520" y="445" name="AI"/>
  <anchor x="275" y="600" name="AnusCandra"/>
  <anchor x="540" y="450" name="E"/>
  <anchor x="330" y="0" name="Pa"/>
  <anchor x="265" y="480" name="Repha"/>
  <anchor x="320" y="45" name="UU"/>
  <anchor x="320" y="0" name="Virama"/>
  <anchor x="310" y="0" name="VocL"/>
  <anchor x="320" y="30" name="VocR"/>
  <anchor x="330" y="0" name="Ya"/>
  <outline>
    <contour>
      <point x="320" y="-14" type="curve"/>
      <point x="394" y="28"/>
      <point x="478" y="95"/>
      <point x="478" y="141" type="curve" smooth="yes"/>
      <point x="478" y="147"/>
      <point x="456" y="237"/>
      <point x="416" y="340" type="curve"/>
      <point x="706" y="340" type="line"/>
      <point x="706" y="360" type="line"/>
      <point x="545" y="512" type="line"/>
      <point x="523" y="512" type="line"/>
      <point x="394" y="392" type="line"/>
      <point x="368" y="451"/>
      <point x="336" y="511"/>
      <point x="299" y="560" type="curve"/>
      <point x="277" y="560" type="line"/>
      <point x="221" y="532"/>
      <point x="40" y="409"/>
      <point x="40" y="352" type="curve" smooth="yes"/>
      <point x="40" y="322"/>
      <point x="61" y="296"/>
      <point x="107" y="259" type="curve"/>
      <point x="129" y="282"/>
      <point x="152" y="304"/>
      <point x="193" y="322" type="curve"/>
      <point x="171" y="339"/>
      <point x="146" y="353"/>
      <point x="146" y="372" type="curve" smooth="yes"/>
      <point x="146" y="391"/>
      <point x="177" y="435"/>
      <point x="254" y="477" type="curve"/>
      <point x="293" y="450"/>
      <point x="387" y="197"/>
      <point x="387" y="155" type="curve" smooth="yes"/>
      <point x="387" y="132"/>
      <point x="318" y="98"/>
      <point x="258" y="73" type="curve"/>
      <point x="288" y="49"/>
      <point x="309" y="21"/>
    </contour>
  </outline>
</glyph>
<glyph name="Gha" format="2">
  <advance width="736"/>
  <unicode hex="11C11"/>
  <anchor x="631" y="400" name="AA_alt"/>
  <anchor x="375" y="600" name="AnusCandra"/>
  <anchor x="435" y="20" name="Pa"/>
  <anchor x="540" y="480" name="Repha"/>
  <anchor x="420" y="45" name="UU"/>
  <anchor x="340" y="0" name="Virama"/>
  <anchor x="485" y="0" name="VocL"/>
  <anchor x="325" y="75" name="VocR_wide"/>
  <anchor x="435" y="20" name="Ya"/>
  <outline>
    <contour>
      <point x="473" y="-10" type="curve" smooth="yes"/>
      <point x="536" y="-10"/>
      <point x="672" y="144"/>
      <point x="672" y="167" type="curve" smooth="yes"/>
      <point x="672" y="206"/>
      <point x="622" y="253"/>
      <point x="574" y="290" type="curve"/>
      <point x="584" y="301"/>
      <point x="606" y="316"/>
      <point x="606" y="337" type="curve" smooth="yes"/>
      <point x="606" y="349"/>
      <point x="602" y="369"/>
      <point x="591" y="388" type="curve"/>
      <point x="716" y="388" type="line"/>
      <point x="716" y="408" type="line"/>
      <point x="555" y="560" type="line"/>
      <point x="533" y="560" type="line"/>
      <point x="378" y="415" type="line"/>
      <point x="225" y="560" type="line"/>
      <point x="203" y="560" type="line"/>
      <point x="40" y="408" type="line"/>
      <point x="40" y="388" type="line"/>
      <point x="186" y="388" type="line"/>
      <point x="194" y="380"/>
      <point x="198" y="370"/>
      <point x="198" y="360" type="curve" smooth="yes"/>
      <point x="198" y="302"/>
      <point x="94" y="242"/>
      <point x="46" y="221" type="curve"/>
      <point x="54" y="183" type="line"/>
      <point x="66" y="187"/>
      <point x="77" y="191"/>
      <point x="86" y="196" type="curve"/>
      <point x="97" y="148"/>
      <point x="136" y="33"/>
      <point x="233" y="33" type="curve" smooth="yes"/>
      <point x="255" y="33"/>
      <point x="316" y="89"/>
      <point x="334" y="89" type="curve" smooth="yes"/>
      <point x="347" y="89"/>
      <point x="419" y="-10"/>
    </contour>
    <contour>
      <point x="494" y="60" type="curve" smooth="yes"/>
      <point x="449" y="60"/>
      <point x="381" y="165"/>
      <point x="358" y="165" type="curve" smooth="yes"/>
      <point x="343" y="165"/>
      <point x="269" y="103"/>
      <point x="242" y="103" type="curve" smooth="yes"/>
      <point x="220" y="103"/>
      <point x="164" y="165"/>
      <point x="160" y="222" type="curve"/>
      <point x="203" y="249"/>
      <point x="280" y="307"/>
      <point x="280" y="360" type="curve" smooth="yes"/>
      <point x="280" y="368"/>
      <point x="278" y="378"/>
      <point x="274" y="388" type="curve"/>
      <point x="494" y="388" type="line"/>
      <point x="509" y="372"/>
      <point x="517" y="353"/>
      <point x="517" y="339" type="curve" smooth="yes"/>
      <point x="517" y="314"/>
      <point x="484" y="296"/>
      <point x="454" y="291" type="curve"/>
      <point x="460" y="267" type="line"/>
      <point x="502" y="256"/>
      <point x="589" y="190"/>
      <point x="589" y="142" type="curve" smooth="yes"/>
      <point x="589" y="124"/>
      <point x="532" y="60"/>
    </contour>
  </outline>
</glyph>
<glyph name="Ca" format="2">
  <advance width="554"/>
  <unicode hex="11C13"/>
  <anchor x="500" y="388" name="AA"/>
  <anchor x="320" y="600" name="AnusCandra"/>
  <anchor x="320" y="0" name="Pa"/>
  <anchor x="340" y="480" name="Repha"/>
  <anchor x="310" y="0" name="UU"/>
  <anchor x="320" y="0" name="Virama"/>
  <anchor x="330" y="0" name="VocL"/>
  <anchor x="310" y="0" name="VocR"/>
  <anchor x="320" y="0" name="Ya"/>
  <outline>
    <contour>
      <point x="319" y="-10" type="curve" smooth="yes"/>
      <point x="382" y="-10"/>
      <point x="499" y="116"/>
      <point x="499" y="146" type="curve" smooth="yes"/>
      <point x="499" y="204"/>
      <point x="454" y="275"/>
      <point x="389" y="299" type="curve"/>
      <point x="395" y="316"/>
      <point x="399" y="337"/>
      <point x="399" y="350" type="curve" smooth="yes"/>
      <point x="399" y="362"/>
      <point x="396" y="375"/>
      <point x="391" y="388" type="curve"/>
      <point x="534" y="388" type="line"/>
      <point x="534" y="410" type="line"/>
      <point x="340" y="560" type="line"/>
      <point x="318" y="560" type="line"/>
      <point x="113" y="410" type="line"/>
      <point x="113" y="388" type="line"/>
      <point x="304" y="388" type="line"/>
      <point x="313" y="379"/>
      <point x="317" y="369"/>
      <point x="317" y="358" type="curve" smooth="yes"/>
      <point x="317" y="344"/>
      <point x="311" y="320"/>
      <point x="302" y="302" type="curve"/>
      <point x="205" y="280"/>
      <point x="85" y="196"/>
      <point x="20" y="151" type="curve"/>
      <point x="42" y="113" type="line"/>
      <point x="66" y="118"/>
      <point x="86" y="127"/>
      <point x="99" y="127" type="curve" smooth="yes"/>
      <point x="116" y="127"/>
      <point x="135" y="106"/>
      <point x="167" y="77" type="curve" smooth="yes"/>
      <point x="203" y="44"/>
      <point x="253" y="-10"/>
    </contour>
    <contour>
      <point x="330" y="60" type="curve" smooth="yes"/>
      <point x="290" y="60"/>
      <point x="207" y="142"/>
      <point x="178" y="176" type="curve"/>
      <point x="228" y="205"/>
      <point x="279" y="238"/>
      <point x="325" y="238" type="curve" smooth="yes"/>
      <point x="367" y="238"/>
      <point x="417" y="174"/>
      <point x="417" y="141" type="curve" smooth="yes"/>
      <point x="417" y="126"/>
      <point x="353" y="60"/>
    </contour>
  </outline>
</glyph>
<glyph name="Cha" format="2">
  <advance width="598"/>
  <unicode hex="11C14"/>
  <anchor x="480" y="388" name="AA"/>
  <anchor x="305" y="600" name="AnusCandra"/>
  <anchor x="355" y="20" name="Pa"/>
  <anchor x="300" y="480" name="Repha"/>
  <anchor x="400" y="0" name="UU"/>
  <anchor x="330" y="0" name="Virama"/>
  <anchor x="350" y="0" name="VocL"/>
  <anchor x="275" y="45" name="VocR"/>
  <anchor x="355" y="20" name="Ya"/>
  <outline>
    <contour>
      <point x="413" y="-10" type="curve" smooth="yes"/>
      <point x="478" y="-10"/>
      <point x="558" y="104"/>
      <point x="558" y="118" type="curve" smooth="yes"/>
      <point x="558" y="223"/>
      <point x="466" y="298"/>
      <point x="323" y="308" type="curve"/>
      <point x="325" y="337"/>
      <point x="332" y="364"/>
      <point x="341" y="388" type="curve"/>
      <point x="516" y="388" type="line"/>
      <point x="516" y="410" type="line"/>
      <point x="322" y="560" type="line"/>
      <point x="300" y="560" type="line"/>
      <point x="95" y="410" type="line"/>
      <point x="95" y="388" type="line"/>
      <point x="258" y="388" type="line"/>
      <point x="250" y="361"/>
      <point x="244" y="330"/>
      <point x="241" y="303" type="curve"/>
      <point x="133" y="279"/>
      <point x="40" y="184"/>
      <point x="40" y="131" type="curve" smooth="yes"/>
      <point x="40" y="45"/>
      <point x="108" y="0"/>
      <point x="183" y="0" type="curve" smooth="yes"/>
      <point x="209" y="0"/>
      <point x="260" y="27"/>
      <point x="294" y="57" type="curve"/>
      <point x="320" y="18"/>
      <point x="358" y="-10"/>
    </contour>
    <contour>
      <point x="200" y="70" type="curve" smooth="yes"/>
      <point x="170" y="70"/>
      <point x="122" y="89"/>
      <point x="122" y="141" type="curve" smooth="yes"/>
      <point x="122" y="167"/>
      <point x="159" y="218"/>
      <point x="242" y="235" type="curve"/>
      <point x="245" y="196"/>
      <point x="253" y="146"/>
      <point x="272" y="100" type="curve"/>
      <point x="245" y="82"/>
      <point x="208" y="70"/>
    </contour>
    <contour>
      <point x="432" y="60" type="curve" smooth="yes"/>
      <point x="360" y="60"/>
      <point x="331" y="153"/>
      <point x="324" y="239" type="curve"/>
      <point x="421" y="232"/>
      <point x="476" y="187"/>
      <point x="476" y="115" type="curve" smooth="yes"/>
      <point x="476" y="95"/>
      <point x="451" y="60"/>
    </contour>
  </outline>
</glyph>
<glyph name="Jha" format="2">
  <advance width="620"/>
  <unicode hex="11C16"/>
  <anchor x="450" y="388" name="AA"/>
  <anchor x="300" y="600" name="AnusCandra"/>
  <anchor x="345" y="-40" name="Pa"/>
  <anchor x="295" y="480" name="Repha"/>
  <anchor x="360" y="-25" name="UU"/>
  <anchor x="375" y="-65" name="Virama"/>
  <anchor x="375" y="-50" name="VocL"/>
  <anchor x="265" y="0" name="VocR"/>
  <anchor x="345" y="-40" name="Ya"/>
  <outline>
    <contour>
      <point x="521" y="-71" type="curve"/>
      <point x="548" y="-52"/>
      <point x="575" y="-40"/>
      <point x="600" y="-32" type="curve"/>
      <point x="589" y="20"/>
      <point x="543" y="108"/>
      <point x="508" y="126" type="curve"/>
      <point x="479" y="119"/>
      <point x="454" y="105"/>
      <point x="428" y="87" type="curve"/>
      <point x="438" y="80"/>
      <point x="454" y="59"/>
      <point x="470" y="33" type="curve"/>
      <point x="447" y="22"/>
      <point x="419" y="10"/>
      <point x="398" y="10" type="curve" smooth="yes"/>
      <point x="346" y="10"/>
      <point x="302" y="43"/>
      <point x="283" y="85" type="curve"/>
      <point x="319" y="88"/>
      <point x="436" y="153"/>
      <point x="436" y="202" type="curve" smooth="yes"/>
      <point x="436" y="228"/>
      <point x="403" y="321"/>
      <point x="358" y="388" type="curve"/>
      <point x="504" y="388" type="line"/>
      <point x="504" y="410" type="line"/>
      <point x="310" y="560" type="line"/>
      <point x="288" y="560" type="line"/>
      <point x="83" y="410" type="line"/>
      <point x="83" y="388" type="line"/>
      <point x="270" y="388" type="line"/>
      <point x="306" y="333"/>
      <point x="354" y="238"/>
      <point x="354" y="186" type="curve" smooth="yes"/>
      <point x="354" y="175"/>
      <point x="333" y="155"/>
      <point x="312" y="155" type="curve" smooth="yes"/>
      <point x="210" y="155"/>
      <point x="134" y="243"/>
      <point x="101" y="289" type="curve"/>
      <point x="77" y="256"/>
      <point x="49" y="240"/>
      <point x="20" y="220" type="curve"/>
      <point x="43" y="195"/>
      <point x="109" y="130"/>
      <point x="194" y="100" type="curve"/>
      <point x="208" y="8"/>
      <point x="281" y="-60"/>
      <point x="389" y="-60" type="curve" smooth="yes"/>
      <point x="411" y="-60"/>
      <point x="463" y="-34"/>
      <point x="496" y="-13" type="curve"/>
      <point x="508" y="-38"/>
      <point x="518" y="-60"/>
    </contour>
  </outline>
</glyph>
<glyph name="Nya" format="2">
  <advance width="756"/>
  <unicode hex="11C17"/>
  <anchor x="570" y="485" name="AI"/>
  <anchor x="335" y="600" name="AnusCandra"/>
  <anchor x="585" y="450" name="E"/>
  <anchor x="275" y="73" name="Pa"/>
  <anchor x="300" y="480" name="Repha"/>
  <anchor x="300" y="69" name="UU"/>
  <anchor x="350" y="35" name="Virama"/>
  <anchor x="460" y="60" name="VocL"/>
  <anchor x="300" y="75" name="VocR_wide"/>
  <anchor x="275" y="73" name="Ya"/>
  <outline>
    <contour>
      <point x="610" y="-10" type="curve"/>
      <point x="634" y="-6"/>
      <point x="679" y="-1"/>
      <point x="707" y="0" type="curve"/>
      <point x="701" y="63"/>
      <point x="631" y="296"/>
      <point x="597" y="388" type="curve"/>
      <point x="736" y="388" type="line"/>
      <point x="736" y="408" type="line"/>
      <point x="575" y="560" type="line"/>
      <point x="553" y="560" type="line"/>
      <point x="409" y="426" type="line"/>
      <point x="377" y="487"/>
      <point x="343" y="542"/>
      <point x="326" y="560" type="curve"/>
      <point x="308" y="560" type="line"/>
      <point x="180" y="497"/>
      <point x="40" y="405"/>
      <point x="40" y="374" type="curve" smooth="yes"/>
      <point x="40" y="348"/>
      <point x="73" y="302"/>
      <point x="112" y="277" type="curve"/>
      <point x="137" y="306"/>
      <point x="163" y="325"/>
      <point x="193" y="346" type="curve"/>
      <point x="165" y="361"/>
      <point x="144" y="376"/>
      <point x="144" y="395" type="curve" smooth="yes"/>
      <point x="144" y="408"/>
      <point x="239" y="467"/>
      <point x="283" y="487" type="curve"/>
      <point x="324" y="438"/>
      <point x="408" y="255"/>
      <point x="408" y="213" type="curve" smooth="yes"/>
      <point x="408" y="193"/>
      <point x="349" y="130"/>
      <point x="309" y="130" type="curve" smooth="yes"/>
      <point x="239" y="130"/>
      <point x="180" y="169"/>
      <point x="154" y="227" type="curve"/>
      <point x="133" y="202"/>
      <point x="109" y="181"/>
      <point x="82" y="166" type="curve"/>
      <point x="122" y="110"/>
      <point x="184" y="60"/>
      <point x="289" y="60" type="curve" smooth="yes"/>
      <point x="362" y="60"/>
      <point x="490" y="179"/>
      <point x="490" y="223" type="curve" smooth="yes"/>
      <point x="490" y="253"/>
      <point x="462" y="321"/>
      <point x="429" y="388" type="curve"/>
      <point x="531" y="388" type="line"/>
      <point x="562" y="290"/>
      <point x="610" y="35"/>
    </contour>
  </outline>
</glyph>
<glyph name="Tta" format="2">
  <advance width="989"/>
  <unicode hex="11C18"/>
  <guideline x="837" y="484" angle="136.647"/>
  <anchor x="887" y="350" name="AA_alt"/>
  <anchor x="800" y="445" name="AI"/>
  <anchor x="430" y="600" name="AnusCandra"/>
  <anchor x="800" y="450" name="E"/>
  <anchor x="525" y="75" name="Pa"/>
  <anchor x="280" y="480" name="Repha"/>
  <anchor x="525" y="90" name="UU"/>
  <anchor x="360" y="40" name="Virama"/>
  <anchor x="505" y="55" name="VocL"/>
  <anchor x="205" y="170" name="VocR_wide"/>
  <anchor x="525" y="75" name="Ya"/>
  <outline>
    <contour>
      <point x="515" y="30" type="line"/>
      <point x="599" y="65"/>
      <point x="710" y="181"/>
      <point x="710" y="225" type="curve" smooth="yes"/>
      <point x="710" y="251"/>
      <point x="696" y="294"/>
      <point x="676" y="340" type="curve"/>
      <point x="969" y="340" type="line"/>
      <point x="969" y="360" type="line"/>
      <point x="808" y="512" type="line"/>
      <point x="786" y="512" type="line"/>
      <point x="653" y="388" type="line"/>
      <point x="627" y="441"/>
      <point x="597" y="489"/>
      <point x="579" y="508" type="curve"/>
      <point x="561" y="508" type="line"/>
      <point x="505" y="480"/>
      <point x="424" y="405"/>
      <point x="408" y="405" type="curve" smooth="yes"/>
      <point x="397" y="405"/>
      <point x="323" y="541"/>
      <point x="305" y="560" type="curve"/>
      <point x="287" y="560" type="line"/>
      <point x="159" y="497"/>
      <point x="40" y="339"/>
      <point x="40" y="308" type="curve" smooth="yes"/>
      <point x="40" y="282"/>
      <point x="160" y="131"/>
      <point x="199" y="106" type="curve"/>
      <point x="261" y="183" type="line"/>
      <point x="233" y="198"/>
      <point x="122" y="284"/>
      <point x="122" y="329" type="curve" smooth="yes"/>
      <point x="122" y="342"/>
      <point x="188" y="436"/>
      <point x="262" y="487" type="curve"/>
      <point x="276" y="452"/>
      <point x="348" y="319"/>
      <point x="371" y="319" type="curve" smooth="yes"/>
      <point x="394" y="319"/>
      <point x="506" y="422"/>
      <point x="536" y="435" type="curve"/>
      <point x="577" y="386"/>
      <point x="628" y="257"/>
      <point x="628" y="215" type="curve" smooth="yes"/>
      <point x="628" y="195"/>
      <point x="533" y="118"/>
      <point x="478" y="101" type="curve"/>
    </contour>
  </outline>
</glyph>
<glyph name="Ttha" format="2">
  <advance width="888"/>
  <unicode hex="11C19"/>
  <anchor x="785" y="350" name="AA_alt"/>
  <anchor x="690" y="445" name="AI"/>
  <anchor x="375" y="600" name="AnusCandra"/>
  <anchor x="680" y="450" name="E"/>
  <anchor x="330" y="105" name="Pa"/>
  <anchor x="355" y="480" name="Repha"/>
  <anchor x="335" y="105" name="UU"/>
  <anchor x="350" y="45" name="Virama"/>
  <anchor x="340" y="110" name="VocL"/>
  <anchor x="310" y="105" name="VocR"/>
  <anchor x="330" y="105" name="Ya"/>
  <outline>
    <contour>
      <point x="351" y="95" type="curve" smooth="yes"/>
      <point x="455" y="95"/>
      <point x="600" y="241"/>
      <point x="600" y="290" type="curve" smooth="yes"/>
      <point x="600" y="305"/>
      <point x="596" y="322"/>
      <point x="589" y="340" type="curve"/>
      <point x="868" y="340" type="line"/>
      <point x="868" y="360" type="line"/>
      <point x="707" y="512" type="line"/>
      <point x="685" y="512" type="line"/>
      <point x="560" y="396" type="line"/>
      <point x="519" y="461"/>
      <point x="450" y="526"/>
      <point x="388" y="550" type="curve"/>
      <point x="355" y="550" type="line"/>
      <point x="232" y="532"/>
      <point x="40" y="425"/>
      <point x="40" y="351" type="curve" smooth="yes"/>
      <point x="40" y="273"/>
      <point x="113" y="95"/>
    </contour>
    <contour>
      <point x="359" y="165" type="curve" smooth="yes"/>
      <point x="216" y="165"/>
      <point x="122" y="250"/>
      <point x="122" y="352" type="curve" smooth="yes"/>
      <point x="122" y="401"/>
      <point x="254" y="474"/>
      <point x="348" y="482" type="curve"/>
      <point x="415" y="470"/>
      <point x="518" y="353"/>
      <point x="518" y="281" type="curve" smooth="yes"/>
      <point x="518" y="238"/>
      <point x="426" y="165"/>
    </contour>
  </outline>
</glyph>
<glyph name="Dda" format="2">
  <advance width="490"/>
  <unicode hex="11C1A"/>
  <anchor x="415" y="388" name="AA"/>
  <anchor x="250" y="600" name="AnusCandra"/>
  <anchor x="270" y="0" name="Pa"/>
  <anchor x="245" y="480" name="Repha"/>
  <anchor x="255" y="0" name="UU"/>
  <anchor x="295" y="0" name="Virama"/>
  <anchor x="280" y="0" name="VocL"/>
  <anchor x="265" y="0" name="VocR"/>
  <anchor x="270" y="0" name="Ya"/>
  <outline>
    <contour>
      <point x="256" y="-10" type="curve" smooth="yes"/>
      <point x="339" y="-10"/>
      <point x="426" y="56"/>
      <point x="470" y="96" type="curve"/>
      <point x="439" y="127" type="line"/>
      <point x="370" y="66"/>
      <point x="325" y="60"/>
      <point x="275" y="60" type="curve" smooth="yes"/>
      <point x="246" y="60"/>
      <point x="201" y="76"/>
      <point x="194" y="126" type="curve"/>
      <point x="239" y="149"/>
      <point x="343" y="213"/>
      <point x="344" y="278" type="curve" smooth="yes"/>
      <point x="344" y="307"/>
      <point x="333" y="340"/>
      <point x="300" y="354" type="curve"/>
      <point x="300" y="360" type="line" smooth="yes"/>
      <point x="300" y="369"/>
      <point x="299" y="378"/>
      <point x="296" y="388" type="curve"/>
      <point x="455" y="388" type="line"/>
      <point x="455" y="410" type="line"/>
      <point x="261" y="560" type="line"/>
      <point x="239" y="560" type="line"/>
      <point x="34" y="410" type="line"/>
      <point x="34" y="388" type="line"/>
      <point x="204" y="388" type="line"/>
      <point x="209" y="380"/>
      <point x="211" y="372"/>
      <point x="211" y="364" type="curve" smooth="yes"/>
      <point x="211" y="360"/>
      <point x="210" y="356"/>
      <point x="210" y="352" type="curve"/>
      <point x="136" y="326"/>
      <point x="48" y="256"/>
      <point x="30" y="244" type="curve"/>
      <point x="49" y="217" type="line"/>
      <point x="132" y="267"/>
      <point x="186" y="292"/>
      <point x="227" y="292" type="curve" smooth="yes"/>
      <point x="249" y="292"/>
      <point x="262" y="286"/>
      <point x="262" y="265" type="curve" smooth="yes"/>
      <point x="262" y="226"/>
      <point x="174" y="151"/>
      <point x="57" y="108" type="curve"/>
      <point x="63" y="70" type="line"/>
      <point x="82" y="74"/>
      <point x="99" y="81"/>
      <point x="116" y="89" type="curve"/>
      <point x="134" y="44"/>
      <point x="169" y="-10"/>
    </contour>
  </outline>
</glyph>
<glyph name="Ddha" format="2">
  <advance width="522"/>
  <unicode hex="11C1B"/>
  <anchor x="425" y="388" name="AA"/>
  <anchor x="255" y="600" name="AnusCandra"/>
  <anchor x="270" y="0" name="Pa"/>
  <anchor x="265" y="480" name="Repha"/>
  <anchor x="265" y="2" name="UU"/>
  <anchor x="295" y="0" name="Virama"/>
  <anchor x="280" y="0" name="VocL"/>
  <anchor x="280" y="0" name="VocR"/>
  <anchor x="270" y="0" name="Ya"/>
  <outline>
    <contour>
      <point x="280" y="-10" type="curve" smooth="yes"/>
      <point x="332" y="-10"/>
      <point x="482" y="100"/>
      <point x="482" y="148" type="curve" smooth="yes"/>
      <point x="482" y="204"/>
      <point x="438" y="270"/>
      <point x="407" y="283" type="curve"/>
      <point x="388" y="261"/>
      <point x="355" y="236"/>
      <point x="325" y="225" type="curve"/>
      <point x="375" y="208"/>
      <point x="400" y="164"/>
      <point x="400" y="129" type="curve" smooth="yes"/>
      <point x="400" y="109"/>
      <point x="335" y="60"/>
      <point x="300" y="60" type="curve" smooth="yes"/>
      <point x="263" y="60"/>
      <point x="174" y="102"/>
      <point x="167" y="202" type="curve"/>
      <point x="228" y="240"/>
      <point x="316" y="296"/>
      <point x="317" y="348" type="curve" smooth="yes"/>
      <point x="317" y="359"/>
      <point x="313" y="373"/>
      <point x="306" y="388" type="curve"/>
      <point x="467" y="388" type="line"/>
      <point x="467" y="410" type="line"/>
      <point x="273" y="560" type="line"/>
      <point x="251" y="560" type="line"/>
      <point x="46" y="410" type="line"/>
      <point x="46" y="388" type="line"/>
      <point x="210" y="388" type="line"/>
      <point x="228" y="377"/>
      <point x="235" y="363"/>
      <point x="235" y="348" type="curve" smooth="yes"/>
      <point x="235" y="309"/>
      <point x="136" y="226"/>
      <point x="20" y="189" type="curve"/>
      <point x="28" y="144" type="line"/>
      <point x="47" y="148"/>
      <point x="64" y="155"/>
      <point x="81" y="163" type="curve"/>
      <point x="107" y="80"/>
      <point x="171" y="-10"/>
    </contour>
  </outline>
</glyph>
<glyph name="Nna" format="2">
  <advance width="1018"/>
  <unicode hex="11C1C"/>
  <anchor x="916" y="350" name="AA_alt"/>
  <anchor x="820" y="445" name="AI"/>
  <anchor x="520" y="600" name="AnusCandra"/>
  <anchor x="805" y="450" name="E"/>
  <anchor x="275" y="20" name="Pa"/>
  <anchor x="255" y="480" name="Repha"/>
  <anchor x="290" y="35" name="UU"/>
  <anchor x="290" y="0" name="Virama"/>
  <anchor x="330" y="0" name="VocL"/>
  <anchor x="280" y="40" name="VocR_wide"/>
  <anchor x="275" y="20" name="Ya"/>
  <outline>
    <contour>
      <point x="320" y="-10" type="curve"/>
      <point x="420" y="38"/>
      <point x="454" y="109"/>
      <point x="454" y="171" type="curve" smooth="yes"/>
      <point x="454" y="193"/>
      <point x="427" y="272"/>
      <point x="318" y="291" type="curve"/>
      <point x="372" y="314"/>
      <point x="428" y="345"/>
      <point x="428" y="382" type="curve" smooth="yes"/>
      <point x="428" y="393"/>
      <point x="421" y="408"/>
      <point x="411" y="425" type="curve"/>
      <point x="517" y="495" type="line"/>
      <point x="555" y="468"/>
      <point x="599" y="422"/>
      <point x="599" y="409" type="curve" smooth="yes"/>
      <point x="599" y="390"/>
      <point x="578" y="358"/>
      <point x="550" y="343" type="curve"/>
      <point x="580" y="322"/>
      <point x="583" y="316"/>
      <point x="608" y="287" type="curve"/>
      <point x="628" y="300"/>
      <point x="650" y="320"/>
      <point x="665" y="340" type="curve"/>
      <point x="998" y="340" type="line"/>
      <point x="998" y="360" type="line"/>
      <point x="837" y="512" type="line"/>
      <point x="815" y="512" type="line"/>
      <point x="689" y="394" type="line"/>
      <point x="687" y="433"/>
      <point x="669" y="472"/>
      <point x="552" y="560" type="curve"/>
      <point x="529" y="560" type="line"/>
      <point x="387" y="457" type="line"/>
      <point x="354" y="498"/>
      <point x="308" y="541"/>
      <point x="279" y="560" type="curve"/>
      <point x="262" y="560" type="line"/>
      <point x="219" y="543"/>
      <point x="73" y="462"/>
      <point x="20" y="375" type="curve"/>
      <point x="60" y="366"/>
      <point x="95" y="353"/>
      <point x="122" y="331" type="curve"/>
      <point x="140" y="421"/>
      <point x="227" y="469"/>
      <point x="261" y="482" type="curve"/>
      <point x="282" y="472"/>
      <point x="336" y="416"/>
      <point x="336" y="381" type="curve" smooth="yes"/>
      <point x="336" y="344"/>
      <point x="282" y="306"/>
      <point x="171" y="263" type="curve"/>
      <point x="183" y="248"/>
      <point x="193" y="226"/>
      <point x="200" y="203" type="curve"/>
      <point x="243" y="220"/>
      <point x="265" y="225"/>
      <point x="292" y="225" type="curve" smooth="yes"/>
      <point x="337" y="225"/>
      <point x="372" y="194"/>
      <point x="372" y="167" type="curve" smooth="yes"/>
      <point x="372" y="125"/>
      <point x="313" y="69"/>
      <point x="246" y="49" type="curve"/>
      <point x="275" y="32"/>
      <point x="298" y="12"/>
    </contour>
  </outline>
</glyph>
<glyph name="Ta" format="2">
  <advance width="513"/>
  <unicode hex="11C1D"/>
  <anchor x="415" y="388" name="AA"/>
  <anchor x="250" y="600" name="AnusCandra"/>
  <anchor x="240" y="20" name="Pa"/>
  <anchor x="265" y="480" name="Repha"/>
  <anchor x="245" y="55" name="UU"/>
  <anchor x="280" y="0" name="Virama"/>
  <anchor x="280" y="0" name="VocL"/>
  <anchor x="265" y="0" name="VocR"/>
  <anchor x="240" y="20" name="Ya"/>
  <outline>
    <contour>
      <point x="244" y="-13" type="curve"/>
      <point x="330" y="12"/>
      <point x="455" y="75"/>
      <point x="455" y="141" type="curve" smooth="yes"/>
      <point x="455" y="179"/>
      <point x="358" y="330"/>
      <point x="301" y="388" type="curve"/>
      <point x="473" y="388" type="line"/>
      <point x="473" y="410" type="line"/>
      <point x="279" y="560" type="line"/>
      <point x="257" y="560" type="line"/>
      <point x="52" y="410" type="line"/>
      <point x="52" y="388" type="line"/>
      <point x="222" y="388" type="line"/>
      <point x="158" y="349"/>
      <point x="40" y="268"/>
      <point x="40" y="234" type="curve" smooth="yes"/>
      <point x="40" y="203"/>
      <point x="59" y="168"/>
      <point x="106" y="130" type="curve"/>
      <point x="130" y="159"/>
      <point x="158" y="183"/>
      <point x="192" y="202" type="curve"/>
      <point x="157" y="218"/>
      <point x="144" y="234"/>
      <point x="144" y="256" type="curve" smooth="yes"/>
      <point x="144" y="284"/>
      <point x="225" y="341"/>
      <point x="252" y="341" type="curve" smooth="yes"/>
      <point x="272" y="341"/>
      <point x="373" y="172"/>
      <point x="373" y="156" type="curve" smooth="yes"/>
      <point x="373" y="125"/>
      <point x="250" y="76"/>
      <point x="200" y="68" type="curve"/>
      <point x="212" y="53"/>
      <point x="237" y="10"/>
    </contour>
  </outline>
</glyph>
<glyph name="Tha" format="2">
  <advance width="768"/>
  <unicode hex="11C1E"/>
  <anchor x="663" y="352" name="AA_alt"/>
  <anchor x="575" y="445" name="AI"/>
  <anchor x="275" y="580" name="AnusCandra"/>
  <anchor x="550" y="450" name="E"/>
  <anchor x="320" y="0" name="Pa"/>
  <anchor x="583" y="472" name="Repha"/>
  <anchor x="340" y="0" name="UU"/>
  <anchor x="350" y="0" name="Virama"/>
  <anchor x="340" y="0" name="VocL"/>
  <anchor x="335" y="0" name="VocR"/>
  <anchor x="320" y="0" name="Ya"/>
  <outline>
    <contour>
      <point x="331" y="-10" type="curve" smooth="yes"/>
      <point x="418" y="-10"/>
      <point x="502" y="137"/>
      <point x="502" y="162" type="curve" smooth="yes"/>
      <point x="502" y="203"/>
      <point x="479" y="271"/>
      <point x="447" y="340" type="curve"/>
      <point x="748" y="340" type="line"/>
      <point x="748" y="360" type="line"/>
      <point x="587" y="512" type="line"/>
      <point x="565" y="512" type="line"/>
      <point x="426" y="382" type="line"/>
      <point x="385" y="460"/>
      <point x="334" y="532"/>
      <point x="294" y="560" type="curve"/>
      <point x="258" y="560" type="line"/>
      <point x="219" y="541"/>
      <point x="40" y="421"/>
      <point x="40" y="379" type="curve" smooth="yes"/>
      <point x="40" y="348"/>
      <point x="71" y="301"/>
      <point x="118" y="263" type="curve"/>
      <point x="142" y="292"/>
      <point x="170" y="316"/>
      <point x="204" y="335" type="curve"/>
      <point x="169" y="351"/>
      <point x="144" y="379"/>
      <point x="144" y="401" type="curve" smooth="yes"/>
      <point x="144" y="428"/>
      <point x="222" y="490"/>
      <point x="252" y="495" type="curve"/>
      <point x="285" y="467"/>
      <point x="332" y="390"/>
      <point x="368" y="313" type="curve"/>
      <point x="352" y="316"/>
      <point x="335" y="318"/>
      <point x="322" y="318" type="curve" smooth="yes"/>
      <point x="219" y="318"/>
      <point x="114" y="241"/>
      <point x="114" y="170" type="curve" smooth="yes"/>
      <point x="114" y="107"/>
      <point x="275" y="-10"/>
    </contour>
    <contour>
      <point x="344" y="60" type="curve" smooth="yes"/>
      <point x="300" y="60"/>
      <point x="197" y="145"/>
      <point x="197" y="180" type="curve" smooth="yes"/>
      <point x="197" y="210"/>
      <point x="239" y="246"/>
      <point x="308" y="246" type="curve" smooth="yes"/>
      <point x="341" y="246"/>
      <point x="376" y="240"/>
      <point x="402" y="231" type="curve"/>
      <point x="413" y="199"/>
      <point x="420" y="170"/>
      <point x="420" y="151" type="curve" smooth="yes"/>
      <point x="420" y="128"/>
      <point x="371" y="60"/>
    </contour>
  </outline>
</glyph>
<glyph name="Da" format="2">
  <advance width="507"/>
  <unicode hex="11C1F"/>
  <anchor x="420" y="388" name="AA"/>
  <anchor x="255" y="600" name="AnusCandra"/>
  <anchor x="270" y="10" name="Pa"/>
  <anchor x="255" y="480" name="Repha"/>
  <anchor x="290" y="0" name="UU"/>
  <anchor x="315" y="0" name="Virama"/>
  <anchor x="280" y="0" name="VocL"/>
  <anchor x="265" y="0" name="VocR"/>
  <anchor x="270" y="10" name="Ya"/>
  <outline>
    <contour>
      <point x="280" y="-10" type="curve" smooth="yes"/>
      <point x="354" y="-10"/>
      <point x="443" y="62"/>
      <point x="487" y="102" type="curve"/>
      <point x="458" y="135" type="line"/>
      <point x="389" y="74"/>
      <point x="337" y="60"/>
      <point x="295" y="60" type="curve" smooth="yes"/>
      <point x="258" y="60"/>
      <point x="174" y="102"/>
      <point x="167" y="202" type="curve"/>
      <point x="228" y="240"/>
      <point x="316" y="296"/>
      <point x="317" y="348" type="curve" smooth="yes"/>
      <point x="317" y="359"/>
      <point x="313" y="373"/>
      <point x="306" y="388" type="curve"/>
      <point x="467" y="388" type="line"/>
      <point x="467" y="410" type="line"/>
      <point x="273" y="560" type="line"/>
      <point x="251" y="560" type="line"/>
      <point x="46" y="410" type="line"/>
      <point x="46" y="388" type="line"/>
      <point x="210" y="388" type="line"/>
      <point x="228" y="377"/>
      <point x="235" y="363"/>
      <point x="235" y="348" type="curve" smooth="yes"/>
      <point x="235" y="309"/>
      <point x="136" y="226"/>
      <point x="20" y="189" type="curve"/>
      <point x="28" y="144" type="line"/>
      <point x="47" y="148"/>
      <point x="64" y="155"/>
      <point x="81" y="163" type="curve"/>
      <point x="107" y="80"/>
      <point x="171" y="-10"/>
    </contour>
  </outline>
</glyph>
<glyph name="Dha" format="2">
  <advance width="819"/>
  <unicode hex="11C20"/>
  <anchor x="717" y="350" name="AA_alt"/>
  <anchor x="625" y="445" name="AI"/>
  <anchor x="350" y="600" name="AnusCandra"/>
  <anchor x="610" y="450" name="E"/>
  <anchor x="340" y="0" name="Pa"/>
  <anchor x="335" y="480" name="Repha"/>
  <anchor x="340" y="0" name="UU"/>
  <anchor x="355" y="0" name="Virama"/>
  <anchor x="355" y="0" name="VocL"/>
  <anchor x="335" y="0" name="VocR"/>
  <anchor x="340" y="0" name="Ya"/>
  <outline>
    <contour>
      <point x="346" y="-10" type="curve" smooth="yes"/>
      <point x="450" y="-10"/>
      <point x="548" y="130"/>
      <point x="548" y="166" type="curve" smooth="yes"/>
      <point x="548" y="211"/>
      <point x="525" y="273"/>
      <point x="490" y="340" type="curve"/>
      <point x="799" y="340" type="line"/>
      <point x="799" y="360" type="line"/>
      <point x="638" y="512" type="line"/>
      <point x="616" y="512" type="line"/>
      <point x="471" y="376" type="line"/>
      <point x="439" y="433"/>
      <point x="401" y="491"/>
      <point x="363" y="545" type="curve"/>
      <point x="341" y="545" type="line"/>
      <point x="285" y="517"/>
      <point x="40" y="385"/>
      <point x="40" y="328" type="curve" smooth="yes"/>
      <point x="40" y="305"/>
      <point x="52" y="285"/>
      <point x="77" y="260" type="curve"/>
      <point x="107" y="142"/>
      <point x="180" y="-10"/>
    </contour>
    <contour>
      <point x="354" y="60" type="curve" smooth="yes"/>
      <point x="241" y="60"/>
      <point x="183" y="165"/>
      <point x="164" y="277" type="curve"/>
      <point x="193" y="298" type="line"/>
      <point x="171" y="315"/>
      <point x="146" y="329"/>
      <point x="146" y="348" type="curve" smooth="yes"/>
      <point x="146" y="367"/>
      <point x="241" y="420"/>
      <point x="318" y="462" type="curve"/>
      <point x="357" y="435"/>
      <point x="466" y="215"/>
      <point x="466" y="154" type="curve" smooth="yes"/>
      <point x="466" y="111"/>
      <point x="421" y="60"/>
    </contour>
  </outline>
</glyph>
<glyph name="Na" format="2">
  <advance width="501"/>
  <unicode hex="11C21"/>
  <anchor x="435" y="388" name="AA"/>
  <anchor x="260" y="600" name="AnusCandra"/>
  <anchor x="240" y="20" name="Pa"/>
  <anchor x="250" y="480" name="Repha"/>
  <anchor x="255" y="55" name="UU"/>
  <anchor x="250" y="0" name="Virama"/>
  <anchor x="280" y="0" name="VocL"/>
  <anchor x="265" y="0" name="VocR"/>
  <anchor x="240" y="20" name="Ya"/>
  <outline>
    <contour>
      <point x="237" y="-10" type="curve"/>
      <point x="346" y="5"/>
      <point x="425" y="86"/>
      <point x="425" y="178" type="curve" smooth="yes"/>
      <point x="425" y="281"/>
      <point x="335" y="331"/>
      <point x="255" y="331" type="curve" smooth="yes"/>
      <point x="187" y="331"/>
      <point x="123" y="290"/>
      <point x="86" y="258" type="curve"/>
      <point x="108" y="203" type="line"/>
      <point x="144" y="233"/>
      <point x="184" y="255"/>
      <point x="239" y="255" type="curve" smooth="yes"/>
      <point x="295" y="255"/>
      <point x="341" y="235"/>
      <point x="341" y="185" type="curve" smooth="yes"/>
      <point x="341" y="103"/>
      <point x="218" y="73"/>
      <point x="182" y="73" type="curve"/>
      <point x="212" y="45"/>
      <point x="229" y="18"/>
    </contour>
    <contour>
      <point x="283" y="290" type="line"/>
      <point x="294" y="306"/>
      <point x="300" y="339"/>
      <point x="300" y="356" type="curve" smooth="yes"/>
      <point x="300" y="380"/>
      <point x="290" y="408"/>
      <point x="270" y="431" type="curve"/>
      <point x="160" y="413" type="line"/>
      <point x="197" y="403"/>
      <point x="211" y="382"/>
      <point x="211" y="360" type="curve" smooth="yes"/>
      <point x="211" y="346"/>
      <point x="205" y="324"/>
      <point x="195" y="306" type="curve"/>
    </contour>
    <contour>
      <point x="40" y="388" type="line"/>
      <point x="461" y="388" type="line"/>
      <point x="461" y="410" type="line"/>
      <point x="267" y="560" type="line"/>
      <point x="245" y="560" type="line"/>
      <point x="40" y="410" type="line"/>
    </contour>
  </outline>
</glyph>
<glyph name="Pha" format="2">
  <advance width="723"/>
  <unicode hex="11C23"/>
  <anchor x="395" y="388" name="AA"/>
  <anchor x="255" y="600" name="AnusCandra"/>
  <anchor x="450" y="15" name="Pa"/>
  <anchor x="245" y="480" name="Repha"/>
  <anchor x="435" y="30" name="UU"/>
  <anchor x="365" y="0" name="Virama"/>
  <anchor x="430" y="20" name="VocL"/>
  <anchor x="330" y="85" name="VocR_wide"/>
  <anchor x="450" y="15" name="Ya"/>
  <outline>
    <contour>
      <point x="484" y="-10" type="curve" smooth="yes"/>
      <point x="547" y="-10"/>
      <point x="683" y="144"/>
      <point x="683" y="167" type="curve" smooth="yes"/>
      <point x="683" y="206"/>
      <point x="620" y="275"/>
      <point x="572" y="312" type="curve"/>
      <point x="552" y="289"/>
      <point x="525" y="271"/>
      <point x="486" y="256" type="curve"/>
      <point x="528" y="245"/>
      <point x="600" y="190"/>
      <point x="600" y="142" type="curve" smooth="yes"/>
      <point x="600" y="124"/>
      <point x="543" y="60"/>
      <point x="505" y="60" type="curve" smooth="yes"/>
      <point x="460" y="60"/>
      <point x="392" y="165"/>
      <point x="369" y="165" type="curve" smooth="yes"/>
      <point x="354" y="165"/>
      <point x="280" y="103"/>
      <point x="253" y="103" type="curve" smooth="yes"/>
      <point x="231" y="103"/>
      <point x="175" y="160"/>
      <point x="171" y="217" type="curve"/>
      <point x="214" y="244"/>
      <point x="291" y="292"/>
      <point x="291" y="345" type="curve" smooth="yes"/>
      <point x="291" y="357"/>
      <point x="287" y="372"/>
      <point x="279" y="388" type="curve"/>
      <point x="441" y="388" type="line"/>
      <point x="441" y="410" type="line"/>
      <point x="247" y="560" type="line"/>
      <point x="225" y="560" type="line"/>
      <point x="20" y="410" type="line"/>
      <point x="20" y="388" type="line"/>
      <point x="179" y="388" type="line"/>
      <point x="200" y="377"/>
      <point x="209" y="361"/>
      <point x="209" y="345" type="curve" smooth="yes"/>
      <point x="209" y="287"/>
      <point x="105" y="237"/>
      <point x="57" y="216" type="curve"/>
      <point x="65" y="178" type="line"/>
      <point x="77" y="182"/>
      <point x="88" y="186"/>
      <point x="97" y="191" type="curve"/>
      <point x="108" y="143"/>
      <point x="147" y="33"/>
      <point x="244" y="33" type="curve" smooth="yes"/>
      <point x="266" y="33"/>
      <point x="327" y="89"/>
      <point x="345" y="89" type="curve" smooth="yes"/>
      <point x="358" y="89"/>
      <point x="430" y="-10"/>
    </contour>
  </outline>
</glyph>
<glyph name="Ba" format="2">
  <advance width="726"/>
  <unicode hex="11C24"/>
  <anchor x="632" y="390" name="AA_alt"/>
  <anchor x="350" y="600" name="AnusCandra"/>
  <anchor x="430" y="0" name="Pa"/>
  <anchor x="530" y="480" name="Repha"/>
  <anchor x="430" y="0" name="UU"/>
  <anchor x="435" y="0" name="Virama"/>
  <anchor x="420" y="0" name="VocL"/>
  <anchor x="400" y="0" name="VocR_wide"/>
  <anchor x="430" y="0" name="Ya"/>
  <outline>
    <contour>
      <point x="443" y="-10" type="curve" smooth="yes"/>
      <point x="547" y="-10"/>
      <point x="645" y="127"/>
      <point x="645" y="176" type="curve" smooth="yes"/>
      <point x="645" y="253"/>
      <point x="614" y="340"/>
      <point x="581" y="388" type="curve"/>
      <point x="706" y="388" type="line"/>
      <point x="706" y="408" type="line"/>
      <point x="545" y="560" type="line"/>
      <point x="523" y="560" type="line"/>
      <point x="363" y="411" type="line"/>
      <point x="205" y="560" type="line"/>
      <point x="183" y="560" type="line"/>
      <point x="20" y="408" type="line"/>
      <point x="20" y="388" type="line"/>
      <point x="192" y="388" type="line"/>
      <point x="203" y="364"/>
      <point x="208" y="334"/>
      <point x="208" y="303" type="curve" smooth="yes"/>
      <point x="208" y="237"/>
      <point x="142" y="202"/>
      <point x="98" y="187" type="curve"/>
      <point x="113" y="141" type="line"/>
      <point x="128" y="144"/>
      <point x="143" y="149"/>
      <point x="157" y="154" type="curve"/>
      <point x="204" y="63"/>
      <point x="314" y="-10"/>
    </contour>
    <contour>
      <point x="451" y="60" type="curve" smooth="yes"/>
      <point x="355" y="60"/>
      <point x="270" y="122"/>
      <point x="236" y="202" type="curve"/>
      <point x="270" y="232"/>
      <point x="292" y="268"/>
      <point x="292" y="303" type="curve" smooth="yes"/>
      <point x="292" y="335"/>
      <point x="286" y="364"/>
      <point x="277" y="388" type="curve"/>
      <point x="492" y="388" type="line"/>
      <point x="537" y="337"/>
      <point x="563" y="228"/>
      <point x="563" y="164" type="curve" smooth="yes"/>
      <point x="563" y="121"/>
      <point x="518" y="60"/>
    </contour>
  </outline>
</glyph>
<glyph name="Bha" format="2">
  <advance width="537"/>
  <unicode hex="11C25"/>
  <anchor x="425" y="388" name="AA"/>
  <anchor x="275" y="600" name="AnusCandra"/>
  <anchor x="360" y="-20" name="Pa"/>
  <anchor x="265" y="480" name="Repha"/>
  <anchor x="365" y="0" name="UU"/>
  <anchor x="250" y="0" name="Virama"/>
  <anchor x="305" y="0" name="VocL"/>
  <anchor x="360" y="0" name="VocR"/>
  <anchor x="360" y="-20" name="Ya"/>
  <outline>
    <contour>
      <point x="374" y="-68" type="curve"/>
      <point x="446" y="-33"/>
      <point x="497" y="25"/>
      <point x="497" y="81" type="curve" smooth="yes"/>
      <point x="497" y="172"/>
      <point x="368" y="277"/>
      <point x="315" y="339" type="curve"/>
      <point x="314" y="351"/>
      <point x="311" y="370"/>
      <point x="305" y="388" type="curve"/>
      <point x="475" y="388" type="line"/>
      <point x="475" y="410" type="line"/>
      <point x="281" y="560" type="line"/>
      <point x="259" y="560" type="line"/>
      <point x="54" y="410" type="line"/>
      <point x="54" y="388" type="line"/>
      <point x="217" y="388" type="line"/>
      <point x="228" y="370"/>
      <point x="233" y="347"/>
      <point x="233" y="335" type="curve" smooth="yes"/>
      <point x="233" y="262"/>
      <point x="97" y="219"/>
      <point x="20" y="196" type="curve"/>
      <point x="28" y="158" type="line"/>
      <point x="45" y="160"/>
      <point x="63" y="163"/>
      <point x="83" y="168" type="curve"/>
      <point x="92" y="91"/>
      <point x="157" y="27"/>
      <point x="213" y="27" type="curve" smooth="yes"/>
      <point x="252" y="27"/>
      <point x="376" y="93"/>
      <point x="395" y="149" type="curve"/>
      <point x="408" y="125"/>
      <point x="413" y="105"/>
      <point x="413" y="92" type="curve" smooth="yes"/>
      <point x="413" y="52"/>
      <point x="363" y="26"/>
      <point x="317" y="12" type="curve"/>
      <point x="348" y="-16"/>
      <point x="365" y="-42"/>
    </contour>
    <contour>
      <point x="231" y="97" type="curve" smooth="yes"/>
      <point x="204" y="97"/>
      <point x="164" y="144"/>
      <point x="155" y="191" type="curve"/>
      <point x="206" y="211"/>
      <point x="255" y="238"/>
      <point x="285" y="270" type="curve"/>
      <point x="322" y="225"/>
      <point x="325" y="176"/>
      <point x="325" y="155" type="curve" smooth="yes"/>
      <point x="325" y="113"/>
      <point x="255" y="97"/>
    </contour>
  </outline>
</glyph>
<glyph name="Ma" format="2">
  <advance width="736"/>
  <unicode hex="11C26"/>
  <anchor x="642" y="390" name="AA_alt"/>
  <anchor x="355" y="600" name="AnusCandra"/>
  <anchor x="210" y="0" name="Pa"/>
  <anchor x="540" y="480" name="Repha"/>
  <anchor x="220" y="0" name="UU"/>
  <anchor x="275" y="0" name="Virama"/>
  <anchor x="250" y="0" name="VocL"/>
  <anchor x="235" y="0" name="VocR"/>
  <anchor x="210" y="0" name="Ya"/>
  <outline>
    <contour>
      <point x="201" y="-10" type="curve" smooth="yes"/>
      <point x="275" y="-10"/>
      <point x="402" y="83"/>
      <point x="402" y="159" type="curve" smooth="yes"/>
      <point x="402" y="164"/>
      <point x="401" y="169"/>
      <point x="401" y="174" type="curve"/>
      <point x="410" y="173"/>
      <point x="419" y="173"/>
      <point x="429" y="173" type="curve" smooth="yes"/>
      <point x="518" y="173"/>
      <point x="597" y="265"/>
      <point x="597" y="310" type="curve" smooth="yes"/>
      <point x="597" y="335"/>
      <point x="591" y="362"/>
      <point x="582" y="388" type="curve"/>
      <point x="716" y="388" type="line"/>
      <point x="716" y="408" type="line"/>
      <point x="555" y="560" type="line"/>
      <point x="533" y="560" type="line"/>
      <point x="378" y="415" type="line"/>
      <point x="225" y="560" type="line"/>
      <point x="203" y="560" type="line"/>
      <point x="40" y="408" type="line"/>
      <point x="40" y="388" type="line"/>
      <point x="179" y="388" type="line"/>
      <point x="184" y="381"/>
      <point x="187" y="373"/>
      <point x="187" y="364" type="curve" smooth="yes"/>
      <point x="187" y="352"/>
      <point x="183" y="336"/>
      <point x="176" y="320" type="curve"/>
      <point x="117" y="294"/>
      <point x="43" y="216"/>
      <point x="43" y="172" type="curve" smooth="yes"/>
      <point x="43" y="97"/>
      <point x="142" y="-10"/>
    </contour>
    <contour>
      <point x="218" y="60" type="curve" smooth="yes"/>
      <point x="186" y="60"/>
      <point x="125" y="140"/>
      <point x="125" y="183" type="curve" smooth="yes"/>
      <point x="125" y="198"/>
      <point x="160" y="259"/>
      <point x="204" y="259" type="curve" smooth="yes"/>
      <point x="241" y="259"/>
      <point x="320" y="223"/>
      <point x="320" y="153" type="curve" smooth="yes"/>
      <point x="320" y="101"/>
      <point x="250" y="60"/>
    </contour>
    <contour>
      <point x="443" y="243" type="curve" smooth="yes"/>
      <point x="413" y="243"/>
      <point x="386" y="252"/>
      <point x="357" y="271" type="curve"/>
      <point x="330" y="298"/>
      <point x="294" y="313"/>
      <point x="263" y="321" type="curve"/>
      <point x="266" y="335"/>
      <point x="269" y="350"/>
      <point x="269" y="360" type="curve" smooth="yes"/>
      <point x="269" y="369"/>
      <point x="267" y="378"/>
      <point x="264" y="388" type="curve"/>
      <point x="495" y="388" type="line"/>
      <point x="506" y="355"/>
      <point x="515" y="321"/>
      <point x="515" y="295" type="curve" smooth="yes"/>
      <point x="515" y="250"/>
      <point x="467" y="243"/>
    </contour>
  </outline>
</glyph>
<glyph name="Ya" format="2">
  <advance width="906"/>
  <unicode hex="11C27"/>
  <anchor x="812" y="390" name="AA_alt"/>
  <anchor x="530" y="600" name="AnusCandra"/>
  <anchor x="550" y="15" name="Pa"/>
  <anchor x="700" y="480" name="Repha"/>
  <anchor x="490" y="65" name="UU"/>
  <anchor x="435" y="0" name="Virama"/>
  <anchor x="485" y="30" name="VocL"/>
  <anchor x="325" y="130" name="VocR_wide"/>
  <anchor x="550" y="15" name="Ya"/>
  <outline>
    <contour>
      <point x="622" y="-10" type="curve" smooth="yes"/>
      <point x="726" y="-10"/>
      <point x="804" y="127"/>
      <point x="804" y="176" type="curve" smooth="yes"/>
      <point x="804" y="235"/>
      <point x="791" y="325"/>
      <point x="766" y="388" type="curve"/>
      <point x="886" y="388" type="line"/>
      <point x="886" y="408" type="line"/>
      <point x="725" y="560" type="line"/>
      <point x="703" y="560" type="line"/>
      <point x="558" y="425" type="line"/>
      <point x="415" y="560" type="line"/>
      <point x="393" y="560" type="line"/>
      <point x="230" y="408" type="line"/>
      <point x="230" y="388" type="line"/>
      <point x="365" y="388" type="line"/>
      <point x="368" y="313"/>
      <point x="377" y="251"/>
      <point x="391" y="199" type="curve"/>
      <point x="366" y="181"/>
      <point x="334" y="168"/>
      <point x="304" y="168" type="curve" smooth="yes"/>
      <point x="161" y="168"/>
      <point x="130" y="305"/>
      <point x="130" y="407" type="curve" smooth="yes"/>
      <point x="130" y="457"/>
      <point x="144" y="525"/>
      <point x="191" y="562" type="curve"/>
      <point x="153" y="584"/>
      <point x="121" y="605"/>
      <point x="96" y="628" type="curve"/>
      <point x="69" y="601"/>
      <point x="40" y="528"/>
      <point x="40" y="442" type="curve" smooth="yes"/>
      <point x="40" y="376"/>
      <point x="49" y="98"/>
      <point x="296" y="98" type="curve" smooth="yes"/>
      <point x="332" y="98"/>
      <point x="374" y="117"/>
      <point x="409" y="143" type="curve"/>
      <point x="453" y="34"/>
      <point x="527" y="-10"/>
    </contour>
    <contour>
      <point x="630" y="60" type="curve" smooth="yes"/>
      <point x="511" y="60"/>
      <point x="454" y="183"/>
      <point x="447" y="388" type="curve"/>
      <point x="680" y="388" type="line"/>
      <point x="711" y="325"/>
      <point x="722" y="219"/>
      <point x="722" y="164" type="curve" smooth="yes"/>
      <point x="722" y="121"/>
      <point x="697" y="60"/>
    </contour>
  </outline>
</glyph>
<glyph name="Ra" format="2">
  <advance width="548"/>
  <unicode hex="11C28"/>
  <anchor x="465" y="388" name="AA"/>
  <anchor x="315" y="600" name="AnusCandra"/>
  <anchor x="240" y="0" name="Pa"/>
  <anchor x="320" y="480" name="Repha"/>
  <anchor x="275" y="0" name="UU"/>
  <anchor x="280" y="0" name="Virama"/>
  <anchor x="280" y="0" name="VocL"/>
  <anchor x="295" y="0" name="VocR"/>
  <anchor x="240" y="0" name="Ya"/>
  <outline>
    <contour>
      <point x="267" y="-10" type="curve" smooth="yes"/>
      <point x="371" y="-10"/>
      <point x="459" y="127"/>
      <point x="459" y="176" type="curve" smooth="yes"/>
      <point x="459" y="251"/>
      <point x="422" y="339"/>
      <point x="388" y="388" type="curve"/>
      <point x="528" y="388" type="line"/>
      <point x="528" y="410" type="line"/>
      <point x="334" y="560" type="line"/>
      <point x="312" y="560" type="line"/>
      <point x="107" y="410" type="line"/>
      <point x="107" y="388" type="line"/>
      <point x="299" y="388" type="line"/>
      <point x="344" y="335"/>
      <point x="377" y="226"/>
      <point x="377" y="164" type="curve" smooth="yes"/>
      <point x="377" y="121"/>
      <point x="342" y="60"/>
      <point x="275" y="60" type="curve" smooth="yes"/>
      <point x="204" y="60"/>
      <point x="128" y="136"/>
      <point x="102" y="227" type="curve"/>
      <point x="85" y="208"/>
      <point x="58" y="193"/>
      <point x="20" y="182" type="curve"/>
      <point x="58" y="79"/>
      <point x="157" y="-10"/>
    </contour>
  </outline>
</glyph>
<glyph name="La" format="2">
  <advance width="730"/>
  <unicode hex="11C29"/>
  <anchor x="625" y="352" name="AA_alt"/>
  <anchor x="305" y="600" name="AnusCandra"/>
  <anchor x="240" y="0" name="Pa"/>
  <anchor x="265" y="480" name="Repha"/>
  <anchor x="255" y="0" name="UU"/>
  <anchor x="265" y="0" name="Virama"/>
  <anchor x="280" y="0" name="VocL"/>
  <anchor x="265" y="0" name="VocR"/>
  <anchor x="240" y="0" name="Ya"/>
  <outline>
    <contour>
      <point x="242" y="-10" type="curve" smooth="yes"/>
      <point x="326" y="-10"/>
      <point x="402" y="34"/>
      <point x="437" y="61" type="curve"/>
      <point x="415" y="88" type="line"/>
      <point x="380" y="72"/>
      <point x="312" y="60"/>
      <point x="244" y="60" type="curve" smooth="yes"/>
      <point x="163" y="60"/>
      <point x="122" y="131"/>
      <point x="122" y="154" type="curve" smooth="yes"/>
      <point x="122" y="202"/>
      <point x="161" y="236"/>
      <point x="197" y="236" type="curve" smooth="yes"/>
      <point x="281" y="236"/>
      <point x="337" y="190"/>
      <point x="377" y="156" type="curve"/>
      <point x="396" y="163"/>
      <point x="442" y="204"/>
      <point x="448" y="227" type="curve"/>
      <point x="448" y="246"/>
      <point x="435" y="290"/>
      <point x="415" y="340" type="curve"/>
      <point x="710" y="340" type="line"/>
      <point x="710" y="360" type="line"/>
      <point x="549" y="512" type="line"/>
      <point x="527" y="512" type="line"/>
      <point x="395" y="389" type="line"/>
      <point x="365" y="456"/>
      <point x="328" y="524"/>
      <point x="295" y="560" type="curve"/>
      <point x="268" y="560" type="line"/>
      <point x="180" y="521"/>
      <point x="103" y="465"/>
      <point x="86" y="432" type="curve"/>
      <point x="122" y="421"/>
      <point x="153" y="403"/>
      <point x="181" y="379" type="curve"/>
      <point x="193" y="414"/>
      <point x="217" y="458"/>
      <point x="257" y="487" type="curve"/>
      <point x="273" y="477"/>
      <point x="360" y="310"/>
      <point x="366" y="238" type="curve"/>
      <point x="325" y="287"/>
      <point x="248" y="305"/>
      <point x="211" y="305" type="curve" smooth="yes"/>
      <point x="128" y="305"/>
      <point x="40" y="190"/>
      <point x="40" y="143" type="curve" smooth="yes"/>
      <point x="40" y="64"/>
      <point x="135" y="-10"/>
    </contour>
  </outline>
</glyph>
<glyph name="Va" format="2">
  <advance width="543"/>
  <unicode hex="11C2A"/>
  <anchor x="450" y="388" name="AA"/>
  <anchor x="300" y="600" name="AnusCandra"/>
  <anchor x="240" y="0" name="Pa"/>
  <anchor x="290" y="480" name="Repha"/>
  <anchor x="255" y="0" name="UU"/>
  <anchor x="250" y="0" name="Virama"/>
  <anchor x="280" y="0" name="VocL"/>
  <anchor x="265" y="0" name="VocR"/>
  <anchor x="240" y="0" name="Ya"/>
  <outline>
    <contour>
      <point x="251" y="-10" type="curve" smooth="yes"/>
      <point x="314" y="-10"/>
      <point x="458" y="99"/>
      <point x="458" y="146" type="curve" smooth="yes"/>
      <point x="458" y="205"/>
      <point x="384" y="290"/>
      <point x="313" y="316" type="curve"/>
      <point x="311" y="326"/>
      <point x="310" y="335"/>
      <point x="310" y="340" type="curve" smooth="yes"/>
      <point x="310" y="353"/>
      <point x="314" y="373"/>
      <point x="326" y="388" type="curve"/>
      <point x="503" y="388" type="line"/>
      <point x="503" y="410" type="line"/>
      <point x="309" y="560" type="line"/>
      <point x="287" y="560" type="line"/>
      <point x="82" y="410" type="line"/>
      <point x="82" y="388" type="line"/>
      <point x="242" y="388" type="line"/>
      <point x="232" y="370"/>
      <point x="228" y="352"/>
      <point x="228" y="336" type="curve" smooth="yes"/>
      <point x="228" y="331"/>
      <point x="228" y="325"/>
      <point x="229" y="318" type="curve"/>
      <point x="149" y="294"/>
      <point x="40" y="217"/>
      <point x="40" y="169" type="curve" smooth="yes"/>
      <point x="40" y="79"/>
      <point x="164" y="-10"/>
    </contour>
    <contour>
      <point x="253" y="60" type="curve" smooth="yes"/>
      <point x="214" y="60"/>
      <point x="122" y="124"/>
      <point x="122" y="174" type="curve" smooth="yes"/>
      <point x="122" y="216"/>
      <point x="210" y="256"/>
      <point x="257" y="256" type="curve" smooth="yes"/>
      <point x="299" y="256"/>
      <point x="376" y="174"/>
      <point x="376" y="141" type="curve" smooth="yes"/>
      <point x="376" y="114"/>
      <point x="303" y="60"/>
    </contour>
  </outline>
</glyph>
<glyph name="Sha" format="2">
  <advance width="857"/>
  <unicode hex="11C2B"/>
  <anchor x="751" y="352" name="AA_alt"/>
  <anchor x="660" y="445" name="AI"/>
  <anchor x="375" y="600" name="AnusCandra"/>
  <anchor x="640" y="450" name="E"/>
  <anchor x="380" y="0" name="Pa"/>
  <anchor x="672" y="470" name="Repha"/>
  <anchor x="390" y="20" name="UU"/>
  <anchor x="355" y="0" name="Virama"/>
  <anchor x="385" y="0" name="VocL"/>
  <anchor x="385" y="0" name="VocR"/>
  <anchor x="380" y="0" name="Ya"/>
  <outline>
    <contour>
      <point x="399" y="-10" type="curve" smooth="yes"/>
      <point x="503" y="-10"/>
      <point x="598" y="130"/>
      <point x="598" y="166" type="curve" smooth="yes"/>
      <point x="598" y="211"/>
      <point x="573" y="273"/>
      <point x="536" y="340" type="curve"/>
      <point x="837" y="340" type="line"/>
      <point x="837" y="359" type="line"/>
      <point x="676" y="512" type="line"/>
      <point x="654" y="512" type="line"/>
      <point x="513" y="380" type="line"/>
      <point x="480" y="435"/>
      <point x="441" y="492"/>
      <point x="404" y="545" type="curve"/>
      <point x="382" y="545" type="line"/>
      <point x="350" y="529"/>
      <point x="244" y="470"/>
      <point x="159" y="409" type="curve" smooth="yes"/>
      <point x="100" y="367"/>
      <point x="40" y="318"/>
      <point x="40" y="299" type="curve" smooth="yes"/>
      <point x="40" y="273"/>
      <point x="73" y="222"/>
      <point x="112" y="197" type="curve"/>
      <point x="137" y="226"/>
      <point x="163" y="245"/>
      <point x="193" y="266" type="curve"/>
      <point x="165" y="281"/>
      <point x="144" y="296"/>
      <point x="144" y="315" type="curve" smooth="yes"/>
      <point x="144" y="349"/>
      <point x="268" y="409"/>
      <point x="359" y="462" type="curve"/>
      <point x="398" y="435"/>
      <point x="516" y="215"/>
      <point x="516" y="154" type="curve" smooth="yes"/>
      <point x="516" y="111"/>
      <point x="474" y="60"/>
      <point x="407" y="60" type="curve" smooth="yes"/>
      <point x="393" y="60"/>
      <point x="377" y="65"/>
      <point x="365" y="68" type="curve"/>
      <point x="355" y="-7" type="line"/>
      <point x="368" y="-9"/>
      <point x="385" y="-10"/>
    </contour>
    <contour>
      <point x="324" y="173" type="curve"/>
      <point x="351" y="192"/>
      <point x="378" y="204"/>
      <point x="403" y="212" type="curve"/>
      <point x="392" y="264"/>
      <point x="348" y="328"/>
      <point x="313" y="346" type="curve"/>
      <point x="284" y="339"/>
      <point x="259" y="325"/>
      <point x="233" y="307" type="curve"/>
      <point x="260" y="290"/>
      <point x="317" y="203"/>
    </contour>
  </outline>
</glyph>
<glyph name="Ssa" format="2">
  <advance width="726"/>
  <unicode hex="11C2C"/>
  <guideline x="626" y="484" angle="136.647"/>
  <anchor x="632" y="390" name="AA_alt"/>
  <anchor x="355" y="600" name="AnusCandra"/>
  <anchor x="400" y="0" name="Pa"/>
  <anchor x="530" y="480" name="Repha"/>
  <anchor x="400" y="0" name="UU"/>
  <anchor x="400" y="0" name="Virama"/>
  <anchor x="410" y="0" name="VocL"/>
  <anchor x="314" y="40" name="VocR"/>
  <anchor x="400" y="0" name="Ya"/>
  <outline>
    <contour>
      <point x="403" y="-10" type="curve" smooth="yes"/>
      <point x="507" y="-10"/>
      <point x="625" y="127"/>
      <point x="625" y="176" type="curve" smooth="yes"/>
      <point x="625" y="214"/>
      <point x="571" y="265"/>
      <point x="528" y="296" type="curve"/>
      <point x="555" y="320"/>
      <point x="574" y="345"/>
      <point x="574" y="365" type="curve" smooth="yes"/>
      <point x="574" y="372"/>
      <point x="572" y="380"/>
      <point x="569" y="388" type="curve"/>
      <point x="706" y="388" type="line"/>
      <point x="706" y="408" type="line"/>
      <point x="545" y="560" type="line"/>
      <point x="523" y="560" type="line"/>
      <point x="363" y="411" type="line"/>
      <point x="205" y="560" type="line"/>
      <point x="183" y="560" type="line"/>
      <point x="20" y="408" type="line"/>
      <point x="20" y="388" type="line"/>
      <point x="170" y="388" type="line"/>
      <point x="185" y="376"/>
      <point x="192" y="359"/>
      <point x="192" y="345" type="curve" smooth="yes"/>
      <point x="192" y="275"/>
      <point x="82" y="212"/>
      <point x="48" y="199" type="curve"/>
      <point x="56" y="161" type="line"/>
      <point x="69" y="163"/>
      <point x="93" y="173"/>
      <point x="121" y="187" type="curve"/>
      <point x="167" y="89"/>
      <point x="304" y="-10"/>
    </contour>
    <contour>
      <point x="411" y="60" type="curve" smooth="yes"/>
      <point x="343" y="60"/>
      <point x="228" y="146"/>
      <point x="193" y="232" type="curve"/>
      <point x="237" y="265"/>
      <point x="274" y="306"/>
      <point x="274" y="345" type="curve" smooth="yes"/>
      <point x="274" y="358"/>
      <point x="269" y="373"/>
      <point x="260" y="388" type="curve"/>
      <point x="486" y="388" type="line"/>
      <point x="490" y="379"/>
      <point x="492" y="369"/>
      <point x="492" y="359" type="curve" smooth="yes"/>
      <point x="492" y="329"/>
      <point x="457" y="296"/>
      <point x="418" y="267" type="curve"/>
      <point x="440" y="234" type="line"/>
      <point x="448" y="238"/>
      <point x="455" y="243"/>
      <point x="463" y="248" type="curve"/>
      <point x="497" y="224"/>
      <point x="543" y="189"/>
      <point x="543" y="164" type="curve" smooth="yes"/>
      <point x="543" y="121"/>
      <point x="478" y="60"/>
    </contour>
  </outline>
</glyph>
<glyph name="Ha" format="2">
  <advance width="585"/>
  <unicode hex="11C2E"/>
  <anchor x="430" y="388" name="AA"/>
  <anchor x="275" y="600" name="AnusCandra"/>
  <anchor x="178" y="104" name="Pa"/>
  <anchor x="245" y="480" name="Repha"/>
  <anchor x="196" y="121" name="UU"/>
  <anchor x="305" y="25" name="Virama"/>
  <anchor x="370" y="45" name="VocL"/>
  <anchor x="370" y="0" name="VocR_wide"/>
  <anchor x="178" y="104" name="Ya"/>
  <outline>
    <contour>
      <point x="415" y="-13" type="curve"/>
      <point x="463" y="5"/>
      <point x="545" y="69"/>
      <point x="545" y="93" type="curve" smooth="yes"/>
      <point x="545" y="115"/>
      <point x="417" y="232"/>
      <point x="396" y="232" type="curve" smooth="yes"/>
      <point x="370" y="232"/>
      <point x="235" y="156"/>
      <point x="218" y="156" type="curve" smooth="yes"/>
      <point x="197" y="156"/>
      <point x="140" y="205"/>
      <point x="140" y="224" type="curve" smooth="yes"/>
      <point x="140" y="244"/>
      <point x="327" y="302"/>
      <point x="327" y="345" type="curve" smooth="yes"/>
      <point x="327" y="357"/>
      <point x="323" y="372"/>
      <point x="320" y="388" type="curve"/>
      <point x="468" y="388" type="line"/>
      <point x="468" y="410" type="line"/>
      <point x="274" y="560" type="line"/>
      <point x="252" y="560" type="line"/>
      <point x="47" y="410" type="line"/>
      <point x="47" y="388" type="line"/>
      <point x="230" y="388" type="line"/>
      <point x="233" y="374"/>
      <point x="235" y="359"/>
      <point x="235" y="348" type="curve" smooth="yes"/>
      <point x="235" y="318"/>
      <point x="54" y="242"/>
      <point x="20" y="231" type="curve"/>
      <point x="25" y="196" type="line"/>
      <point x="38" y="197"/>
      <point x="52" y="201"/>
      <point x="65" y="205" type="curve"/>
      <point x="65" y="180"/>
      <point x="138" y="86"/>
      <point x="199" y="86" type="curve" smooth="yes"/>
      <point x="215" y="86"/>
      <point x="349" y="159"/>
      <point x="371" y="159" type="curve" smooth="yes"/>
      <point x="386" y="159"/>
      <point x="436" y="115"/>
      <point x="436" y="103" type="curve" smooth="yes"/>
      <point x="436" y="90"/>
      <point x="379" y="68"/>
      <point x="354" y="61" type="curve"/>
      <point x="376" y="45"/>
      <point x="398" y="17"/>
    </contour>
  </outline>
</glyph>
<glyph name="AA_vwl" format="2">
  <unicode hex="11C2F"/>
  <anchor x="0" y="388" name="_AA"/>
  <outline>
    <contour>
      <point x="344" y="251" type="line"/>
      <point x="368" y="277"/>
      <point x="384" y="309"/>
      <point x="384" y="328" type="curve" smooth="yes"/>
      <point x="384" y="355"/>
      <point x="377" y="377"/>
      <point x="346" y="407" type="curve" smooth="yes"/>
      <point x="185" y="560" type="line"/>
      <point x="163" y="560" type="line"/>
      <point x="0" y="408" type="line"/>
      <point x="0" y="388" type="line"/>
      <point x="285" y="388" type="line"/>
      <point x="293" y="374"/>
      <point x="297" y="359"/>
      <point x="297" y="347" type="curve" smooth="yes"/>
      <point x="297" y="329"/>
      <point x="290" y="299"/>
      <point x="274" y="283" type="curve"/>
    </contour>
  </outline>
</glyph>
<glyph name="I_vwl" format="2">
  <unicode hex="11C30"/>
  <guideline x="6" y="809" angle="0"/>
  <anchor x="-195" y="620" name="_II"/>
  <outline>
    <contour>
      <point x="-200" y="620" type="line"/>
      <point x="211" y="620" type="line"/>
      <point x="211" y="642" type="line"/>
      <point x="15" y="809" type="line"/>
      <point x="-5" y="809" type="line"/>
      <point x="-200" y="642" type="line"/>
    </contour>
    <contour>
      <point x="-71" y="673" type="line"/>
      <point x="-71" y="680" type="line"/>
      <point x="2" y="742" type="line"/>
      <point x="10" y="742" type="line"/>
      <point x="82" y="680" type="line"/>
      <point x="82" y="673" type="line"/>
    </contour>
  </outline>
</glyph>
<glyph name="II_vwl" format="2">
  <unicode hex="11C31"/>
  <anchor x="-195" y="620" name="_II"/>
  <outline>
    <contour>
      <point x="-190" y="620" type="line"/>
      <point x="292" y="620" type="line"/>
      <point x="292" y="652" type="line"/>
      <point x="229" y="754"/>
      <point x="141" y="844"/>
      <point x="33" y="942" type="curve"/>
      <point x="11" y="942" type="line"/>
      <point x="-208" y="774" type="line"/>
      <point x="-190" y="753" type="line"/>
      <point x="2" y="882" type="line"/>
      <point x="94" y="799"/>
      <point x="163" y="728"/>
      <point x="209" y="660" type="curve"/>
      <point x="189" y="660" type="line"/>
      <point x="10" y="809" type="line"/>
      <point x="-10" y="809" type="line"/>
      <point x="-190" y="643" type="line"/>
    </contour>
    <contour>
      <point x="-76" y="673" type="line"/>
      <point x="-76" y="680" type="line"/>
      <point x="-3" y="742" type="line"/>
      <point x="5" y="742" type="line"/>
      <point x="77" y="680" type="line"/>
      <point x="77" y="673" type="line"/>
    </contour>
  </outline>
</glyph>
<glyph name="U_vwl" format="2">
  <unicode hex="11C32"/>
  <anchor x="-90" y="0" name="_UU"/>
  <outline>
    <contour>
      <point x="-152" y="-220" type="curve"/>
      <point x="-133" y="-220" type="line"/>
      <point x="-100" y="-206"/>
      <point x="-50" y="-99"/>
      <point x="-50" y="-40" type="curve" smooth="yes"/>
      <point x="-50" y="-26"/>
      <point x="-50" y="-9"/>
      <point x="-51" y="5" type="curve"/>
      <point x="-129" y="-3" type="line"/>
      <point x="-129" y="-11"/>
      <point x="-128" y="-24"/>
      <point x="-128" y="-29" type="curve" smooth="yes"/>
      <point x="-128" y="-81"/>
      <point x="-140" y="-119"/>
      <point x="-157" y="-138" type="curve"/>
      <point x="-195" y="-113"/>
      <point x="-252" y="-89"/>
      <point x="-295" y="-89" type="curve" smooth="yes"/>
      <point x="-348" y="-89"/>
      <point x="-415" y="-138"/>
      <point x="-478" y="-195" type="curve"/>
      <point x="-465" y="-214" type="line"/>
      <point x="-389" y="-164"/>
      <point x="-337" y="-161"/>
      <point x="-307" y="-161" type="curve" smooth="yes"/>
      <point x="-256" y="-161"/>
      <point x="-204" y="-196"/>
    </contour>
  </outline>
</glyph>
<glyph name="VocR" format="2">
  <unicode hex="11C34"/>
  <anchor x="-230" y="-220" name="UU_Alt"/>
  <anchor x="-75" y="0" name="_VocR"/>
  <outline>
    <contour>
      <point x="-225" y="-220" type="curve" smooth="yes"/>
      <point x="-117" y="-220"/>
      <point x="-30" y="-106"/>
      <point x="-30" y="-59" type="curve" smooth="yes"/>
      <point x="-30" y="-37"/>
      <point x="-33" y="-6"/>
      <point x="-36" y="14" type="curve"/>
      <point x="-115" y="0" type="line"/>
      <point x="-111" y="-21"/>
      <point x="-108" y="-51"/>
      <point x="-108" y="-62" type="curve" smooth="yes"/>
      <point x="-108" y="-112"/>
      <point x="-156" y="-155"/>
      <point x="-224" y="-155" type="curve" smooth="yes"/>
      <point x="-320" y="-155"/>
      <point x="-381" y="-52"/>
      <point x="-381" y="53" type="curve" smooth="yes"/>
      <point x="-381" y="84"/>
      <point x="-379" y="108"/>
      <point x="-366" y="143" type="curve"/>
      <point x="-391" y="153"/>
      <point x="-421" y="167"/>
      <point x="-440" y="184" type="curve"/>
      <point x="-450" y="149"/>
      <point x="-455" y="107"/>
      <point x="-455" y="71" type="curve" smooth="yes"/>
      <point x="-455" y="-63"/>
      <point x="-379" y="-220"/>
    </contour>
  </outline>
</glyph>
<glyph name="VocRR" format="2">
  <unicode hex="11C35"/>
  <anchor x="-315" y="-260" name="UU_Alt"/>
  <anchor x="-75" y="0" name="_VocR"/>
  <outline>
    <contour>
      <point x="-319" y="-270" type="curve" smooth="yes"/>
      <point x="-215" y="-270"/>
      <point x="-144" y="-192"/>
      <point x="-121" y="-137" type="curve"/>
      <point x="-69" y="-102"/>
      <point x="-30" y="-49"/>
      <point x="-30" y="-24" type="curve" smooth="yes"/>
      <point x="-30" y="-12"/>
      <point x="-31" y="3"/>
      <point x="-33" y="16" type="curve"/>
      <point x="-110" y="2" type="line"/>
      <point x="-108" y="-3"/>
      <point x="-107" y="-13"/>
      <point x="-107" y="-19" type="curve" smooth="yes"/>
      <point x="-107" y="-65"/>
      <point x="-161" y="-104"/>
      <point x="-202" y="-104" type="curve" smooth="yes"/>
      <point x="-277" y="-104"/>
      <point x="-364" y="-65"/>
      <point x="-364" y="29" type="curve" smooth="yes"/>
      <point x="-364" y="43"/>
      <point x="-362" y="59"/>
      <point x="-358" y="75" type="curve"/>
      <point x="-383" y="77"/>
      <point x="-407" y="83"/>
      <point x="-430" y="96" type="curve"/>
      <point x="-434" y="76"/>
      <point x="-436" y="57"/>
      <point x="-436" y="39" type="curve" smooth="yes"/>
      <point x="-436" y="-91"/>
      <point x="-346" y="-168"/>
      <point x="-217" y="-169" type="curve"/>
      <point x="-238" y="-190"/>
      <point x="-273" y="-205"/>
      <point x="-318" y="-205" type="curve" smooth="yes"/>
      <point x="-431" y="-205"/>
      <point x="-512" y="-103"/>
      <point x="-512" y="55" type="curve" smooth="yes"/>
      <point x="-512" y="87"/>
      <point x="-510" y="118"/>
      <point x="-494" y="154" type="curve"/>
      <point x="-524" y="164"/>
      <point x="-550" y="178"/>
      <point x="-572" y="196" type="curve"/>
      <point x="-584" y="160"/>
      <point x="-590" y="111"/>
      <point x="-590" y="74" type="curve" smooth="yes"/>
      <point x="-590" y="-114"/>
      <point x="-500" y="-270"/>
    </contour>
  </outline>
</glyph>
<glyph name="VocL" format="2">
  <unicode hex="11C36"/>
  <anchor x="-220" y="0" name="_VocL"/>
  <outline>
    <contour>
      <point x="-249" y="-353" type="curve" smooth="yes"/>
      <point x="-177" y="-353"/>
      <point x="-122" y="-310"/>
      <point x="-96" y="-288" type="curve"/>
      <point x="-108" y="-266" type="line"/>
      <point x="-148" y="-280"/>
      <point x="-189" y="-291"/>
      <point x="-238" y="-291" type="curve" smooth="yes"/>
      <point x="-303" y="-291"/>
      <point x="-338" y="-254"/>
      <point x="-338" y="-236" type="curve" smooth="yes"/>
      <point x="-338" y="-218"/>
      <point x="-289" y="-190"/>
      <point x="-252" y="-190" type="curve" smooth="yes"/>
      <point x="-210" y="-190"/>
      <point x="-177" y="-204"/>
      <point x="-141" y="-217" type="curve"/>
      <point x="-132" y="-222" type="line"/>
      <point x="-114" y="-216"/>
      <point x="-72" y="-186"/>
      <point x="-66" y="-169" type="curve"/>
      <point x="-67" y="-154"/>
      <point x="-134" y="-39"/>
      <point x="-205" y="0" type="curve"/>
      <point x="-223" y="0" type="line"/>
      <point x="-283" y="-10"/>
      <point x="-395" y="-77"/>
      <point x="-427" y="-112" type="curve"/>
      <point x="-402" y="-125"/>
      <point x="-381" y="-137"/>
      <point x="-364" y="-150" type="curve"/>
      <point x="-339" y="-118"/>
      <point x="-280" y="-70"/>
      <point x="-227" y="-57" type="curve"/>
      <point x="-203" y="-63"/>
      <point x="-153" y="-118"/>
      <point x="-140" y="-156" type="curve"/>
      <point x="-167" y="-149"/>
      <point x="-212" y="-134"/>
      <point x="-235" y="-134" type="curve" smooth="yes"/>
      <point x="-303" y="-134"/>
      <point x="-419" y="-221"/>
      <point x="-419" y="-249" type="curve" smooth="yes"/>
      <point x="-419" y="-303"/>
      <point x="-337" y="-353"/>
    </contour>
  </outline>
</glyph>
<glyph name="Visarga" format="2">
  <advance width="416"/>
  <unicode hex="11C3E"/>
  <outline>
    <contour>
      <point x="146" y="299" type="curve" smooth="yes"/>
      <point x="221" y="299"/>
      <point x="316" y="391"/>
      <point x="316" y="446" type="curve" smooth="yes"/>
      <point x="316" y="507"/>
      <point x="262" y="560"/>
      <point x="196" y="560" type="curve" smooth="yes"/>
      <point x="133" y="560"/>
      <point x="20" y="470"/>
      <point x="20" y="406" type="curve" smooth="yes"/>
      <point x="20" y="338"/>
      <point x="93" y="299"/>
    </contour>
    <contour>
      <point x="146" y="-10" type="curve" smooth="yes"/>
      <point x="221" y="-10"/>
      <point x="316" y="82"/>
      <point x="316" y="137" type="curve" smooth="yes"/>
      <point x="316" y="198"/>
      <point x="262" y="251"/>
      <point x="196" y="251" type="curve" smooth="yes"/>
      <point x="133" y="251"/>
      <point x="20" y="161"/>
      <point x="20" y="97" type="curve" smooth="yes"/>
      <point x="20" y="29"/>
      <point x="93" y="-10"/>
    </contour>
    <contour>
      <point x="156" y="55" type="curve" smooth="yes"/>
      <point x="118" y="55"/>
      <point x="89" y="73"/>
      <point x="89" y="101" type="curve" smooth="yes"/>
      <point x="89" y="134"/>
      <point x="153" y="186"/>
      <point x="186" y="186" type="curve" smooth="yes"/>
      <point x="223" y="186"/>
      <point x="246" y="151"/>
      <point x="246" y="130" type="curve" smooth="yes"/>
      <point x="246" y="107"/>
      <point x="200" y="55"/>
    </contour>
    <contour>
      <point x="156" y="364" type="curve" smooth="yes"/>
      <point x="118" y="364"/>
      <point x="89" y="382"/>
      <point x="89" y="410" type="curve" smooth="yes"/>
      <point x="89" y="443"/>
      <point x="153" y="495"/>
      <point x="186" y="495" type="curve" smooth="yes"/>
      <point x="223" y="495"/>
      <point x="246" y="460"/>
      <point x="246" y="439" type="curve" smooth="yes"/>
      <point x="246" y="416"/>
      <point x="200" y="364"/>
    </contour>
  </outline>
</glyph>
<glyph name="Virama" format="2">
  <unicode hex="11C3F"/>
  <anchor x="-245" y="0" name="_Virama"/>
  <outline>
    <contour>
      <point x="-165" y="-244" type="curve"/>
      <point x="-70" y="-244" type="line"/>
      <point x="-122" y="-168"/>
      <point x="-167" y="-113"/>
      <point x="-238" y="-50" type="curve"/>
      <point x="-258" y="-50" type="line"/>
      <point x="-328" y="-62"/>
      <point x="-398" y="-77"/>
      <point x="-468" y="-97" type="curve"/>
      <point x="-462" y="-135" type="line"/>
      <point x="-400" y="-126"/>
      <point x="-340" y="-122"/>
      <point x="-280" y="-121" type="curve"/>
      <point x="-226" y="-163"/>
      <point x="-202" y="-197"/>
    </contour>
  </outline>
</glyph>
<glyph name="Avagraha" format="2">
  <advance width="418"/>
  <unicode hex="11C40"/>
  <outline>
    <contour>
      <point x="95" y="-18" type="line"/>
      <point x="192" y="59"/>
      <point x="275" y="167"/>
      <point x="275" y="229" type="curve" smooth="yes"/>
      <point x="275" y="308"/>
      <point x="137" y="362"/>
      <point x="137" y="387" type="curve" smooth="yes"/>
      <point x="137" y="409"/>
      <point x="193" y="466"/>
      <point x="246" y="491" type="curve"/>
      <point x="256" y="477"/>
      <point x="271" y="459"/>
      <point x="271" y="453" type="curve" smooth="yes"/>
      <point x="271" y="434"/>
      <point x="246" y="420"/>
      <point x="224" y="403" type="curve"/>
      <point x="301" y="346" type="line"/>
      <point x="347" y="383"/>
      <point x="368" y="409"/>
      <point x="368" y="439" type="curve" smooth="yes"/>
      <point x="368" y="466"/>
      <point x="322" y="514"/>
      <point x="274" y="560" type="curve"/>
      <point x="253" y="560" type="line"/>
      <point x="212" y="546"/>
      <point x="50" y="421"/>
      <point x="50" y="371" type="curve" smooth="yes"/>
      <point x="50" y="315"/>
      <point x="193" y="280"/>
      <point x="193" y="217" type="curve" smooth="yes"/>
      <point x="193" y="145"/>
      <point x="126" y="55"/>
      <point x="69" y="4" type="curve"/>
    </contour>
  </outline>
</glyph>
<glyph name="Danda" format="2">
  <advance width="261"/>
  <unicode hex="11C41"/>
  <outline>
    <contour>
      <point x="92" y="-10" type="curve"/>
      <point x="116" y="-6"/>
      <point x="147" y="8"/>
      <point x="175" y="9" type="curve"/>
      <point x="177" y="51"/>
      <point x="181" y="137"/>
      <point x="181" y="176" type="curve" smooth="yes"/>
      <point x="181" y="340"/>
      <point x="168" y="441"/>
      <point x="143" y="560" type="curve"/>
      <point x="115" y="548"/>
      <point x="91" y="542"/>
      <point x="60" y="538" type="curve"/>
      <point x="82" y="471"/>
      <point x="99" y="327"/>
      <point x="99" y="176" type="curve" smooth="yes"/>
      <point x="99" y="129"/>
      <point x="95" y="41"/>
    </contour>
  </outline>
</glyph>
<glyph name="DblDanda" format="2">
  <advance width="424"/>
  <unicode hex="11C42"/>
  <outline>
    <contour>
      <point x="255" y="-10" type="curve"/>
      <point x="279" y="-6"/>
      <point x="310" y="8"/>
      <point x="338" y="9" type="curve"/>
      <point x="340" y="51"/>
      <point x="344" y="137"/>
      <point x="344" y="176" type="curve" smooth="yes"/>
      <point x="344" y="340"/>
      <point x="331" y="441"/>
      <point x="306" y="560" type="curve"/>
      <point x="278" y="548"/>
      <point x="254" y="542"/>
      <point x="223" y="538" type="curve"/>
      <point x="245" y="471"/>
      <point x="262" y="327"/>
      <point x="262" y="176" type="curve" smooth="yes"/>
      <point x="262" y="129"/>
      <point x="258" y="41"/>
    </contour>
    <contour>
      <point x="92" y="-10" type="curve"/>
      <point x="116" y="-6"/>
      <point x="147" y="8"/>
      <point x="175" y="9" type="curve"/>
      <point x="177" y="51"/>
      <point x="181" y="137"/>
      <point x="181" y="176" type="curve" smooth="yes"/>
      <point x="181" y="340"/>
      <point x="168" y="441"/>
      <point x="143" y="560" type="curve"/>
      <point x="115" y="548"/>
      <point x="91" y="542"/>
      <point x="60" y="538" type="curve"/>
      <point x="82" y="471"/>
      <point x="99" y="327"/>
      <point x="99" y="176" type="curve" smooth="yes"/>
      <point x="99" y="129"/>
      <point x="95" y="41"/>
    </contour>
  </outline>
</glyph>
<glyph name="WordSep" format="2">
  <advance width="244"/>
  <unicode hex="11C43"/>
  <outline>
    <contour>
      <point x="82" y="283" type="curve"/>
      <point x="110" y="295"/>
      <point x="133" y="301"/>
      <point x="164" y="305" type="curve"/>
      <point x="164" y="413"/>
      <point x="155" y="489"/>
      <point x="144" y="570" type="curve"/>
      <point x="111" y="552"/>
      <point x="85" y="540"/>
      <point x="60" y="533" type="curve"/>
      <point x="68" y="467"/>
      <point x="79" y="397"/>
    </contour>
  </outline>
</glyph>
<glyph name="GapFiller_1" format="2">
  <advance width="412"/>
  <unicode hex="11C44"/>
  <outline>
    <contour>
      <point x="281" y="389" type="curve" smooth="yes"/>
      <point x="304" y="389"/>
      <point x="337" y="411"/>
      <point x="362" y="432" type="curve"/>
      <point x="362" y="452" type="line"/>
      <point x="278" y="473"/>
      <point x="192" y="507"/>
      <point x="124" y="560" type="curve"/>
      <point x="99" y="560" type="line"/>
      <point x="83" y="540"/>
      <point x="50" y="510"/>
      <point x="50" y="498" type="curve" smooth="yes"/>
      <point x="50" y="474"/>
      <point x="218" y="389"/>
    </contour>
    <contour>
      <point x="261" y="-10" type="curve" smooth="yes"/>
      <point x="284" y="-10"/>
      <point x="317" y="12"/>
      <point x="342" y="33" type="curve"/>
      <point x="342" y="53" type="line"/>
      <point x="275" y="66"/>
      <point x="203" y="91"/>
      <point x="135" y="144" type="curve"/>
      <point x="110" y="144" type="line"/>
      <point x="94" y="124"/>
      <point x="61" y="94"/>
      <point x="61" y="82" type="curve" smooth="yes"/>
      <point x="61" y="58"/>
      <point x="198" y="-10"/>
    </contour>
    <contour>
      <point x="270" y="190" type="curve" smooth="yes"/>
      <point x="293" y="190"/>
      <point x="326" y="212"/>
      <point x="351" y="233" type="curve"/>
      <point x="351" y="253" type="line"/>
      <point x="284" y="266"/>
      <point x="197" y="291"/>
      <point x="129" y="344" type="curve"/>
      <point x="104" y="344" type="line"/>
      <point x="88" y="324"/>
      <point x="55" y="294"/>
      <point x="55" y="282" type="curve" smooth="yes"/>
      <point x="55" y="258"/>
      <point x="207" y="190"/>
    </contour>
  </outline>
</glyph>
<glyph name="GapFiller_2" format="2">
  <advance width="482"/>
  <unicode hex="11C45"/>
  <outline>
    <contour>
      <point x="371" y="355" type="curve"/>
      <point x="389" y="395"/>
      <point x="411" y="419"/>
      <point x="432" y="440" type="curve"/>
      <point x="380" y="504"/>
      <point x="308" y="547"/>
      <point x="262" y="560" type="curve"/>
      <point x="246" y="560" type="line"/>
      <point x="181" y="531"/>
      <point x="115" y="489"/>
      <point x="58" y="433" type="curve"/>
      <point x="74" y="419"/>
      <point x="98" y="399"/>
      <point x="111" y="382" type="curve"/>
      <point x="131" y="417"/>
      <point x="177" y="463"/>
      <point x="249" y="496" type="curve"/>
      <point x="286" y="490"/>
      <point x="329" y="436"/>
    </contour>
    <contour>
      <point x="220" y="-10" type="curve"/>
      <point x="236" y="-10" type="line"/>
      <point x="301" y="19"/>
      <point x="367" y="61"/>
      <point x="424" y="117" type="curve"/>
      <point x="408" y="131"/>
      <point x="384" y="151"/>
      <point x="371" y="168" type="curve"/>
      <point x="351" y="133"/>
      <point x="305" y="87"/>
      <point x="233" y="54" type="curve"/>
      <point x="196" y="60"/>
      <point x="153" y="114"/>
      <point x="111" y="195" type="curve"/>
      <point x="93" y="155"/>
      <point x="71" y="131"/>
      <point x="50" y="110" type="curve"/>
      <point x="102" y="46"/>
      <point x="174" y="3"/>
    </contour>
    <contour>
      <point x="166" y="241" type="curve"/>
      <point x="197" y="252"/>
      <point x="238" y="256"/>
      <point x="274" y="256" type="curve" smooth="yes"/>
      <point x="289" y="256"/>
      <point x="305" y="253"/>
      <point x="320" y="252" type="curve"/>
      <point x="322" y="267"/>
      <point x="325" y="275"/>
      <point x="325" y="290" type="curve" smooth="yes"/>
      <point x="325" y="301"/>
      <point x="324" y="313"/>
      <point x="321" y="324" type="curve"/>
      <point x="307" y="326"/>
      <point x="292" y="326"/>
      <point x="275" y="326" type="curve" smooth="yes"/>
      <point x="239" y="326"/>
      <point x="198" y="323"/>
      <point x="166" y="319" type="curve"/>
      <point x="168" y="305"/>
      <point x="169" y="292"/>
      <point x="169" y="279" type="curve" smooth="yes"/>
      <point x="169" y="266"/>
      <point x="168" y="253"/>
    </contour>
  </outline>
</glyph>
<glyph name="u11C50" format="2">
  <advance width="525"/>
  <unicode hex="11C50"/>
  <outline>
    <contour>
      <point x="297" y="100" type="curve" smooth="yes"/>
      <point x="405" y="100"/>
      <point x="475" y="187"/>
      <point x="475" y="295" type="curve" smooth="yes"/>
      <point x="475" y="363"/>
      <point x="330" y="515"/>
      <point x="211" y="515" type="curve" smooth="yes"/>
      <point x="91" y="515"/>
      <point x="50" y="429"/>
      <point x="50" y="355" type="curve" smooth="yes"/>
      <point x="50" y="274"/>
      <point x="185" y="100"/>
    </contour>
    <contour>
      <point x="288" y="170" type="curve" smooth="yes"/>
      <point x="225" y="170"/>
      <point x="132" y="284"/>
      <point x="132" y="354" type="curve" smooth="yes"/>
      <point x="132" y="400"/>
      <point x="164" y="455"/>
      <point x="226" y="455" type="curve" smooth="yes"/>
      <point x="280" y="455"/>
      <point x="393" y="368"/>
      <point x="393" y="296" type="curve" smooth="yes"/>
      <point x="393" y="253"/>
      <point x="355" y="170"/>
    </contour>
  </outline>
</glyph>
<glyph name="u11C51" format="2">
  <advance width="452"/>
  <unicode hex="11C51"/>
  <outline>
    <contour>
      <point x="345" y="-16" type="line"/>
      <point x="352" y="32"/>
      <point x="352" y="77"/>
      <point x="352" y="117" type="curve" smooth="yes"/>
      <point x="352" y="256"/>
      <point x="277" y="423"/>
      <point x="75" y="560" type="curve"/>
      <point x="57" y="538"/>
      <point x="31" y="515"/>
      <point x="0" y="493" type="curve"/>
      <point x="174" y="398"/>
      <point x="270" y="261"/>
      <point x="270" y="110" type="curve" smooth="yes"/>
      <point x="270" y="86"/>
      <point x="270" y="28"/>
      <point x="262" y="-4" type="curve"/>
    </contour>
  </outline>
</glyph>
<glyph name="u11C52" format="2">
  <advance width="436"/>
  <unicode hex="11C52"/>
  <outline>
    <contour>
      <point x="392" y="-13" type="curve"/>
      <point x="416" y="32" type="line"/>
      <point x="308" y="83"/>
      <point x="198" y="180"/>
      <point x="144" y="252" type="curve"/>
      <point x="227" y="294"/>
      <point x="290" y="383"/>
      <point x="290" y="467" type="curve" smooth="yes"/>
      <point x="290" y="495"/>
      <point x="284" y="526"/>
      <point x="272" y="560" type="curve"/>
      <point x="247" y="539"/>
      <point x="218" y="521"/>
      <point x="191" y="511" type="curve"/>
      <point x="193" y="497"/>
      <point x="201" y="484"/>
      <point x="201" y="459" type="curve" smooth="yes"/>
      <point x="201" y="368"/>
      <point x="126" y="277"/>
      <point x="50" y="252" type="curve"/>
      <point x="50" y="219" type="line"/>
      <point x="105" y="142"/>
      <point x="261" y="38"/>
    </contour>
  </outline>
</glyph>
<glyph name="u11C53" format="2">
  <advance width="449"/>
  <unicode hex="11C53"/>
  <outline>
    <contour>
      <point x="574" y="-220" type="curve"/>
      <point x="599" y="-185" type="line"/>
      <point x="522" y="-72"/>
      <point x="371" y="5"/>
      <point x="311" y="96" type="curve"/>
      <point x="344" y="125"/>
      <point x="366" y="143"/>
      <point x="366" y="197" type="curve" smooth="yes"/>
      <point x="366" y="239"/>
      <point x="327" y="308"/>
      <point x="238" y="318" type="curve"/>
      <point x="283" y="359"/>
      <point x="292" y="397"/>
      <point x="292" y="428" type="curve" smooth="yes"/>
      <point x="292" y="490"/>
      <point x="235" y="560"/>
      <point x="138" y="560" type="curve" smooth="yes"/>
      <point x="89" y="560"/>
      <point x="43" y="544"/>
      <point x="0" y="502" type="curve"/>
      <point x="29" y="486"/>
      <point x="53" y="466"/>
      <point x="64" y="440" type="curve"/>
      <point x="75" y="468"/>
      <point x="112" y="490"/>
      <point x="148" y="490" type="curve" smooth="yes"/>
      <point x="183" y="490"/>
      <point x="221" y="463"/>
      <point x="221" y="425" type="curve" smooth="yes"/>
      <point x="221" y="363"/>
      <point x="184" y="328"/>
      <point x="123" y="316" type="curve"/>
      <point x="140" y="299"/>
      <point x="150" y="281"/>
      <point x="156" y="262" type="curve"/>
      <point x="182" y="272"/>
      <point x="190" y="273"/>
      <point x="197" y="273" type="curve" smooth="yes"/>
      <point x="262" y="273"/>
      <point x="284" y="240"/>
      <point x="284" y="203" type="curve" smooth="yes"/>
      <point x="284" y="146"/>
      <point x="242" y="125"/>
      <point x="201" y="117" type="curve"/>
      <point x="201" y="93" type="line"/>
      <point x="275" y="18"/>
      <point x="469" y="-94"/>
    </contour>
  </outline>
</glyph>
<glyph name="u11C54" format="2">
  <advance width="420"/>
  <unicode hex="11C54"/>
  <outline>
    <contour>
      <point x="199" y="-17" type="line"/>
      <point x="240" y="36"/>
      <point x="300" y="121"/>
      <point x="300" y="176" type="curve" smooth="yes"/>
      <point x="300" y="255"/>
      <point x="132" y="326"/>
      <point x="132" y="430" type="curve" smooth="yes"/>
      <point x="132" y="464"/>
      <point x="160" y="488"/>
      <point x="195" y="488" type="curve" smooth="yes"/>
      <point x="227" y="488"/>
      <point x="258" y="461"/>
      <point x="258" y="434" type="curve" smooth="yes"/>
      <point x="258" y="403"/>
      <point x="228" y="388"/>
      <point x="211" y="372" type="curve"/>
      <point x="237" y="355"/>
      <point x="255" y="335"/>
      <point x="273" y="315" type="curve"/>
      <point x="310" y="347"/>
      <point x="340" y="394"/>
      <point x="340" y="436" type="curve" smooth="yes"/>
      <point x="340" y="511"/>
      <point x="284" y="560"/>
      <point x="219" y="560" type="curve" smooth="yes"/>
      <point x="141" y="560"/>
      <point x="50" y="458"/>
      <point x="50" y="410" type="curve" smooth="yes"/>
      <point x="50" y="302"/>
      <point x="218" y="227"/>
      <point x="218" y="148" type="curve" smooth="yes"/>
      <point x="218" y="83"/>
      <point x="198" y="37"/>
      <point x="173" y="-2" type="curve"/>
    </contour>
  </outline>
</glyph>
<glyph name="u11C55" format="2">
  <advance width="623"/>
  <unicode hex="11C55"/>
  <outline>
    <contour>
      <point x="657" y="-16" type="curve"/>
      <point x="658" y="13"/>
      <point x="664" y="41"/>
      <point x="673" y="68" type="curve"/>
      <point x="571" y="104"/>
      <point x="375" y="218"/>
      <point x="371" y="560" type="curve"/>
      <point x="353" y="560" type="line"/>
      <point x="225" y="497"/>
      <point x="50" y="235"/>
      <point x="50" y="204" type="curve" smooth="yes"/>
      <point x="50" y="169"/>
      <point x="128" y="145"/>
      <point x="128" y="111" type="curve" smooth="yes"/>
      <point x="128" y="81"/>
      <point x="86" y="48"/>
      <point x="61" y="41" type="curve"/>
      <point x="73" y="24"/>
      <point x="81" y="7"/>
      <point x="87" y="-10" type="curve"/>
      <point x="135" y="8"/>
      <point x="210" y="60"/>
      <point x="210" y="112" type="curve" smooth="yes"/>
      <point x="210" y="182"/>
      <point x="129" y="214"/>
      <point x="126" y="229" type="curve"/>
      <point x="126" y="260"/>
      <point x="260" y="438"/>
      <point x="326" y="483" type="curve"/>
      <point x="335" y="212"/>
      <point x="475" y="42"/>
    </contour>
  </outline>
</glyph>
<glyph name="u11C56" format="2">
  <advance width="470"/>
  <unicode hex="11C56"/>
  <outline>
    <contour>
      <point x="186" y="-10" type="curve" smooth="yes"/>
      <point x="290" y="-10"/>
      <point x="388" y="125"/>
      <point x="388" y="161" type="curve" smooth="yes"/>
      <point x="388" y="243"/>
      <point x="222" y="299"/>
      <point x="222" y="375" type="curve" smooth="yes"/>
      <point x="222" y="401"/>
      <point x="318" y="459"/>
      <point x="410" y="500" type="curve"/>
      <point x="389" y="521"/>
      <point x="373" y="544"/>
      <point x="363" y="567" type="curve"/>
      <point x="166" y="442"/>
      <point x="140" y="378"/>
      <point x="140" y="359" type="curve" smooth="yes"/>
      <point x="140" y="274"/>
      <point x="306" y="211"/>
      <point x="306" y="149" type="curve" smooth="yes"/>
      <point x="306" y="106"/>
      <point x="261" y="60"/>
      <point x="194" y="60" type="curve" smooth="yes"/>
      <point x="140" y="60"/>
      <point x="73" y="70"/>
      <point x="14" y="95" type="curve"/>
      <point x="12" y="63"/>
      <point x="8" y="35"/>
      <point x="0" y="13" type="curve"/>
      <point x="57" y="-5"/>
      <point x="119" y="-10"/>
    </contour>
  </outline>
</glyph>
<glyph name="u11C57" format="2">
  <advance width="428"/>
  <unicode hex="11C57"/>
  <outline>
    <contour>
      <point x="352" y="-70" type="curve"/>
      <point x="378" y="-55" type="line"/>
      <point x="353" y="-16"/>
      <point x="333" y="61"/>
      <point x="333" y="162" type="curve" smooth="yes"/>
      <point x="333" y="241"/>
      <point x="356" y="263"/>
      <point x="356" y="392" type="curve" smooth="yes"/>
      <point x="356" y="470"/>
      <point x="265" y="560"/>
      <point x="200" y="560" type="curve" smooth="yes"/>
      <point x="137" y="560"/>
      <point x="50" y="489"/>
      <point x="50" y="414" type="curve" smooth="yes"/>
      <point x="50" y="380"/>
      <point x="79" y="307"/>
      <point x="163" y="307" type="curve" smooth="yes"/>
      <point x="184" y="307"/>
      <point x="208" y="312"/>
      <point x="236" y="323" type="curve"/>
      <point x="214" y="404" type="line"/>
      <point x="198" y="394"/>
      <point x="183" y="389"/>
      <point x="171" y="389" type="curve" smooth="yes"/>
      <point x="146" y="389"/>
      <point x="132" y="405"/>
      <point x="132" y="428" type="curve" smooth="yes"/>
      <point x="132" y="455"/>
      <point x="153" y="488"/>
      <point x="200" y="488" type="curve" smooth="yes"/>
      <point x="234" y="488"/>
      <point x="274" y="464"/>
      <point x="274" y="396" type="curve" smooth="yes"/>
      <point x="274" y="257"/>
      <point x="251" y="255"/>
      <point x="251" y="153" type="curve" smooth="yes"/>
      <point x="251" y="56"/>
      <point x="304" y="-18"/>
    </contour>
  </outline>
</glyph>
<glyph name="u11C58" format="2">
  <advance width="697"/>
  <unicode hex="11C58"/>
  <outline>
    <contour>
      <point x="285" y="37" type="curve"/>
      <point x="310" y="80" type="line"/>
      <point x="250" y="111"/>
      <point x="152" y="203"/>
      <point x="152" y="248" type="curve" smooth="yes"/>
      <point x="152" y="273"/>
      <point x="365" y="234"/>
      <point x="677" y="410" type="curve"/>
      <point x="650" y="447" type="line"/>
      <point x="470" y="340"/>
      <point x="297" y="344"/>
      <point x="183" y="333" type="curve" smooth="yes"/>
      <point x="101" y="325"/>
      <point x="50" y="309"/>
      <point x="50" y="252" type="curve" smooth="yes"/>
      <point x="50" y="184"/>
      <point x="186" y="91"/>
    </contour>
  </outline>
</glyph>
<glyph name="u11C59" format="2">
  <advance width="500"/>
  <unicode hex="11C59"/>
  <outline>
    <contour>
      <point x="241" y="-10" type="curve"/>
      <point x="259" y="14"/>
      <point x="281" y="35"/>
      <point x="304" y="54" type="curve"/>
      <point x="270" y="101"/>
      <point x="126" y="184"/>
      <point x="126" y="226" type="curve" smooth="yes"/>
      <point x="126" y="244"/>
      <point x="139" y="286"/>
      <point x="158" y="301" type="curve"/>
      <point x="187" y="259"/>
      <point x="222" y="235"/>
      <point x="270" y="235" type="curve" smooth="yes"/>
      <point x="312" y="235"/>
      <point x="450" y="308"/>
      <point x="450" y="386" type="curve" smooth="yes"/>
      <point x="450" y="488"/>
      <point x="267" y="560"/>
      <point x="114" y="564" type="curve"/>
      <point x="110" y="539"/>
      <point x="104" y="518"/>
      <point x="98" y="501" type="curve"/>
      <point x="300" y="493"/>
      <point x="368" y="412"/>
      <point x="368" y="373" type="curve" smooth="yes"/>
      <point x="368" y="333"/>
      <point x="333" y="305"/>
      <point x="274" y="305" type="curve" smooth="yes"/>
      <point x="207" y="305"/>
      <point x="201" y="394"/>
      <point x="160" y="394" type="curve" smooth="yes"/>
      <point x="114" y="394"/>
      <point x="50" y="241"/>
      <point x="50" y="197" type="curve" smooth="yes"/>
      <point x="50" y="146"/>
      <point x="194" y="52"/>
    </contour>
  </outline>
</glyph>
<glyph name="NumberOne" format="2">
  <advance width="518"/>
  <unicode hex="11C5A"/>
  <anchor x="228" y="645" name="_num_bottom"/>
  <anchor x="248" y="0" name="num_bottom"/>
  <outline>
    <contour>
      <point x="320" y="-14" type="curve"/>
      <point x="394" y="28"/>
      <point x="478" y="95"/>
      <point x="478" y="141" type="curve" smooth="yes"/>
      <point x="478" y="152"/>
      <point x="413" y="412"/>
      <point x="299" y="560" type="curve"/>
      <point x="277" y="560" type="line"/>
      <point x="221" y="532"/>
      <point x="40" y="409"/>
      <point x="40" y="352" type="curve" smooth="yes"/>
      <point x="40" y="322"/>
      <point x="61" y="296"/>
      <point x="107" y="259" type="curve"/>
      <point x="193" y="322" type="line"/>
      <point x="171" y="339"/>
      <point x="146" y="353"/>
      <point x="146" y="372" type="curve" smooth="yes"/>
      <point x="146" y="391"/>
      <point x="177" y="435"/>
      <point x="254" y="477" type="curve"/>
      <point x="293" y="450"/>
      <point x="387" y="197"/>
      <point x="387" y="155" type="curve" smooth="yes"/>
      <point x="387" y="132"/>
      <point x="318" y="98"/>
      <point x="258" y="73" type="curve"/>
      <point x="288" y="49"/>
      <point x="309" y="21"/>
    </contour>
  </outline>
</glyph>
<glyph name="NumberTwo" format="2">
  <advance width="438"/>
  <unicode hex="11C5B"/>
  <anchor x="174" y="645" name="_num_bottom"/>
  <anchor x="197" y="0" name="num_bottom"/>
  <outline>
    <contour>
      <point x="197" y="-10" type="curve"/>
      <point x="305" y="13"/>
      <point x="398" y="54"/>
      <point x="398" y="116" type="curve" smooth="yes"/>
      <point x="398" y="150"/>
      <point x="369" y="285"/>
      <point x="331" y="327" type="curve"/>
      <point x="338" y="338"/>
      <point x="342" y="349"/>
      <point x="342" y="360" type="curve" smooth="yes"/>
      <point x="342" y="403"/>
      <point x="284" y="527"/>
      <point x="234" y="560" type="curve"/>
      <point x="212" y="560" type="line"/>
      <point x="177" y="546"/>
      <point x="30" y="480"/>
      <point x="30" y="425" type="curve" smooth="yes"/>
      <point x="30" y="406"/>
      <point x="44" y="375"/>
      <point x="66" y="350" type="curve"/>
      <point x="90" y="376"/>
      <point x="117" y="395"/>
      <point x="147" y="408" type="curve"/>
      <point x="137" y="417"/>
      <point x="121" y="438"/>
      <point x="121" y="446" type="curve" smooth="yes"/>
      <point x="121" y="460"/>
      <point x="164" y="481"/>
      <point x="192" y="491" type="curve"/>
      <point x="213" y="481"/>
      <point x="250" y="394"/>
      <point x="250" y="359" type="curve" smooth="yes"/>
      <point x="250" y="322"/>
      <point x="175" y="286"/>
      <point x="114" y="258" type="curve"/>
      <point x="126" y="243"/>
      <point x="136" y="221"/>
      <point x="143" y="198" type="curve"/>
      <point x="197" y="223"/>
      <point x="240" y="248"/>
      <point x="273" y="271" type="curve"/>
      <point x="298" y="237"/>
      <point x="316" y="159"/>
      <point x="316" y="132" type="curve" smooth="yes"/>
      <point x="316" y="104"/>
      <point x="204" y="76"/>
      <point x="159" y="74" type="curve"/>
      <point x="176" y="50"/>
      <point x="188" y="22"/>
    </contour>
  </outline>
</glyph>
<glyph name="NumberThree" format="2">
  <advance width="464"/>
  <unicode hex="11C5C"/>
  <anchor x="195" y="645" name="_num_bottom"/>
  <anchor x="215" y="0" name="num_bottom"/>
  <outline>
    <contour>
      <point x="217" y="-10" type="curve"/>
      <point x="342" y="13"/>
      <point x="424" y="37"/>
      <point x="424" y="88" type="curve" smooth="yes"/>
      <point x="424" y="140"/>
      <point x="361" y="289"/>
      <point x="327" y="359" type="curve"/>
      <point x="332" y="369"/>
      <point x="335" y="378"/>
      <point x="335" y="387" type="curve" smooth="yes"/>
      <point x="335" y="430"/>
      <point x="284" y="527"/>
      <point x="234" y="560" type="curve"/>
      <point x="212" y="560" type="line"/>
      <point x="137" y="528"/>
      <point x="30" y="466"/>
      <point x="30" y="425" type="curve" smooth="yes"/>
      <point x="30" y="406"/>
      <point x="44" y="375"/>
      <point x="66" y="350" type="curve"/>
      <point x="90" y="376"/>
      <point x="117" y="395"/>
      <point x="147" y="408" type="curve"/>
      <point x="137" y="417"/>
      <point x="121" y="438"/>
      <point x="121" y="446" type="curve" smooth="yes"/>
      <point x="121" y="460"/>
      <point x="164" y="481"/>
      <point x="192" y="491" type="curve"/>
      <point x="213" y="475"/>
      <point x="243" y="417"/>
      <point x="243" y="386" type="curve" smooth="yes"/>
      <point x="243" y="349"/>
      <point x="168" y="313"/>
      <point x="107" y="285" type="curve"/>
      <point x="119" y="270"/>
      <point x="129" y="248"/>
      <point x="136" y="225" type="curve"/>
      <point x="190" y="250"/>
      <point x="233" y="275"/>
      <point x="266" y="298" type="curve"/>
      <point x="283" y="277"/>
      <point x="294" y="244"/>
      <point x="294" y="237" type="curve" smooth="yes"/>
      <point x="294" y="226"/>
      <point x="200" y="187"/>
      <point x="152" y="176" type="curve"/>
      <point x="163" y="157"/>
      <point x="171" y="136"/>
      <point x="174" y="115" type="curve"/>
      <point x="236" y="128"/>
      <point x="308" y="165"/>
      <point x="322" y="165" type="curve" smooth="yes"/>
      <point x="329" y="165"/>
      <point x="342" y="127"/>
      <point x="342" y="115" type="curve" smooth="yes"/>
      <point x="342" y="87"/>
      <point x="228" y="69"/>
      <point x="183" y="67" type="curve"/>
      <point x="199" y="44"/>
      <point x="209" y="18"/>
    </contour>
  </outline>
</glyph>
<glyph name="NumberFour" format="2">
  <advance width="610"/>
  <unicode hex="11C5D"/>
  <anchor x="278" y="645" name="_num_bottom"/>
  <anchor x="298" y="0" name="num_bottom"/>
  <outline>
    <contour>
      <point x="20" y="-41" type="line"/>
      <point x="88" y="1"/>
      <point x="181" y="38"/>
      <point x="232" y="38" type="curve" smooth="yes"/>
      <point x="262" y="38"/>
      <point x="294" y="33"/>
      <point x="346" y="9" type="curve"/>
      <point x="365" y="9" type="line"/>
      <point x="386" y="18"/>
      <point x="415" y="67"/>
      <point x="433" y="117" type="curve"/>
      <point x="469" y="81"/>
      <point x="502" y="45"/>
      <point x="526" y="14" type="curve"/>
      <point x="539" y="98" type="line"/>
      <point x="514" y="128"/>
      <point x="482" y="161"/>
      <point x="448" y="193" type="curve"/>
      <point x="448" y="250"/>
      <point x="443" y="330"/>
      <point x="436" y="388" type="curve"/>
      <point x="570" y="388" type="line"/>
      <point x="570" y="408" type="line"/>
      <point x="409" y="560" type="line"/>
      <point x="387" y="560" type="line"/>
      <point x="224" y="408" type="line"/>
      <point x="224" y="388" type="line"/>
      <point x="357" y="388" type="line"/>
      <point x="362" y="363"/>
      <point x="366" y="308"/>
      <point x="368" y="263" type="curve"/>
      <point x="319" y="303"/>
      <point x="272" y="336"/>
      <point x="240" y="355" type="curve"/>
      <point x="224" y="355" type="line"/>
      <point x="149" y="324"/>
      <point x="77" y="264"/>
      <point x="26" y="204" type="curve"/>
      <point x="49" y="181" type="line"/>
      <point x="107" y="229"/>
      <point x="165" y="261"/>
      <point x="223" y="277" type="curve"/>
      <point x="241" y="277"/>
      <point x="292" y="242"/>
      <point x="348" y="194" type="curve"/>
      <point x="319" y="203"/>
      <point x="285" y="210"/>
      <point x="254" y="210" type="curve" smooth="yes"/>
      <point x="209" y="210"/>
      <point x="175" y="199"/>
      <point x="139" y="180" type="curve"/>
      <point x="155" y="155" type="line"/>
      <point x="170" y="159"/>
      <point x="206" y="163"/>
      <point x="221" y="163" type="curve" smooth="yes"/>
      <point x="276" y="163"/>
      <point x="323" y="146"/>
      <point x="360" y="121" type="curve"/>
      <point x="355" y="104"/>
      <point x="348" y="91"/>
      <point x="341" y="83" type="curve"/>
      <point x="304" y="104"/>
      <point x="246" y="110"/>
      <point x="245" y="110" type="curve" smooth="yes"/>
      <point x="176" y="110"/>
      <point x="69" y="30"/>
      <point x="7" y="-22" type="curve"/>
    </contour>
  </outline>
</glyph>
<glyph name="NumberFive" format="2">
  <advance width="662"/>
  <unicode hex="11C5E"/>
  <anchor x="308" y="645" name="_num_bottom"/>
  <anchor x="328" y="0" name="num_bottom"/>
  <outline>
    <contour>
      <point x="423" y="-10" type="curve" smooth="yes"/>
      <point x="449" y="-10"/>
      <point x="515" y="33"/>
      <point x="546" y="55" type="curve"/>
      <point x="523" y="87" type="line"/>
      <point x="499" y="74"/>
      <point x="458" y="54"/>
      <point x="433" y="54" type="curve" smooth="yes"/>
      <point x="391" y="54"/>
      <point x="361" y="77"/>
      <point x="340" y="107" type="curve"/>
      <point x="379" y="134"/>
      <point x="538" y="205"/>
      <point x="538" y="266" type="curve" smooth="yes"/>
      <point x="538" y="296"/>
      <point x="524" y="347"/>
      <point x="510" y="388" type="curve"/>
      <point x="642" y="388" type="line"/>
      <point x="642" y="408" type="line"/>
      <point x="481" y="560" type="line"/>
      <point x="459" y="560" type="line"/>
      <point x="296" y="408" type="line"/>
      <point x="296" y="388" type="line"/>
      <point x="432" y="388" type="line"/>
      <point x="443" y="353"/>
      <point x="456" y="310"/>
      <point x="456" y="291" type="curve" smooth="yes"/>
      <point x="456" y="280"/>
      <point x="443" y="270"/>
      <point x="429" y="269" type="curve"/>
      <point x="384" y="300"/>
      <point x="317" y="327"/>
      <point x="265" y="327" type="curve" smooth="yes"/>
      <point x="203" y="327"/>
      <point x="73" y="235"/>
      <point x="10" y="178" type="curve"/>
      <point x="23" y="159" type="line"/>
      <point x="99" y="209"/>
      <point x="190" y="255"/>
      <point x="255" y="255" type="curve" smooth="yes"/>
      <point x="299" y="255"/>
      <point x="352" y="227"/>
      <point x="398" y="203" type="curve"/>
      <point x="356" y="168"/>
      <point x="286" y="130"/>
      <point x="216" y="102" type="curve"/>
      <point x="229" y="66" type="line"/>
      <point x="241" y="69"/>
      <point x="253" y="72"/>
      <point x="264" y="76" type="curve"/>
      <point x="295" y="23"/>
      <point x="346" y="-10"/>
    </contour>
  </outline>
</glyph>
<glyph name="NumberSix" format="2">
  <advance width="777"/>
  <unicode hex="11C5F"/>
  <anchor x="360" y="645" name="_num_bottom"/>
  <anchor x="360" y="0" name="num_bottom"/>
  <outline>
    <contour>
      <point x="23" y="-20" type="line"/>
      <point x="99" y="30"/>
      <point x="190" y="76"/>
      <point x="255" y="76" type="curve" smooth="yes"/>
      <point x="316" y="76"/>
      <point x="393" y="24"/>
      <point x="445" y="0" type="curve"/>
      <point x="460" y="0" type="line"/>
      <point x="503" y="35"/>
      <point x="538" y="58"/>
      <point x="538" y="87" type="curve" smooth="yes"/>
      <point x="538" y="120"/>
      <point x="522" y="177"/>
      <point x="507" y="219" type="curve"/>
      <point x="742" y="219" type="line"/>
      <point x="742" y="251" type="line"/>
      <point x="679" y="353"/>
      <point x="591" y="443"/>
      <point x="483" y="541" type="curve"/>
      <point x="461" y="541" type="line"/>
      <point x="223" y="367" type="line"/>
      <point x="245" y="342" type="line"/>
      <point x="452" y="481" type="line"/>
      <point x="544" y="398"/>
      <point x="613" y="327"/>
      <point x="659" y="259" type="curve"/>
      <point x="639" y="259" type="line"/>
      <point x="460" y="408" type="line"/>
      <point x="440" y="408" type="line"/>
      <point x="260" y="242" type="line"/>
      <point x="260" y="219" type="line"/>
      <point x="429" y="219" type="line"/>
      <point x="441" y="183"/>
      <point x="456" y="133"/>
      <point x="456" y="112" type="curve" smooth="yes"/>
      <point x="456" y="101"/>
      <point x="443" y="91"/>
      <point x="429" y="90" type="curve"/>
      <point x="384" y="121"/>
      <point x="317" y="148"/>
      <point x="265" y="148" type="curve" smooth="yes"/>
      <point x="203" y="148"/>
      <point x="73" y="56"/>
      <point x="10" y="-1" type="curve"/>
    </contour>
    <contour>
      <point x="374" y="272" type="line"/>
      <point x="374" y="279" type="line"/>
      <point x="447" y="341" type="line"/>
      <point x="455" y="341" type="line"/>
      <point x="527" y="279" type="line"/>
      <point x="527" y="272" type="line"/>
    </contour>
  </outline>
</glyph>
<glyph name="NumberSeven" format="2">
  <advance width="946"/>
  <unicode hex="11C60"/>
  <anchor x="438" y="645" name="_num_bottom"/>
  <anchor x="458" y="0" name="num_bottom"/>
  <outline>
    <contour>
      <point x="23" y="-20" type="line"/>
      <point x="99" y="30"/>
      <point x="252" y="124"/>
      <point x="317" y="124" type="curve" smooth="yes"/>
      <point x="378" y="124"/>
      <point x="466" y="83"/>
      <point x="518" y="59" type="curve"/>
      <point x="533" y="59" type="line"/>
      <point x="597" y="103"/>
      <point x="639" y="185"/>
      <point x="639" y="233" type="curve" smooth="yes"/>
      <point x="639" y="251"/>
      <point x="636" y="291"/>
      <point x="626" y="340" type="curve"/>
      <point x="926" y="340" type="line"/>
      <point x="926" y="360" type="line"/>
      <point x="765" y="512" type="line"/>
      <point x="743" y="512" type="line"/>
      <point x="613" y="391" type="line"/>
      <point x="598" y="446"/>
      <point x="575" y="507"/>
      <point x="539" y="560" type="curve"/>
      <point x="517" y="560" type="line"/>
      <point x="461" y="532"/>
      <point x="329" y="458"/>
      <point x="329" y="401" type="curve" smooth="yes"/>
      <point x="329" y="371"/>
      <point x="350" y="345"/>
      <point x="396" y="308" type="curve"/>
      <point x="482" y="371" type="line"/>
      <point x="460" y="388"/>
      <point x="435" y="402"/>
      <point x="435" y="421" type="curve" smooth="yes"/>
      <point x="435" y="440"/>
      <point x="457" y="458"/>
      <point x="494" y="477" type="curve"/>
      <point x="525" y="433"/>
      <point x="557" y="289"/>
      <point x="557" y="247" type="curve" smooth="yes"/>
      <point x="557" y="196"/>
      <point x="546" y="164"/>
      <point x="509" y="147" type="curve"/>
      <point x="455" y="172"/>
      <point x="379" y="196"/>
      <point x="327" y="196" type="curve" smooth="yes"/>
      <point x="265" y="196"/>
      <point x="73" y="56"/>
      <point x="10" y="-1" type="curve"/>
    </contour>
  </outline>
</glyph>
<glyph name="NumberEight" format="2">
  <advance width="1026"/>
  <unicode hex="11C61"/>
  <anchor x="520" y="645" name="_num_bottom"/>
  <anchor x="520" y="0" name="num_bottom"/>
  <outline>
    <contour>
      <point x="33" y="-20" type="line"/>
      <point x="79" y="60"/>
      <point x="162" y="174"/>
      <point x="227" y="174" type="curve" smooth="yes"/>
      <point x="288" y="174"/>
      <point x="376" y="83"/>
      <point x="428" y="59" type="curve"/>
      <point x="443" y="59" type="line"/>
      <point x="507" y="103"/>
      <point x="549" y="146"/>
      <point x="549" y="213" type="curve" smooth="yes"/>
      <point x="549" y="289"/>
      <point x="386" y="376"/>
      <point x="386" y="419" type="curve" smooth="yes"/>
      <point x="386" y="438"/>
      <point x="419" y="460"/>
      <point x="459" y="486" type="curve"/>
      <point x="477" y="474"/>
      <point x="512" y="451"/>
      <point x="536" y="395" type="curve"/>
      <point x="550" y="395" type="line"/>
      <point x="558" y="398"/>
      <point x="560" y="405"/>
      <point x="595" y="437" type="curve"/>
      <point x="574" y="477"/>
      <point x="541" y="516"/>
      <point x="496" y="560" type="curve"/>
      <point x="474" y="560" type="line"/>
      <point x="418" y="532"/>
      <point x="300" y="430"/>
      <point x="300" y="399" type="curve" smooth="yes"/>
      <point x="300" y="338"/>
      <point x="467" y="266"/>
      <point x="467" y="206" type="curve" smooth="yes"/>
      <point x="467" y="182"/>
      <point x="444" y="165"/>
      <point x="419" y="147" type="curve"/>
      <point x="365" y="172"/>
      <point x="289" y="246"/>
      <point x="237" y="246" type="curve" smooth="yes"/>
      <point x="175" y="246"/>
      <point x="47" y="89"/>
      <point x="12" y="-8" type="curve"/>
    </contour>
    <contour>
      <point x="708" y="287" type="curve"/>
      <point x="738" y="307"/>
      <point x="770" y="347"/>
      <point x="770" y="368" type="curve" smooth="yes"/>
      <point x="770" y="389"/>
      <point x="740" y="454"/>
      <point x="647" y="516" type="curve"/>
      <point x="629" y="516" type="line"/>
      <point x="579" y="490"/>
      <point x="548" y="469"/>
      <point x="517" y="445" type="curve"/>
      <point x="553" y="400" type="line"/>
      <point x="578" y="423"/>
      <point x="604" y="441"/>
      <point x="629" y="452" type="curve"/>
      <point x="658" y="430"/>
      <point x="682" y="405"/>
      <point x="682" y="395" type="curve" smooth="yes"/>
      <point x="682" y="380"/>
      <point x="664" y="353"/>
      <point x="642" y="341" type="curve"/>
      <point x="665" y="324"/>
      <point x="689" y="310"/>
    </contour>
    <contour>
      <point x="738" y="340" type="line"/>
      <point x="1006" y="340" type="line"/>
      <point x="1006" y="355" type="line"/>
      <point x="881" y="478" type="line"/>
      <point x="865" y="478" type="line"/>
      <point x="738" y="355" type="line"/>
    </contour>
  </outline>
</glyph>
<glyph name="NumberNine" format="2">
  <advance width="864"/>
  <unicode hex="11C62"/>
  <anchor x="406" y="645" name="_num_bottom"/>
  <anchor x="426" y="0" name="num_bottom"/>
  <outline>
    <contour>
      <point x="529" y="-30" type="curve" smooth="yes"/>
      <point x="694" y="-30"/>
      <point x="824" y="144"/>
      <point x="824" y="273" type="curve" smooth="yes"/>
      <point x="824" y="419"/>
      <point x="733" y="560"/>
      <point x="573" y="560" type="curve" smooth="yes"/>
      <point x="435" y="560"/>
      <point x="311" y="434"/>
      <point x="311" y="352" type="curve" smooth="yes"/>
      <point x="311" y="247"/>
      <point x="439" y="109"/>
      <point x="561" y="109" type="curve" smooth="yes"/>
      <point x="616" y="109"/>
      <point x="680" y="152"/>
      <point x="680" y="245" type="curve" smooth="yes"/>
      <point x="680" y="261"/>
      <point x="672" y="295"/>
      <point x="663" y="318" type="curve"/>
      <point x="668" y="328"/>
      <point x="670" y="337"/>
      <point x="670" y="347" type="curve" smooth="yes"/>
      <point x="670" y="374"/>
      <point x="639" y="433"/>
      <point x="601" y="459" type="curve"/>
      <point x="584" y="459" type="line"/>
      <point x="557" y="448"/>
      <point x="444" y="398"/>
      <point x="444" y="355" type="curve" smooth="yes"/>
      <point x="444" y="341"/>
      <point x="455" y="319"/>
      <point x="472" y="300" type="curve"/>
      <point x="490" y="319"/>
      <point x="511" y="332"/>
      <point x="534" y="342" type="curve"/>
      <point x="526" y="349"/>
      <point x="514" y="366"/>
      <point x="514" y="371" type="curve" smooth="yes"/>
      <point x="514" y="383"/>
      <point x="547" y="399"/>
      <point x="569" y="406" type="curve"/>
      <point x="585" y="399"/>
      <point x="602" y="361"/>
      <point x="602" y="349" type="curve" smooth="yes"/>
      <point x="602" y="329"/>
      <point x="573" y="306"/>
      <point x="527" y="285" type="curve"/>
      <point x="536" y="273"/>
      <point x="544" y="256"/>
      <point x="549" y="238" type="curve"/>
      <point x="571" y="249"/>
      <point x="590" y="258"/>
      <point x="605" y="267" type="curve"/>
      <point x="610" y="252"/>
      <point x="612" y="237"/>
      <point x="612" y="228" type="curve" smooth="yes"/>
      <point x="612" y="194"/>
      <point x="602" y="174"/>
      <point x="557" y="174" type="curve" smooth="yes"/>
      <point x="487" y="174"/>
      <point x="389" y="273"/>
      <point x="389" y="353" type="curve" smooth="yes"/>
      <point x="389" y="432"/>
      <point x="488" y="495"/>
      <point x="567" y="495" type="curve" smooth="yes"/>
      <point x="668" y="495"/>
      <point x="746" y="398"/>
      <point x="746" y="264" type="curve" smooth="yes"/>
      <point x="746" y="159"/>
      <point x="646" y="42"/>
      <point x="542" y="42" type="curve" smooth="yes"/>
      <point x="449" y="42"/>
      <point x="358" y="172"/>
      <point x="267" y="172" type="curve" smooth="yes"/>
      <point x="205" y="172"/>
      <point x="73" y="56"/>
      <point x="10" y="-1" type="curve"/>
      <point x="23" y="-20" type="line"/>
      <point x="99" y="30"/>
      <point x="192" y="100"/>
      <point x="257" y="100" type="curve" smooth="yes"/>
      <point x="318" y="100"/>
      <point x="429" y="-30"/>
    </contour>
  </outline>
</glyph>
<glyph name="NumberTen" format="2">
  <advance width="830"/>
  <unicode hex="11C63"/>
  <anchor x="500" y="645" name="_num_bottom"/>
  <anchor x="500" y="0" name="num_bottom"/>
  <outline>
    <contour>
      <point x="-84" y="-167" type="line"/>
      <point x="-8" y="-117"/>
      <point x="237" y="70"/>
      <point x="313" y="70" type="curve" smooth="yes"/>
      <point x="399" y="70"/>
      <point x="456" y="-10"/>
      <point x="538" y="-10" type="curve" smooth="yes"/>
      <point x="646" y="-10"/>
      <point x="790" y="209"/>
      <point x="790" y="319" type="curve" smooth="yes"/>
      <point x="790" y="465"/>
      <point x="707" y="560"/>
      <point x="596" y="560" type="curve" smooth="yes"/>
      <point x="499" y="560"/>
      <point x="371" y="463"/>
      <point x="371" y="409" type="curve" smooth="yes"/>
      <point x="371" y="395"/>
      <point x="376" y="379"/>
      <point x="386" y="365" type="curve"/>
      <point x="356" y="347"/>
      <point x="331" y="314"/>
      <point x="331" y="283" type="curve" smooth="yes"/>
      <point x="331" y="234"/>
      <point x="397" y="169"/>
      <point x="452" y="169" type="curve" smooth="yes"/>
      <point x="493" y="169"/>
      <point x="544" y="230"/>
      <point x="544" y="270" type="curve" smooth="yes"/>
      <point x="544" y="271"/>
      <point x="544" y="273"/>
      <point x="543" y="275" type="curve"/>
      <point x="580" y="283"/>
      <point x="610" y="312"/>
      <point x="610" y="349" type="curve" smooth="yes"/>
      <point x="610" y="371"/>
      <point x="605" y="399"/>
      <point x="577" y="422" type="curve"/>
      <point x="532" y="401" type="line"/>
      <point x="540" y="391"/>
      <point x="546" y="375"/>
      <point x="546" y="362" type="curve" smooth="yes"/>
      <point x="546" y="349"/>
      <point x="540" y="338"/>
      <point x="521" y="338" type="curve" smooth="yes"/>
      <point x="497" y="338"/>
      <point x="449" y="376"/>
      <point x="449" y="411" type="curve" smooth="yes"/>
      <point x="449" y="446"/>
      <point x="525" y="495"/>
      <point x="576" y="495" type="curve" smooth="yes"/>
      <point x="656" y="495"/>
      <point x="712" y="444"/>
      <point x="712" y="310" type="curve" smooth="yes"/>
      <point x="712" y="228"/>
      <point x="615" y="62"/>
      <point x="538" y="62" type="curve" smooth="yes"/>
      <point x="491" y="62"/>
      <point x="396" y="142"/>
      <point x="323" y="142" type="curve" smooth="yes"/>
      <point x="261" y="142"/>
      <point x="-37" y="-88"/>
      <point x="-100" y="-145" type="curve"/>
    </contour>
    <contour>
      <point x="449" y="230" type="curve" smooth="yes"/>
      <point x="421" y="230"/>
      <point x="391" y="258"/>
      <point x="391" y="280" type="curve" smooth="yes"/>
      <point x="391" y="300"/>
      <point x="406" y="311"/>
      <point x="428" y="311" type="curve" smooth="yes"/>
      <point x="444" y="311"/>
      <point x="485" y="279"/>
      <point x="485" y="264" type="curve" smooth="yes"/>
      <point x="485" y="247"/>
      <point x="469" y="230"/>
    </contour>
  </outline>
</glyph>
<glyph name="NumberForty" format="2">
  <advance width="625"/>
  <unicode hex="11C66"/>
  <anchor x="330" y="667" name="_num_bottom"/>
  <anchor x="330" y="0" name="num_bottom"/>
  <outline>
    <contour>
      <point x="330" y="-22" type="curve"/>
      <point x="404" y="20"/>
      <point x="425" y="70"/>
      <point x="425" y="91" type="curve" smooth="yes"/>
      <point x="425" y="144"/>
      <point x="383" y="203"/>
      <point x="332" y="257" type="curve"/>
      <point x="383" y="305"/>
      <point x="430" y="343"/>
      <point x="464" y="388" type="curve"/>
      <point x="585" y="388" type="line"/>
      <point x="585" y="408" type="line"/>
      <point x="424" y="560" type="line"/>
      <point x="402" y="560" type="line"/>
      <point x="239" y="408" type="line"/>
      <point x="239" y="388" type="line"/>
      <point x="383" y="388" type="line"/>
      <point x="350" y="351"/>
      <point x="318" y="324"/>
      <point x="288" y="301" type="curve"/>
      <point x="256" y="331"/>
      <point x="224" y="359"/>
      <point x="199" y="382" type="curve"/>
      <point x="215" y="405"/>
      <point x="225" y="430"/>
      <point x="225" y="454" type="curve" smooth="yes"/>
      <point x="225" y="488"/>
      <point x="203" y="533"/>
      <point x="165" y="569" type="curve"/>
      <point x="144" y="541"/>
      <point x="123" y="520"/>
      <point x="102" y="503" type="curve"/>
      <point x="121" y="488"/>
      <point x="143" y="464"/>
      <point x="143" y="436" type="curve" smooth="yes"/>
      <point x="143" y="410"/>
      <point x="126" y="375"/>
      <point x="80" y="358" type="curve"/>
      <point x="114" y="305" type="line"/>
      <point x="128" y="313"/>
      <point x="141" y="322"/>
      <point x="154" y="333" type="curve"/>
      <point x="172" y="319"/>
      <point x="203" y="291"/>
      <point x="234" y="261" type="curve"/>
      <point x="185" y="225"/>
      <point x="143" y="193"/>
      <point x="108" y="135" type="curve"/>
      <point x="152" y="121"/>
      <point x="180" y="105"/>
      <point x="195" y="85" type="curve"/>
      <point x="223" y="134"/>
      <point x="254" y="173"/>
      <point x="284" y="207" type="curve"/>
      <point x="312" y="175"/>
      <point x="334" y="146"/>
      <point x="334" y="130" type="curve" smooth="yes"/>
      <point x="334" y="107"/>
      <point x="328" y="90"/>
      <point x="268" y="65" type="curve"/>
      <point x="298" y="41"/>
      <point x="319" y="13"/>
    </contour>
  </outline>
</glyph>
<glyph name="NumberFifty" format="2">
  <advance width="797"/>
  <unicode hex="11C67"/>
  <anchor x="410" y="667" name="_num_bottom"/>
  <anchor x="410" y="0" name="num_bottom"/>
  <outline>
    <contour>
      <point x="251" y="-10" type="curve" smooth="yes"/>
      <point x="303" y="-10"/>
      <point x="443" y="100"/>
      <point x="443" y="148" type="curve" smooth="yes"/>
      <point x="443" y="204"/>
      <point x="399" y="270"/>
      <point x="368" y="283" type="curve"/>
      <point x="349" y="261"/>
      <point x="316" y="236"/>
      <point x="286" y="225" type="curve"/>
      <point x="336" y="208"/>
      <point x="361" y="168"/>
      <point x="361" y="133" type="curve" smooth="yes"/>
      <point x="361" y="113"/>
      <point x="296" y="60"/>
      <point x="261" y="60" type="curve" smooth="yes"/>
      <point x="224" y="60"/>
      <point x="128" y="159"/>
      <point x="128" y="202" type="curve" smooth="yes"/>
      <point x="128" y="232"/>
      <point x="278" y="310"/>
      <point x="278" y="348" type="curve" smooth="yes"/>
      <point x="278" y="360"/>
      <point x="274" y="374"/>
      <point x="266" y="388" type="curve"/>
      <point x="386" y="388" type="line"/>
      <point x="386" y="408" type="line"/>
      <point x="362" y="430" type="line"/>
      <point x="375" y="439"/>
      <point x="387" y="446"/>
      <point x="400" y="452" type="curve"/>
      <point x="429" y="430"/>
      <point x="453" y="405"/>
      <point x="453" y="395" type="curve" smooth="yes"/>
      <point x="453" y="380"/>
      <point x="435" y="353"/>
      <point x="413" y="341" type="curve"/>
      <point x="436" y="324"/>
      <point x="460" y="310"/>
      <point x="479" y="287" type="curve"/>
      <point x="498" y="300"/>
      <point x="518" y="321"/>
      <point x="530" y="340" type="curve"/>
      <point x="777" y="340" type="line"/>
      <point x="777" y="355" type="line"/>
      <point x="652" y="478" type="line"/>
      <point x="636" y="478" type="line"/>
      <point x="538" y="383" type="line"/>
      <point x="528" y="412"/>
      <point x="495" y="464"/>
      <point x="418" y="516" type="curve"/>
      <point x="400" y="516" type="line"/>
      <point x="367" y="499"/>
      <point x="343" y="484"/>
      <point x="321" y="469" type="curve"/>
      <point x="225" y="560" type="line"/>
      <point x="203" y="560" type="line"/>
      <point x="40" y="408" type="line"/>
      <point x="40" y="388" type="line"/>
      <point x="178" y="388" type="line"/>
      <point x="191" y="376"/>
      <point x="196" y="361"/>
      <point x="196" y="348" type="curve" smooth="yes"/>
      <point x="196" y="318"/>
      <point x="42" y="239"/>
      <point x="42" y="195" type="curve" smooth="yes"/>
      <point x="42" y="133"/>
      <point x="157" y="-10"/>
    </contour>
  </outline>
</glyph>
<glyph name="NumberSixty" format="2">
  <advance width="614"/>
  <unicode hex="11C68"/>
  <anchor x="294" y="667" name="_num_bottom"/>
  <anchor x="294" y="0" name="num_bottom"/>
  <outline>
    <contour>
      <point x="2" y="-10" type="line"/>
      <point x="76" y="56"/>
      <point x="188" y="148"/>
      <point x="225" y="148" type="curve" smooth="yes"/>
      <point x="276" y="148"/>
      <point x="316" y="122"/>
      <point x="393" y="90" type="curve"/>
      <point x="419" y="90" type="line"/>
      <point x="459" y="119"/>
      <point x="489" y="218"/>
      <point x="489" y="306" type="curve" smooth="yes"/>
      <point x="489" y="331"/>
      <point x="486" y="361"/>
      <point x="480" y="388" type="curve"/>
      <point x="594" y="388" type="line"/>
      <point x="594" y="408" type="line"/>
      <point x="433" y="560" type="line"/>
      <point x="411" y="560" type="line"/>
      <point x="248" y="408" type="line"/>
      <point x="248" y="388" type="line"/>
      <point x="399" y="388" type="line"/>
      <point x="405" y="363"/>
      <point x="409" y="334"/>
      <point x="410" y="305" type="curve"/>
      <point x="403" y="305" type="line" smooth="yes"/>
      <point x="273" y="305"/>
      <point x="171" y="362"/>
      <point x="171" y="471" type="curve" smooth="yes"/>
      <point x="171" y="485"/>
      <point x="173" y="501"/>
      <point x="177" y="517" type="curve"/>
      <point x="152" y="519"/>
      <point x="128" y="525"/>
      <point x="105" y="538" type="curve"/>
      <point x="101" y="518"/>
      <point x="99" y="499"/>
      <point x="99" y="481" type="curve" smooth="yes"/>
      <point x="99" y="338"/>
      <point x="203" y="245"/>
      <point x="409" y="243" type="curve"/>
      <point x="406" y="208"/>
      <point x="398" y="180"/>
      <point x="385" y="168" type="curve"/>
      <point x="341" y="191"/>
      <point x="267" y="220"/>
      <point x="232" y="220" type="curve" smooth="yes"/>
      <point x="171" y="220"/>
      <point x="45" y="85"/>
      <point x="-20" y="11" type="curve"/>
    </contour>
  </outline>
</glyph>
<glyph name="NumberSeventy" format="2">
  <advance width="562"/>
  <unicode hex="11C69"/>
  <anchor x="293" y="667" name="_num_bottom"/>
  <anchor x="293" y="0" name="num_bottom"/>
  <outline>
    <contour>
      <point x="296" y="-19" type="line"/>
      <point x="370" y="23"/>
      <point x="420" y="80"/>
      <point x="420" y="101" type="curve" smooth="yes"/>
      <point x="420" y="124"/>
      <point x="400" y="146"/>
      <point x="372" y="169" type="curve"/>
      <point x="398" y="227"/>
      <point x="407" y="285"/>
      <point x="407" y="310" type="curve" smooth="yes"/>
      <point x="407" y="346"/>
      <point x="405" y="369"/>
      <point x="402" y="388" type="curve"/>
      <point x="542" y="388" type="line"/>
      <point x="542" y="408" type="line"/>
      <point x="381" y="560" type="line"/>
      <point x="359" y="560" type="line"/>
      <point x="196" y="408" type="line"/>
      <point x="196" y="388" type="line"/>
      <point x="320" y="388" type="line"/>
      <point x="322" y="366"/>
      <point x="325" y="348"/>
      <point x="325" y="312" type="curve" smooth="yes"/>
      <point x="325" y="282"/>
      <point x="322" y="246"/>
      <point x="315" y="211" type="curve"/>
      <point x="236" y="268"/>
      <point x="142" y="342"/>
      <point x="142" y="471" type="curve" smooth="yes"/>
      <point x="142" y="485"/>
      <point x="144" y="501"/>
      <point x="148" y="517" type="curve"/>
      <point x="123" y="519"/>
      <point x="89" y="525"/>
      <point x="66" y="538" type="curve"/>
      <point x="62" y="518"/>
      <point x="60" y="499"/>
      <point x="60" y="481" type="curve" smooth="yes"/>
      <point x="60" y="345"/>
      <point x="154" y="257"/>
      <point x="234" y="196" type="curve"/>
      <point x="183" y="166"/>
      <point x="124" y="131"/>
      <point x="124" y="101" type="curve" smooth="yes"/>
      <point x="124" y="65"/>
      <point x="190" y="24"/>
      <point x="212" y="24" type="curve"/>
      <point x="269" y="36"/>
      <point x="311" y="72"/>
      <point x="341" y="114" type="curve"/>
      <point x="345" y="108"/>
      <point x="348" y="103"/>
      <point x="348" y="98" type="curve" smooth="yes"/>
      <point x="348" y="72"/>
      <point x="307" y="36"/>
      <point x="272" y="10" type="curve"/>
    </contour>
    <contour>
      <point x="225" y="80" type="curve"/>
      <point x="209" y="87"/>
      <point x="197" y="97"/>
      <point x="197" y="114" type="curve" smooth="yes"/>
      <point x="197" y="131"/>
      <point x="226" y="148"/>
      <point x="268" y="171" type="curve"/>
      <point x="298" y="151" type="line"/>
      <point x="282" y="114"/>
      <point x="259" y="87"/>
    </contour>
  </outline>
</glyph>
<glyph name="NumberEighty" format="2">
  <advance width="854"/>
  <unicode hex="11C6A"/>
  <anchor x="450" y="667" name="_num_bottom"/>
  <anchor x="450" y="0" name="num_bottom"/>
  <outline>
    <contour>
      <point x="507" y="-10" type="curve" smooth="yes"/>
      <point x="596" y="-10"/>
      <point x="718" y="185"/>
      <point x="718" y="230" type="curve" smooth="yes"/>
      <point x="718" y="267"/>
      <point x="713" y="338"/>
      <point x="703" y="388" type="curve"/>
      <point x="834" y="388" type="line"/>
      <point x="834" y="408" type="line"/>
      <point x="673" y="560" type="line"/>
      <point x="651" y="560" type="line"/>
      <point x="541" y="457" type="line"/>
      <point x="433" y="560" type="line"/>
      <point x="412" y="560" type="line"/>
      <point x="248" y="408" type="line"/>
      <point x="248" y="388" type="line"/>
      <point x="393" y="388" type="line"/>
      <point x="395" y="365"/>
      <point x="395" y="345"/>
      <point x="395" y="332" type="curve" smooth="yes"/>
      <point x="395" y="287"/>
      <point x="304" y="177"/>
      <point x="280" y="177" type="curve" smooth="yes"/>
      <point x="221" y="177"/>
      <point x="142" y="281"/>
      <point x="142" y="472" type="curve" smooth="yes"/>
      <point x="142" y="510"/>
      <point x="144" y="518"/>
      <point x="144" y="524" type="curve"/>
      <point x="112" y="526"/>
      <point x="86" y="539"/>
      <point x="62" y="554" type="curve"/>
      <point x="60" y="543"/>
      <point x="60" y="531"/>
      <point x="60" y="499" type="curve" smooth="yes"/>
      <point x="60" y="363"/>
      <point x="122" y="107"/>
      <point x="266" y="107" type="curve" smooth="yes"/>
      <point x="289" y="107"/>
      <point x="314" y="119"/>
      <point x="338" y="139" type="curve"/>
      <point x="381" y="61"/>
      <point x="436" y="-10"/>
    </contour>
    <contour>
      <point x="521" y="60" type="curve" smooth="yes"/>
      <point x="487" y="60"/>
      <point x="435" y="117"/>
      <point x="395" y="197" type="curve"/>
      <point x="441" y="255"/>
      <point x="477" y="323"/>
      <point x="477" y="347" type="curve" smooth="yes"/>
      <point x="477" y="358"/>
      <point x="477" y="372"/>
      <point x="476" y="388" type="curve"/>
      <point x="620" y="388" type="line"/>
      <point x="632" y="336"/>
      <point x="636" y="251"/>
      <point x="636" y="215" type="curve" smooth="yes"/>
      <point x="636" y="170"/>
      <point x="545" y="60"/>
    </contour>
  </outline>
</glyph>
<glyph name="NumberNinety" format="2">
  <advance width="724"/>
  <unicode hex="11C6B"/>
  <anchor x="361" y="667" name="_num_bottom"/>
  <anchor x="361" y="0" name="num_bottom"/>
  <outline>
    <contour>
      <point x="178" y="-10" type="curve" smooth="yes"/>
      <point x="233" y="-10"/>
      <point x="298" y="47"/>
      <point x="298" y="100" type="curve" smooth="yes"/>
      <point x="298" y="127"/>
      <point x="279" y="176"/>
      <point x="204" y="189" type="curve"/>
      <point x="203" y="161"/>
      <point x="198" y="144"/>
      <point x="192" y="129" type="curve"/>
      <point x="212" y="121"/>
      <point x="234" y="111"/>
      <point x="234" y="92" type="curve" smooth="yes"/>
      <point x="234" y="78"/>
      <point x="208" y="55"/>
      <point x="190" y="55" type="curve" smooth="yes"/>
      <point x="161" y="55"/>
      <point x="118" y="81"/>
      <point x="118" y="134" type="curve" smooth="yes"/>
      <point x="118" y="171"/>
      <point x="132" y="223"/>
      <point x="195" y="249" type="curve"/>
      <point x="211" y="238"/>
      <point x="229" y="232"/>
      <point x="249" y="232" type="curve" smooth="yes"/>
      <point x="270" y="232"/>
      <point x="295" y="249"/>
      <point x="317" y="272" type="curve"/>
      <point x="348" y="211"/>
      <point x="388" y="154"/>
      <point x="442" y="154" type="curve" smooth="yes"/>
      <point x="464" y="154"/>
      <point x="490" y="172"/>
      <point x="514" y="197" type="curve"/>
      <point x="558" y="172"/>
      <point x="577" y="154"/>
      <point x="577" y="109" type="curve" smooth="yes"/>
      <point x="577" y="78"/>
      <point x="547" y="55"/>
      <point x="534" y="55" type="curve" smooth="yes"/>
      <point x="500" y="55"/>
      <point x="478" y="73"/>
      <point x="455" y="100" type="curve"/>
      <point x="442" y="81"/>
      <point x="425" y="66"/>
      <point x="406" y="58" type="curve"/>
      <point x="429" y="19"/>
      <point x="475" y="-10"/>
      <point x="530" y="-10" type="curve" smooth="yes"/>
      <point x="567" y="-10"/>
      <point x="655" y="40"/>
      <point x="655" y="122" type="curve" smooth="yes"/>
      <point x="655" y="170"/>
      <point x="627" y="213"/>
      <point x="555" y="250" type="curve"/>
      <point x="576" y="282"/>
      <point x="590" y="312"/>
      <point x="590" y="325" type="curve" smooth="yes"/>
      <point x="590" y="349"/>
      <point x="587" y="396"/>
      <point x="580" y="430" type="curve"/>
      <point x="684" y="430" type="line"/>
      <point x="684" y="447" type="line"/>
      <point x="560" y="560" type="line"/>
      <point x="542" y="560" type="line"/>
      <point x="455" y="482" type="line"/>
      <point x="370" y="560" type="line"/>
      <point x="352" y="560" type="line"/>
      <point x="225" y="447" type="line"/>
      <point x="225" y="430" type="line"/>
      <point x="328" y="430" type="line"/>
      <point x="329" y="414"/>
      <point x="329" y="400"/>
      <point x="329" y="392" type="curve" smooth="yes"/>
      <point x="329" y="359"/>
      <point x="286" y="298"/>
      <point x="259" y="298" type="curve" smooth="yes"/>
      <point x="222" y="298"/>
      <point x="163" y="365"/>
      <point x="163" y="486" type="curve" smooth="yes"/>
      <point x="163" y="504"/>
      <point x="166" y="526"/>
      <point x="166" y="531" type="curve"/>
      <point x="143" y="535"/>
      <point x="119" y="540"/>
      <point x="96" y="552" type="curve"/>
      <point x="95" y="544"/>
      <point x="95" y="526"/>
      <point x="95" y="504" type="curve" smooth="yes"/>
      <point x="95" y="432"/>
      <point x="114" y="348"/>
      <point x="151" y="293" type="curve"/>
      <point x="71" y="251"/>
      <point x="40" y="180"/>
      <point x="40" y="143" type="curve" smooth="yes"/>
      <point x="40" y="30"/>
      <point x="141" y="-10"/>
    </contour>
    <contour>
      <point x="452" y="221" type="curve" smooth="yes"/>
      <point x="427" y="221"/>
      <point x="389" y="266"/>
      <point x="363" y="328" type="curve"/>
      <point x="383" y="359"/>
      <point x="397" y="389"/>
      <point x="397" y="402" type="curve" smooth="yes"/>
      <point x="397" y="430" type="line"/>
      <point x="511" y="430" type="line"/>
      <point x="520" y="398"/>
      <point x="522" y="337"/>
      <point x="522" y="314" type="curve" smooth="yes"/>
      <point x="522" y="287"/>
      <point x="466" y="221"/>
    </contour>
  </outline>
</glyph>
<glyph name="OneHundredUnit" format="2">
  <advance width="719"/>
  <unicode hex="11C6C"/>
  <outline>
    <contour>
      <point x="443" y="-19" type="line"/>
      <point x="517" y="23"/>
      <point x="567" y="80"/>
      <point x="567" y="101" type="curve" smooth="yes"/>
      <point x="567" y="126"/>
      <point x="547" y="149"/>
      <point x="518" y="175" type="curve"/>
      <point x="549" y="231"/>
      <point x="564" y="286"/>
      <point x="564" y="310" type="curve" smooth="yes"/>
      <point x="564" y="346"/>
      <point x="562" y="369"/>
      <point x="559" y="388" type="curve"/>
      <point x="699" y="388" type="line"/>
      <point x="699" y="408" type="line"/>
      <point x="538" y="560" type="line"/>
      <point x="516" y="560" type="line"/>
      <point x="353" y="408" type="line"/>
      <point x="353" y="388" type="line"/>
      <point x="477" y="388" type="line"/>
      <point x="479" y="366"/>
      <point x="482" y="348"/>
      <point x="482" y="312" type="curve" smooth="yes"/>
      <point x="482" y="284"/>
      <point x="476" y="251"/>
      <point x="466" y="219" type="curve"/>
      <point x="431" y="250"/>
      <point x="391" y="287"/>
      <point x="359" y="337" type="curve"/>
      <point x="329" y="417"/>
      <point x="259" y="530"/>
      <point x="217" y="560" type="curve"/>
      <point x="203" y="560" type="line"/>
      <point x="176" y="550"/>
      <point x="78" y="496"/>
      <point x="40" y="436" type="curve"/>
      <point x="59" y="436"/>
      <point x="115" y="414"/>
      <point x="119" y="400" type="curve"/>
      <point x="127" y="433"/>
      <point x="148" y="469"/>
      <point x="198" y="489" type="curve"/>
      <point x="210" y="481"/>
      <point x="244" y="431"/>
      <point x="265" y="391" type="curve"/>
      <point x="180" y="390"/>
      <point x="71" y="298"/>
      <point x="40" y="272" type="curve"/>
      <point x="49" y="253" type="line"/>
      <point x="69" y="261"/>
      <point x="82" y="264"/>
      <point x="94" y="264" type="curve" smooth="yes"/>
      <point x="122" y="264"/>
      <point x="188" y="161"/>
      <point x="260" y="161" type="curve" smooth="yes"/>
      <point x="266" y="161" type="line"/>
      <point x="251" y="142"/>
      <point x="241" y="124"/>
      <point x="241" y="111" type="curve" smooth="yes"/>
      <point x="241" y="75"/>
      <point x="317" y="24"/>
      <point x="339" y="24" type="curve"/>
      <point x="399" y="36"/>
      <point x="446" y="75"/>
      <point x="482" y="120" type="curve"/>
      <point x="490" y="112"/>
      <point x="495" y="105"/>
      <point x="495" y="98" type="curve" smooth="yes"/>
      <point x="495" y="72"/>
      <point x="454" y="36"/>
      <point x="419" y="10" type="curve"/>
    </contour>
    <contour>
      <point x="265" y="221" type="curve" smooth="yes"/>
      <point x="245" y="221"/>
      <point x="206" y="250"/>
      <point x="156" y="296" type="curve"/>
      <point x="186" y="317"/>
      <point x="232" y="331"/>
      <point x="258" y="331" type="curve" smooth="yes"/>
      <point x="270" y="331"/>
      <point x="281" y="329"/>
      <point x="291" y="327" type="curve"/>
      <point x="298" y="308"/>
      <point x="307" y="283"/>
      <point x="307" y="271" type="curve" smooth="yes"/>
      <point x="307" y="258"/>
      <point x="280" y="221"/>
    </contour>
    <contour>
      <point x="352" y="80" type="curve"/>
      <point x="329" y="89"/>
      <point x="314" y="107"/>
      <point x="314" y="124" type="curve" smooth="yes"/>
      <point x="314" y="141"/>
      <point x="333" y="186"/>
      <point x="374" y="213" type="curve"/>
      <point x="398" y="190"/>
      <point x="420" y="171"/>
      <point x="440" y="156" type="curve"/>
      <point x="418" y="117"/>
      <point x="388" y="87"/>
    </contour>
  </outline>
</glyph>
<glyph name="AA_vwl.alt" format="2">
  <guideline x="154" y="343" angle="136.647"/>
  <anchor x="0" y="400" name="_AA_alt"/>
  <outline>
    <contour>
      <point x="86" y="251" type="line"/>
      <point x="110" y="277"/>
      <point x="126" y="309"/>
      <point x="126" y="330" type="curve" smooth="yes"/>
      <point x="126" y="357"/>
      <point x="118" y="377"/>
      <point x="85" y="408" type="curve" smooth="yes"/>
      <point x="36" y="454" type="line"/>
      <point x="-1" y="419" type="line"/>
      <point x="26" y="399"/>
      <point x="39" y="370"/>
      <point x="39" y="347" type="curve" smooth="yes"/>
      <point x="39" y="329"/>
      <point x="32" y="299"/>
      <point x="16" y="283" type="curve"/>
    </contour>
  </outline>
</glyph>
<glyph name="AA_vwl.alt2" format="2">
  <outline>
    <contour>
      <point x="83" y="41" type="curve"/>
      <point x="107" y="45"/>
      <point x="144" y="49"/>
      <point x="172" y="50" type="curve"/>
      <point x="162" y="163"/>
      <point x="79" y="355"/>
      <point x="56" y="398" type="curve"/>
      <point x="0" y="368" type="line"/>
      <point x="35" y="299"/>
      <point x="70" y="193"/>
    </contour>
  </outline>
</glyph>
<glyph name="AI_vwl.alt" format="2">
  <anchor x="-145" y="445" name="_AI"/>
  <outline>
    <contour>
      <point x="-137" y="445" type="curve" smooth="yes"/>
      <point x="-91" y="445"/>
      <point x="0" y="522"/>
      <point x="0" y="545" type="curve" smooth="yes"/>
      <point x="0" y="579"/>
      <point x="-103" y="703"/>
      <point x="-151" y="740" type="curve"/>
      <point x="-166" y="725"/>
      <point x="-182" y="715"/>
      <point x="-197" y="707" type="curve"/>
      <point x="-166" y="688"/>
      <point x="-69" y="576"/>
      <point x="-69" y="550" type="curve" smooth="yes"/>
      <point x="-69" y="537"/>
      <point x="-106" y="501"/>
      <point x="-120" y="501" type="curve" smooth="yes"/>
      <point x="-127" y="501"/>
      <point x="-254" y="656"/>
      <point x="-315" y="706" type="curve"/>
      <point x="-337" y="706" type="line"/>
      <point x="-507" y="581" type="line"/>
      <point x="-489" y="560" type="line"/>
      <point x="-340" y="649" type="line"/>
      <point x="-242" y="553"/>
      <point x="-165" y="445"/>
    </contour>
  </outline>
</glyph>
<glyph name="AU_vwl.alt" format="2">
  <outline>
    <contour>
      <point x="-353" y="522" type="curve"/>
      <point x="-266" y="522" type="line"/>
      <point x="-284" y="560"/>
      <point x="-326" y="613"/>
      <point x="-326" y="629" type="curve" smooth="yes"/>
      <point x="-326" y="641"/>
      <point x="-288" y="662"/>
      <point x="-252" y="675" type="curve"/>
      <point x="-225" y="640"/>
      <point x="-170" y="582"/>
      <point x="-87" y="582" type="curve" smooth="yes"/>
      <point x="-28" y="582"/>
      <point x="78" y="653"/>
      <point x="78" y="710" type="curve" smooth="yes"/>
      <point x="78" y="759"/>
      <point x="8" y="860"/>
      <point x="-188" y="860" type="curve" smooth="yes"/>
      <point x="-409" y="860"/>
      <point x="-634" y="705"/>
      <point x="-635" y="611" type="curve" smooth="yes"/>
      <point x="-635" y="596"/>
      <point x="-634" y="580"/>
      <point x="-632" y="564" type="curve"/>
      <point x="-555" y="593" type="line"/>
      <point x="-557" y="605"/>
      <point x="-557" y="617"/>
      <point x="-557" y="630" type="curve" smooth="yes"/>
      <point x="-557" y="689"/>
      <point x="-360" y="795"/>
      <point x="-187" y="795" type="curve" smooth="yes"/>
      <point x="-59" y="795"/>
      <point x="8" y="748"/>
      <point x="8" y="709" type="curve" smooth="yes"/>
      <point x="8" y="695"/>
      <point x="-23" y="652"/>
      <point x="-80" y="652" type="curve" smooth="yes"/>
      <point x="-157" y="652"/>
      <point x="-198" y="737"/>
      <point x="-218" y="737" type="curve" smooth="yes"/>
      <point x="-257" y="737"/>
      <point x="-410" y="647"/>
      <point x="-410" y="616" type="curve" smooth="yes"/>
      <point x="-410" y="596"/>
      <point x="-376" y="552"/>
    </contour>
  </outline>
</glyph>
<glyph name="Anusvara.alt" format="2">
  <anchor x="0" y="600" name="_AnusCandra"/>
  <outline>
    <contour>
      <point x="-18" y="610" type="curve" smooth="yes"/>
      <point x="58" y="610"/>
      <point x="120" y="688"/>
      <point x="120" y="736" type="curve" smooth="yes"/>
      <point x="120" y="789"/>
      <point x="75" y="834"/>
      <point x="22" y="834" type="curve" smooth="yes"/>
      <point x="-44" y="834"/>
      <point x="-120" y="757"/>
      <point x="-120" y="703" type="curve" smooth="yes"/>
      <point x="-120" y="644"/>
      <point x="-62" y="610"/>
    </contour>
  </outline>
</glyph>
<glyph name="Anusvara.reph" format="2">
  <anchor x="0" y="600" name="_AnusCandraAlt"/>
  <outline>
    <contour>
      <point x="-28" y="610" type="curve" smooth="yes"/>
      <point x="47" y="610"/>
      <point x="142" y="702"/>
      <point x="142" y="757" type="curve" smooth="yes"/>
      <point x="142" y="818"/>
      <point x="88" y="871"/>
      <point x="22" y="871" type="curve" smooth="yes"/>
      <point x="-41" y="871"/>
      <point x="-154" y="781"/>
      <point x="-154" y="717" type="curve" smooth="yes"/>
      <point x="-154" y="649"/>
      <point x="-81" y="610"/>
    </contour>
    <contour>
      <point x="-18" y="675" type="curve" smooth="yes"/>
      <point x="-56" y="675"/>
      <point x="-85" y="693"/>
      <point x="-85" y="721" type="curve" smooth="yes"/>
      <point x="-85" y="754"/>
      <point x="-21" y="806"/>
      <point x="12" y="806" type="curve" smooth="yes"/>
      <point x="49" y="806"/>
      <point x="72" y="771"/>
      <point x="72" y="750" type="curve" smooth="yes"/>
      <point x="72" y="727"/>
      <point x="26" y="675"/>
    </contour>
  </outline>
</glyph>
<glyph name="Arrowhead" format="2">
  <advance width="386"/>
  <outline>
    <contour>
      <point x="20" y="388" type="line"/>
      <point x="366" y="388" type="line"/>
      <point x="366" y="408" type="line"/>
      <point x="205" y="560" type="line"/>
      <point x="183" y="560" type="line"/>
      <point x="20" y="408" type="line"/>
    </contour>
  </outline>
</glyph>
<glyph name="Ba.above" format="2">
  <advance width="686"/>
  <outline>
    <contour>
      <point x="413" y="40" type="curve" smooth="yes"/>
      <point x="517" y="40"/>
      <point x="625" y="177"/>
      <point x="625" y="226" type="curve" smooth="yes"/>
      <point x="625" y="309"/>
      <point x="605" y="354"/>
      <point x="574" y="398" type="curve"/>
      <point x="483" y="398" type="line"/>
      <point x="529" y="352"/>
      <point x="543" y="282"/>
      <point x="543" y="214" type="curve" smooth="yes"/>
      <point x="543" y="171"/>
      <point x="488" y="110"/>
      <point x="421" y="110" type="curve" smooth="yes"/>
      <point x="316" y="110"/>
      <point x="234" y="184"/>
      <point x="208" y="275" type="curve"/>
      <point x="126" y="230" type="line"/>
      <point x="164" y="127"/>
      <point x="273" y="40"/>
    </contour>
    <contour>
      <point x="93" y="191" type="line"/>
      <point x="192" y="213"/>
      <point x="272" y="285"/>
      <point x="272" y="353" type="curve" smooth="yes"/>
      <point x="272" y="440"/>
      <point x="222" y="484"/>
      <point x="149" y="484" type="curve"/>
      <point x="127" y="438" type="line"/>
      <point x="183" y="438"/>
      <point x="188" y="388"/>
      <point x="188" y="353" type="curve" smooth="yes"/>
      <point x="188" y="287"/>
      <point x="122" y="252"/>
      <point x="78" y="237" type="curve"/>
    </contour>
    <contour>
      <point x="20" y="388" type="line"/>
      <point x="366" y="388" type="line"/>
      <point x="366" y="408" type="line"/>
      <point x="205" y="560" type="line"/>
      <point x="183" y="560" type="line"/>
      <point x="20" y="408" type="line"/>
    </contour>
    <contour>
      <point x="360" y="388" type="line"/>
      <point x="706" y="388" type="line"/>
      <point x="706" y="408" type="line"/>
      <point x="545" y="560" type="line"/>
      <point x="523" y="560" type="line"/>
      <point x="360" y="408" type="line"/>
    </contour>
  </outline>
</glyph>
<glyph name="Ba.blw" format="2">
  <outline>
    <contour>
      <point x="-227" y="-400" type="curve" smooth="yes"/>
      <point x="-103" y="-400"/>
      <point x="-15" y="-255"/>
      <point x="-15" y="-206" type="curve" smooth="yes"/>
      <point x="-15" y="-133"/>
      <point x="-40" y="-95"/>
      <point x="-76" y="-51" type="curve"/>
      <point x="-167" y="-51" type="line"/>
      <point x="-116" y="-97"/>
      <point x="-97" y="-150"/>
      <point x="-97" y="-208" type="curve" smooth="yes"/>
      <point x="-97" y="-261"/>
      <point x="-132" y="-330"/>
      <point x="-219" y="-330" type="curve" smooth="yes"/>
      <point x="-294" y="-330"/>
      <point x="-356" y="-295"/>
      <point x="-382" y="-214" type="curve"/>
      <point x="-464" y="-259" type="line"/>
      <point x="-426" y="-352"/>
      <point x="-337" y="-400"/>
    </contour>
    <contour>
      <point x="-487" y="-289" type="line"/>
      <point x="-388" y="-271"/>
      <point x="-323" y="-211"/>
      <point x="-323" y="-144" type="curve" smooth="yes"/>
      <point x="-323" y="-91"/>
      <point x="-345" y="-57"/>
      <point x="-379" y="-39" type="curve"/>
      <point x="-426" y="-77" type="line"/>
      <point x="-411" y="-91"/>
      <point x="-407" y="-115"/>
      <point x="-407" y="-144" type="curve" smooth="yes"/>
      <point x="-407" y="-209"/>
      <point x="-458" y="-239"/>
      <point x="-502" y="-251" type="curve"/>
    </contour>
    <contour>
      <point x="-521" y="-118" type="line"/>
      <point x="-233" y="-118" type="line"/>
      <point x="-233" y="-101" type="line"/>
      <point x="-367" y="26" type="line"/>
      <point x="-385" y="26" type="line"/>
      <point x="-521" y="-101" type="line"/>
    </contour>
    <contour>
      <point x="-233" y="-118" type="line"/>
      <point x="55" y="-118" type="line"/>
      <point x="55" y="-101" type="line"/>
      <point x="-79" y="26" type="line"/>
      <point x="-97" y="26" type="line"/>
      <point x="-233" y="-101" type="line"/>
    </contour>
  </outline>
</glyph>
